<mxfile host="app.diagrams.net" modified="2021-01-30T23:08:34.259Z" agent="5.0 (X11; Linux x86_64) AppleWebKit/537.36 (KHTML, like Gecko) Chrome/88.0.4324.96 Safari/537.36" etag="0EZPNQULejmDoNSyRMRV" version="14.2.9" type="github">
  <diagram id="yqVxUfN71hxzEdTazGdu" name="Page-1">
    <mxGraphModel dx="1182" dy="463" grid="1" gridSize="10" guides="1" tooltips="1" connect="1" arrows="1" fold="1" page="1" pageScale="1" pageWidth="850" pageHeight="1100" math="0" shadow="0">
      <root>
        <mxCell id="0" />
        <mxCell id="1" parent="0" />
        <mxCell id="eUcrK74wxGQHS_9A9SQL-9" style="edgeStyle=orthogonalEdgeStyle;rounded=0;orthogonalLoop=1;jettySize=auto;html=1;exitX=1;exitY=0.5;exitDx=0;exitDy=0;entryX=0;entryY=0.5;entryDx=0;entryDy=0;" edge="1" parent="1" source="eUcrK74wxGQHS_9A9SQL-5" target="eUcrK74wxGQHS_9A9SQL-6">
          <mxGeometry relative="1" as="geometry" />
        </mxCell>
        <mxCell id="eUcrK74wxGQHS_9A9SQL-5" value="" style="shape=image;verticalLabelPosition=bottom;labelBackgroundColor=#ffffff;verticalAlign=top;aspect=fixed;imageAspect=0;image=data:image/png,iVBORw0KGgoAAAANSUhEUgAAAmIAAAEYCAYAAAD/B5rcAAAABmJLR0QA/wD/AP+gvaeTAABSCklEQVR42u2df4yV9Z3vSxpIatQwDLEradKQ9IbVxboGNyawifgHmFrCH0vWvVCvtPVqY4paIu5eSFyiYRFbnXXVlAWCvR1uldCGiWS1epshKVWryC65A0talq5sd9zp7HZYi6yXzMqce16n36/3+Mz3+32e55zn55n3k7wcmTk/nl9zvu/5/Hh/PnHrN1Z9QgghhBBCFI9OghBCCCGEhJgQQgghhISYEEIIIYSQEBNCCCGEkBATQgghhBASYkIIIYQQEmJCCCGEEEJCTAghhBBCQkwIIYQQQkiICSGEEEJIiAkhhBBCCAkxIYQQQggJMSGEEEIICTGdBCGEEEIICTEhhBBCCAkxIYQQQgghISaEEEIIISEmhBBCCCEkxIQQQgghJMSEEEIIIYSEmBBCCCGEhJgQQgghhJAQE0IIIYSQEBNCCCGEEBJiQgghhBASYkIIIYQQEmI6CUIIIYQQEmJCCCGEEBJiQgghhBBCQkwIIYQQQkJMCCGEEEJIiAkhhBBCSIgJIYQQQggJMSGEEEIICTEhhBBCCCEhJoQQQgghISZqw2d+9w/mzJ07t7+vr+9zn/jEJ2668sorVze/PtBkW5OBJjubvDBr1qyXoPn/Q/y7yXPmZwPmsXf09/ffPH/+/GvnzZu3oPl6l+n8CiGEEBJiwgiupkD6LGJp9uzZ9yCgjLh6u/n/o00uNGlkwKR5vRNNhnkf3q8p0G5sCr65uhZCCCEkxEThIEKMELqeyBOCqPl1BREoE4VawfcRLESViFB1I1yISPFaJrr1nBFcExmJrU6YMgKtJc445uY5+LTuDSGEEBJiBYNIsKkwUlptqTBSXUMmBTbc/Po6AoKv5t82NbbTPP4B8/wVVsCUHXUxAgghdXtzvx42x4MIOmOE0GQCwXLBPPaMOf6XzDE/YI712mjq7zOfv+WT5pzeYdKGJxK8V9kgzIaImCFS9QsqhBBCQiwHWGRNxOdhIypOGKExleGiPmkEzBkTdWkJFxN5uT5PgcbxGeG10xzbhZwFjD1OROkDJtU4XMD75gn3wxDnUSlMIYQQEmLd1CN9/pZPmhTcQ0YgTJS8yF8w0SVE4DbEGdEj6qa6STUiGsxrTtRYAFURRObDXCP90gohhJAQSx4ZWkCExqQSqx6duWBShqTx7iDdh4BMkHr8nEmLnukF0TNnzpxGUzQ3Fi5c2FiyZElj1apVjTvvvPPShg0bGps2bWps3rz5w61btzaA/7fcd9995+C222775+uuu24MFixYcM5c9wsZXX9eYyfXRr+8QgghJMQ8mOjXQM0jQ1aYtQrJsXRwpFdre4wILsTWypUrG4isp556qvHKK680jh8/3njnnXcaH3zwQaN9uzQ1NdXwbPysnf97cZJvj77b3I4cOfLrV1999RcDAwM//sY3vnGkKc6OpaiPCwoyRciEEEJIiE0XJzszjn5NtdeOISAuv/zyFvx/wYXkL5ji94e7FGAIkEn2vylMLi5evLgVfUIUEYFas2ZNY926dS34f76/dOnSBo9DPBGxSvuenC9eg6jW4OBgS3CdP3++UdTWLtBOnz79s8OHD7+FOPvCF75wsIsOzgmTspRHmRBCiJkrxFgIuxQnCK3Jq6+++gKCBPGBYNixY0dj9+7dU0Rqjh492gIBcfLkyY/g33yfxyAweA7Pvfvuu1uihtdrip1GBWrSRknXfelLXzr12GOPvUOUiH0fGxv7D6JP/njT/994DOKJiBXPHR4ebkWyOF6OFaHWLtIWLVrUOg+cl6b4CUa1it7Yl//88FJLmJ09e/b1gwcPDn31q1/9XvNadVJDeIKopX6hhRBCzDghhk2EiWikFV4TzUX3rBUmpLAQJURNWKTbJUNS+eB6HIv9+Ph4S7js379/itomIk0ItE4iS2miNaThOD4iP0SBmgd1zoiPj+1zVvKIczc6OtoSaK+99lqhEa+MttGLFy++0hSOO2699VbbcZqmk3ZnNIUshBBC9KwQMz5WF1KIrzNNcfIGtUKkpiYnJ89GhUlRG++LaCGShjgjokTar9s0KqKUdBsRnqYQ+jvEV0Nb4g1RihBvCrKTp06deub+++9/xHSiJq0nO4M5rn65hRBC9KwQM6nIF5LWQyG+iHAgThBfNkVWdqIs+v5EkIgkkd6kLittxIyOwea2n8hOHQXQby5cbPzi3YnGT0/+svHyT3/e+F+vHm8M7P9JY+veHzX+9Ns/bHx94MXGV7b/oPGlR/a34P+/9q2h1vc3Pv03rcftevGtxtCRv2/8+Pg/Nk784leNf/33Cx1fZ/O8UQTZfffd9w0jyKaSpLmxStEvuBBCiJ4TYqR+jBdYbHTo6quv/iERDcRJHSNDRMyGhoZaXYWhaBlpTh5XVnSv0w2RhHBCRCGsVmzc21hy17ONxf/tqcaidU82Pvcn32rxX/7rEy0WrX2y9f2P0fye/TnYx//eHX/ZuP7Lf9W45b49rddGpCHs/vbn7zYmzn/Q0eVoE2RJU+HPyQxWCCFEzwgxuiKTLII8hgWThbNbAUbdE4Lhn371Xita87Nf/lsr0gL8P9/jZzyGx+YVZSNaRu0VhfEUwXOcRMwoljfdgKlTo//y6/MtYUL06TsvHWtFnx7/3o8b2757uCVcgP/n+98++NPWY3gsz+GYiWB1e255PSJbCKiFf/zNxufX/1Xj97/8dOOGr3QHr4EQs6LOCjVeH3FGFA1hxvVLWQN44ujRo/9j+fLl25MU9eNhh5+dftmFEELUWogRCUsgwiZZIFkoSUGmFSYsyggDRMeWXa+2Iimr/2ywtXDfdM+3Wws8izuLOfD/wM94DI/lOSzyiBgEzIHDIx8Jl04Ek0+UHTp0qNW1meb4EI+IKdJ8f7RlX2u/ESrXfGngo2hSewSq/Xv2+zyW5xC5IoKFiEKsIWp4/U7FGeeI1+L1oVshFhJo7L89No6D92X/EaYptgNPPPHE7VdfffWRJF2VMoEVQghRWyHG6B9TnxMskmZhJA2Z1CaBFNWP3v6HlmhCmLAo25SYFR2kuFi424VXFH7GY3gsz7HpMvs6/AzRw3sg0og6IfgQfnmnE4naIQh5b/a1PXXXafSp/Zjbzxff+8Km77RSjWmjTTbiRG0X+8pr8vp5CbL2Y7HH8If3/nXrXkBQJk1XtkXHLsTUjY3S4atfeiGEELUTYsakNZj+QYQ1F8afJFnsib4Q8SKKZQUTAgohkVcUhte2Io334yvCD9FBhMpGlLKImiHubMqP97bHh+jIW9Qg8OwxcnxECInCERFMk7KkdgzxyvXJW4xZEH7sN9cKMcl9kkxATu3h/kswZmqUqQ/6xRdCCFEbITZ79ux7QovbggULDr311lt/EpeKRIAR/UKc2AUX0VDUIu/CijMrBvk36U2iMgiplKmy1sYxIn7aa6LKPD4bbUJUIW6IeCWNAhJRoyuyqOhY+37bqCH7zH7EbfiPcR/SIBIXuVWaUgghRC2EGAtWqCDairA4uwYiTSzotmg778hQt8LMRsxIlSEcES9xGxEnRIPtLKzaMdq6LPbt9j9/vlU7F50n6YvuEVGzaeOir4eN7JHeTVD/Nsr92Lwvn48TY5pTKYQQovJCLFQXRuE+i16oK5JF/Onvv/5RhKOqAswHIoD0aVxEBlFDxInHZ9FxmCfsnxXERP/w/EoSIUNM83iOsQwRSUcnaWQ8zmLSlOeMGHsmLp0uawshhBCVFWIxKclRUxN2IhQhsrYIZabnOgWxQldiSIRRS0Ua06bR6naMNi1LhCxJ1A+LEJuqLENUc00QZYj7kHikWYQi/jgxhinxZz5/yyf1QSCEEKJSQgzfJcSWz6ICjzBqckLREyJJZURPsgBRRTosVCyOKEFoEqmpW6TPJXAQZTQtxBX1I4DoOiUFW2TdWDRdiSDkGoTGJJnI2K4YMbZNHwRCCCEqJcSa28OBurC9GLWG/KiorSq6nijrAndSdqFon7V4qLMAi3ZcWgsJjj3O9oJ0rBWtZaWNseoIWV0gGo0Y2xfyvmuyQh8GQgghKiHEYqJhZwYHB/+7Ly2EZ1adRZhd4In4+DY6KcuqlSoqGki6ksYDX8TJbtRrURuXpwFsMJK39snW+4fSqm01Y8Oheke88vSBIIQQonQhFoqGffGLX9zs8wpj0UagFOk7lTXsO9YTPi8xjpF6qjofY5roWFzEqQpizPqzYTcS6qY0PmMnApGxO/SBIIQQolQhZgZ6+0wxWzP+fDU5ONbXOUpkxwb5hAdRQI6RmrBeFmHR2jFEVozIaaWjyxRjdsA4Hm6B7SdGjPkc+If1gSCEEKJUIdbX13e7L2LAGBmfaSuu9HWwbohLSTLj0rfhYzWTRFi7yEFgxXUq2trAMsUYX2PSlHvMOCRnrZhGIAkhhChViNHOH12g5syZE4yGUbjOAlxH+4b29BbF976UJJGWPEcw1aGBAaFK3VhoBJSNjJV1L3CNeP9QOnVwcHBHoAbyAX0oCCGEKEWIzZs377M+F/0vfvGL/9MXDcPyoM4pSaJ4LOC+tBZ1YfiJlRXpqRJEBEnPhsQY55E0bxnWFjadSm2bbzzV+fPn/46JEB4hNqQPBSGEEKUIsYCB64WDBw8O+fzCqM2pc6SIwns8qXwbw8l7tUMyLzFGqrrMSQpcLzzeXKlU/MW+8Y1vHGne11Oe0UeX6YNBCCFE4UKMaIDHN+zY+Pj4/+lFkWJFpG9sDvVGthBcIuzjQgfxGhJjWICUWVPHezMj07W9+uqrv/AU7U8QGdYHgxBCiEKFmK9bkvqwr371q99zzZNk9A9dhnWPhhHd8XVJYlVRZ0+0IiJjvgJ+22VallAnlUyK0iUWx8bG/qP5B8ZFhxCb6u/vv1kfDEIIIQoVYiw+nrTkhC8tSYdh3aNhLNa+Ljuc45WSjBdjzNoMjYFCDJVRX8f1JZrpG1O1atUq+YkJIYSohhBrbg950pJj7zY3X7SozgXsRLo4BldEhygK5rQq0E9m/Lrrxbe8Mx9J+1K4X0bklH3DdsS17dixwyfEHtYHgxBCiKKFmLM+7Lbbbvtnl1AhysDCWufaKRZpispdG7MWe909P0trCwRryPQVD7IyoouMQKJo33mNh4Z8QmxAHwxCCCEKE2J0iXlGv0w+9thj77iGPxNlqLuL/i337WlMnP/AuUgz5ohFXEIruZkq9YK+NCBiHkFUtLhlv0iN/ubCxWn79Nprr/mE2E59MAghhChMiBn/MFcH2QW6y7xCpUcHe9tUmjol00efMMV1iR7b3IHZapH+YkTreE9Mh6cNnxwdJfXuEmLP6YNBCCFEYULMV6h/9dVXX3DVh2GUiZN+WYadWVlW+KI3dTeoLVvghor3sZMo8tyGrvX58+cbCxculBATQghRrhCjS8wlxJYsWeIsZKfLkJqgukaM7Dgj17GVEbXpteJ9IqXU2Lk2miBaliAFpX2ZmkB60tUZixBbvHixS4i9oA8GIYQQRQqxh11+SnfeeeclXMh7zbYi1ElXdMSmV+vFiJi60oHtqd+iuih9FiUffPCBhJgQQohKCLEXXBGxzZs3f+haSBn8XNeOQiI2iABfWpKCchXpZyN2uU98G+nLogQvETrXHFGic0R9VawvhBCibCE27OqY3L1795TLF6rObvM2LelyW++FSQFVS1H6BqkTLSuqzpA/GlzWGtzLy5cvl32FEEKIcoXYrFmz3nalJoeHh6ctXtg9rNi4t5V+qutIo23fPewdVK20ZPYjhnwWIUV5i/mEGJtHiMnQVQghRKERsROuGZMnT56ctnD97Jf/VuuoEVEa36KstGSx9XiMP8LLLU9RHyrWD6QmH9AHgxBCiCKF2BnHaKPG+Pi4s9Caha2OHZMhT6m6W3JU2TjXd86LaI4I1QTSNblo0SLNmhRCCFG6EBuNLkb4K7FQRTdqfkg5EWmoY6rMN1vSWnJIPBXrLWajYnkJYBu5JZI7Lc0+MeH0EbvyyitX64NBCCFEkUJsIroY0dZPe38vzWAM1YeVNQtxpsyi9ImhvMdl8d6k0mnEiG5EfB3O+pPz58+/UR8MQgghShVi1M64OgvrXNBO/ZfPaLRVH7ZO9WF5RsW27HrV20GZl4munSlK5M014qi/vz8qxCbmzZu3QB8MQgghShVidJO5hn3X1czVjro58YtfOdNjqg/LPyrmi0zZsVJ5RFpDdiVHjx511Yed6Ovru0wfDEIIIUoVYqtWrXIumAzKrmNq0kZGXFYKFHIjFDTku7xB63mNzSIK+rVvDTnf89ChQy4hNqwPBSGEEBJiOdhWfOmR/c5jOnB4pLZ1b70iholYrf6zwcwbJriuvpQohsUabySEEKKSQmzlypU9JcRCnXsckwr1s/PtIrqI6AKsTsD+e+Eff9Nbp5dH0T73Kul017Zp0yaZuQohhKiXEMuzwy3vjkk8q7Iq1Lf+VFZsEMmxgmMmjUjieEn/cX45Bxw79XZMXwCc9YH/JxrGz32pQjsMPMv0JPvlE37r1q2bJsT6+vpu14eCEEKI0n3EKNbvJZsHFmTf4GdSYiF3d6I8LcHRFGscO8LDCg7EBUKD1+Ar/6Yo3T62rp5rcYX3nAOOkeNFWO168a3WxALq7TDHJf34mwsXW3CO+UpTBB2S2Fi4vNywS+EcZuW0b+v+XA0al6amppYuXTrNuqK/v/96fSgIIYSorBCrY9ek7Zh0uavbjsloFMuOxkHAITp4DJEzIoJEWNoFB0IDYYGQ4PXoDET04VlGx559nV4QZFaEIr44Rt8cyU63rw+8mFnqO2RdgZmrw0NsdG5z04eCEEKIooXYtFmTRAtc9hVEPuomxFiQEVKuMTtESxBINh2GyEAIAOk06soQHIiuTjYEGik3hAsipq7D0jmHXHfEqEvQZrVlWa9nGzRc9zHWFcxTVcekEEKI0oXYrFmzXu9lQ1fED6LKdTx2ZJMVGjyeqAxpNtJpWW68JoKwbsaxVjxy7V0pxSw3oohZ3V+hjsn9+/e7OiZ36gNBCCFEGRGxoeiixDBk14gjhAtCok5pNmvq6RIRiIvfWf0XLYGECPCN4clqI21JPRnRsbqIMGre8PkqYkM4ZSXEeB1fg8bmzZs/jN7zs2fPvkcfCEIIIcoQYjujixL1M4yAcZmfZt3ZVqaHGEKMxb/T1GMnGylSitKrHhkjTQtJRRgRR46NdC/PIQJIPR0g4EnR8jPErq+2jFRwFkKM+xMRyXu6tjVr1kzrmOzv779ZHwhCCCHKEGIPRBcl6meOHz8+bQFjESVCUieLBlJUpBt94sFVQxS3UQCOKEVwIDQwhUV4sPAnEXUIEs5jlccqhTy42s8fx42YJepoR0URhYRWd2WTdnsPBKjP0y0rIWbrAl2F+kR6ifiqUF8IIUQlhNiVV1652lEv0xgeHp7ebXb+g1a9VZ2KzhEUzDLsZkNc2U5IomvWE6slNtb91keLr/zbdlgi0Fx1aXVofOBYbv/z5737j3jl+IjscQykdzFrBdvsYO07bBcqUSrgMb7aLa5TFucE8cc1cG38gREt1J81a9ZL+jAQQghRihCbP3/+tXgoRYUYI2BcCxlCpE4F5yzsCKi0G8X6RHs2Pv03vy2ybzMutenZj8SYifxYMWaFCGLAFyHj9fMY65OVEOPYfZ2gtpYLUYUoR7Rxjm1kEJGG55zLo43nYQOSp31F6D0GBwflqC+EEKI6Qmzu3Ln9Li8xRsD4ohZ1GnPEoowoSBP9IiXXquMy4suVQrRmrYgNBBfY9JyNkiFU+J4rRWZr1Kp2LjkujskXDSN9yHHZqBnpWF83JWIT4d4uNrkeHHdeIp9rwmu4DHzZNmzY4BJiK/RhIITohObnzlVNbmiyvMmtTVY3Wdvk3iYbzde15vs8ZmmThZ/53T+YU7PjXGiOk2O8yxzbliZPGB41/95ojne5efxVuk9ihBj/cVlYUNDcC6au7CtpwCQCDB8rhFR7Ws0nVhBe1Hq1ixAc220ak0gaAo60nS8Vx2NtXVUdIojUxNmoHylqn8Bs3zgPtks0JJIQflk46xOlvOmebzt940ipYs0Sudcn5s2bt0AfBkKIBGLkCiOkECLPNnm5yUiT95pMJvycer/JmSaHzWvcZV7zUxUUXquNwGo/zqSfx5yPcfO8/UagcZyF1uN+5vO3fLJFhYWvrdh/LirEFi9e7Ix0kHaqU0SMfQ0JMQQANgdWgMWJopBBrMvug6J8hIvPCBWhUpXzSbqVffVFkzCmtelZomFxvmIcc3tzB18RY65zwflEQHUrSm2kDlEcfY933nmncfnll8vIVQiRRpB8ykSBnjUCKq/P4DMmsnRDydE9hOGQEVF5HeceI/I+lcMxzDUi903DiOHNokVgWiH2kMvCYnx83NnxZ+f41X3gN12gpMOSCLBOhJh1iycq5usUrFJ6kuuKcMLvLC56hxgLdVXyGkS42iOLdkanq24OcWYL+ruN6HHOXdvQ0JDqw4QQaQTY/TmLL18kCSFxa4HHeoMRgeMFH+uIiZRdlbGYnPSc13lVFmIrXJ2Tr732mrNzkq7BKlsvJK0RI71IvVMnXXlx1g52o2ic90CUuNz6qyRs7XxG136SliRtaPeTr0SfSLu2G+ESYSRqyutE6714PufBN+Wg25mcPBfh5/M+o+5R/mFCiASL+VITQSn7c3mQFGHO6cdnTbq0zOMcRfSSQsxIiLmO571KC7F58+Z9trkoXYguUnSYueps6tQ5GYqQ2FRbJ5EjFv04s1NEFhEgBAjP4d8uT7KqCNvQFAI6IqO1gZwDzh9RNO4JhK01q3XVeoVsJYhadlt7aIWkyzCWY3LUh52hWUULjxCibSFfnUKYtNd77WkrWL/fpPiiRe2DRuCliTzx2NU5HOe9RgA1Uh7ry0a8RY/TNic8as7FYfP6kyneg3OzdEYKMYrYZs2a9XbSzknSbHWpE2Nx96UFu6nPssKJ1GK0Hol/EeFBFNjUHO9DpMgXmauCsA3VfoWEEiKT/beF/L7oXmj+YxZmrrw+19S1nTx50lUf9oIWHiFE2yJ+awIRNm4E1dpOuh+J+hixsNyIlpGE6cq7Mkzd7U8hAu2xXpM2YmXSu0uNSHs5ocDlWO+fcULMpCdfiAqxVatW5Ra9KFKIhRb/bgSldYonGkSqkqgRjQEIK+sm3y4SfN2IfL8KwpZ95lhche5ZDHwPdbB2Gp2MCjGfNQa+eI70+x1afIQQbWm6UKTqPSOcMrVjQMgZAfhmAoFya5fHeEPCmrc3TZTrqozP8TXmHCaJxO3ppNOx7kLs4ehCtXDhQufwb7yjECF1GP4dipJkJYAQMIgMUm+tr01xFo0K8T1fWg4BVxUh5vMQI5rXrRDj/LiMYnm/bs1tbWemb3C7Y77kBcyMtQAJIcwCPhhTVH5NAc0BG2OiRqOdigkTmRpNUDy/NotarQRi6dEEEbL9aTsray3EXKOOGAVDSsfXQVeHmZMs/kRbfIX0RUX2fPVLxJ6qMkydfcAfzFWsT6rVmth2ao3B/eIaxJ2Fn5qN5rnSqnT/8kdFZKzR63n9Ui1YsGBlk/VNtiTgkQDbHTzeBv9+0LzXStW7CdFVcf5kwG5hYYH7EpcefbTD43svJtqGMLqi4PN+g6klC32+D6URY7UWYn19fZ/D3DIqxmj5dxU+U0tUxfE8Ll8pXySqyHmPoYiN9dAqW9iGzFCxo+hmH601huv4sxgmz3X0dbIyN9WRltyWoxDb1+QsFjAFM9bkEH9UaXEVIpUg2BP4fLm1hP1ZHRCG76eJzpmU62iMr9etJZ77T5ni/2CackYIMUKRroL9zZs3f+ha3Ki7qkPBvi1An5pye3gVWevmc5UnApWFq3xWhq6ubtBune+tyPN5iHVj4WH9x1xdqZ6xRsxWvSlHIbaryakShNhHXH311UdkzSFEYiHgq5vaX+J+hcTJsykmAYzEpCIXVuQ6bIn5rN/Y80LM1IntTFqwX8U5iWktGYoWYiFz2Vbn5NonK9Hc4NvHbgrqQ9YSdnRSp2nPULfn+fPnG4sWLYqmJd/Oc9xFFYSYEWMXSFtqsRWi47RkmZGiqwLNAyNJPsNiIn1vVm0OZIwY4xot73khNnv27HtcBfssZllHMYqCCA6F4D5vrCLFZKhzsioRRvaBwe5Z19RxHRDEvkaAbo49ZNpbdFoyIMQumbquDaauK0raOrJnTAr0jSbnYkTZBi24QgT9tDItjM9w354IiJIbEqQ3G1Woe8swEjgSV8dWeyE2f/78G03a5mMF+8ePH6+0EWmSTsAqRMSIeH194EWnYEBIVEGIWTsOVyqXyFWnBfshawwicJ0eu20C8KUlHW76U3mn7HxCDOPkPN6P1+WPqOZ7jHiE2MUmy7ToCuFcuB/1fL4croivWepUnUlJngnUmN1Q1ethfNaGOm1WqL0Qo+uquVCNJnHYt+m0qhfsVyk1GUqhFb0voRSir2CfWja6KjsR36Guxm6EmB3y7XpdrFcYXh+5n0/kmZYMCbG87TL6+voua77PgEeMjfBzLbzZnGeam9rJu91flBKB2V+BfZsbKLTf02GKb2MNrslVASH5XiiaV3shBrNmzXopKsQodvYNtK66sWuVhBjpuZA9RFXGRoWmAJC27EQ0xYnQToVYyCSWWalFpyXLFGJt77/dI8ZUL5bN+V1G/Z2FbtV58+Yt0LmprRAb6qYgvoD9ezONUIypLXuzLn80xKRWn+1pIeYydl2+fLlzocOcswoF5kkEQF5u8WmjTfhl5dE5WJQJbqf1XFYQu2rEOq3Vs5YYWGtUach32UKMD1q6Jh1C7A1FbrqHe6iotLMoVYjtqfj+HfY8fmPgc3N5j1yb93yNBj0hxFzGrnzYjI6OOr2luvV/mklCLG8vrbzNZ7sxX7VNE1kW6/Mcn1kvacmiuyWrIsTMPtzmEGKXNE0gFyF2UUKsJ1OTL1fc42xa56Sx4vDZVQzV8NrcEOho3dizQowPFJexK91nLmNXohxVrhOrko+YjXYR/aq6qPX5iXWangy59rfsKzqIrIZSqIcOHXKlJR8qSASVLsRMvdgppSdzm5wgIdY7QmyLV+hUIIJsDFmXO7ghun/m+5Uxps05Kua8Pj0hxEx6cji6iG3dujWXwdlFDbJ2CbGih5cjxBAkvjE/FMlXpQuVa8q1dW2ddE/GGbpaU9YsonZs69atK222ZBWEWJvDf1SI7dLiKyEmEtlXTFa5uzCl3cVI2pmNNagVc16fXhJi25Iau1ZlYHUnI44YiVN0swH744o0YQfS7bzFPNKT7JfLZT9tJNRG+lw2E52MT+K6+YQiafT+/v6oEBsqcKGuihDb4BBih7T4SoiJaYauvs+aJ2o2IWAkq/mUNZl8sLFnhZirTgxj14mJCWdtU/tCWzVChedldH2GhFjVfNk4dwjtLOZ0Eu2iTsx17ES10hy7fS1XZJFt9+7dU4605B0zTYj19fXd7hp9pMVXQkwkXujfq0tULKaeamnNr9GepHV8PSPEaMV21YlhB+CKjlCEXdU6McQCrvVVcbP31V5VLSIWF020g8rT7K+vpivtPWRNZ10NGGx0+Ubu3VE88mZgRGylIyJ2SouvhJhI5eZ+pmqjgDzHsDaw/1fU/PqsDUw/uKInhZivTuypp55yLspEnKqankSI+cYK4XJfFSHWaTdi3l2e1IH5XOtJDaaJioXmWKaZtcnr+CJ1TIFgGkTk3h0oeKGushAb0cIrISamLfTLYz53zlS92L3q3Z8ZNCxMJqkT6zUhNq1ObM2aNbWrE2PRphasCoO261Ssn0TIItDSpKVDr0UnZhJRF1ekX8ZIozqlJpsMd/p6RBVxkW+ez+sRI7w+ZQwYnHJsiJEi3ft5L6L3Zn+W2X0yx73S7lfz55/O274i6/ew7v1m/2/mPJtzvZJRdJzrIqxYYs7Dp+39YM7JSrN/Hd3ndMDxmuY+4thvtPcV32/ef3NL6s5rX/SfrWqqEl+xXqsPS1j/trZnhZivTsw1ALzKdWK+dFgZ1htxBetV9GQLmdCmjSryON+szaQDxXkMtX2ubXx8vLUwRrzDXi+6Bb3ixfoHUi6215vXOdTkrJlb6RwublzmR0y35vqsjxfhYQTXFrM/IwkGnsOYGY6+l8+1NGlqjgFBYMTG9W3nIzrLc2X7Y4yIuJH9TRot473Max8w98/FwDFx3Mc41+aY5nrKTBAxN1vYJ9/7m8faY3Tutzmm7cYweMwMs58WdU0qEs2IqNvN78wx85rn2l/XTi9ocrr5/z/k+rMfWYt+E3UZTfBZNmnc7h81hf5z6yRUaizGXvYc35aeFWL8BeKaOxmtE6NKp6p+YkSgfKnAtAXiWQkx3xxHxJkdYF3FqKJvjBDRPQrnk1hPhAZ/JxlzZM+NyxDXV6TPMOwSUldVEWLPOxbJ7UmjPmbRu5RA6ISE2T4W9gw80TaYhbqRAQjKR+IiLEb4JX3PS21Ef7Y3RoDdaMTrxS6PaUNUnHCckccdC9wvh3xWJ5wrjiPhPsYKMXvM5h7p9JhPuY45gw7K91J+Rp4xImGLGdK9sASREhprdGuPCLHBJOOOekqIgWvu5I4dOzKpF5qJEahQWg1Bw8+rMOLIJaC+sOk7TjNWNtztk0TFEGy8jstdn3FZca8Riqjxx8DSpUujackzRRbpV9DQ9axj8bot9DyiICYicykj0WMjRns7uRb8QWgEYawQMov6WcO5BKLhVChtnVKIhdgVuEa7uhRg01LP7efZIcTe8B2v4zzvsvvpGZmVWoiRSjZ/IFxMcC2nRcd815GoWsZi7EwXn5nvmegUnX53mde7ImeRck2vdkwm8Eh7uaeFWHN7IKmfWBXnTlZttmNo3mKnY36KjIq5CuSJbSWNitnr4RKiRC1Dr0HTgM/6g43JD2UM+K7wiKP1rnRWKApkohSnA2KK9N7jJgph67BuM+/1YFt6ybfIHiMVlVJMvuF7LfbF7IetUVsw12y21sjULrFvw54FnYV+ZQohdilBRCwaGdvlSsnFiJsxI4wQUhtsfZj5ut6kZw8YsTLt3FgxlkaIOSJiz5jv7w3cE2MmRcx5OmsE1DGXEDNp5VM+8dZkgOPj3Jhr2W+vY1tKejhwDR7JOML0RCDKlIZJk/I8bNKZa41w+lSG+3uD573fr5spbQcTEN7saSHGBzPFztG5k9Ti+OwMqpRai4vAsLCncYfv2g6iKVR9ER0aCqpujOsTkUmjYjY16xrSHVf4z/szqorIV1In/W5TYnUVYixgHkG1K6YTcMwjVAbY9yS1dizALKSkQD2vx/eWJTyPjzuef5rFupNCdbOYD7v2yVdsbwvRLeY1XDVit7XXhVl4TlR8GmFxNiAw1yctTEescj6iog4Rx/XqUog9bo4jmnL+oRHjn2M/uRa8F/tiC/ij94rZR1ca8o2019Ps0yHP+Xsmy5pQUzf2aKD+qhtxdsY0CDxqujbndhnF80XnFvaIELt3RgoxfrGaC9qJaKThlVdecUZGqP9hwazanEnX4k10p+hUKkKFovSs5jdWpfEhaVTM2mG4Zm3GCfnQXMnTp0+X6qRfJSFm0kg/dNVr+aJRRjidcy24aSJYnjSUa8zSWX4W91zHwj0S97yEBf9djX5yiJPEXZOBNB9i7sFuOiGph4xEIwe6FGIDJur20XXrJAVomhBcTRXbuzleBKtH3D2S9e8V4s6IJSvK3s/hM5ao2f4m96cVT6Y2zfea83pEiPm8xEZ6WoiZ9OTOqBDbvHnzh910vs3U8UY+MUHxetVEbCdRsbgOyk7d9RHUGL763pc5qNF7lL+yZ5oQM9GYN9KkbYwwcUWJdmVlj2BSStNGLYUiF47U6sWkkbSEKc+RaOQvqZhy2Vck7YwkYuOJyN2c0bleGRE9Y10IsWNtr3W2k/vXRGdHHGncTIbPm2sx5hDGuVnWGFF2jREGe3ISZu+bBoC1ScxkA/MYa2/mmkBs9r4Q4y+g6CJHUbRvGDQLbZHpvk5TgVggFBmBItJDc4ArLVdFM9e0YjJJ5yf3BaLqR2//QyohhmCmqzKFZcXbRVtWJBFi3USXYorrqdN6PtCBdtB3Pkz9VFcWFynOSfR91id9fNajmVwea0mjPZ0KMRMZuuiyvsjy2Ewdma+OKo0Q+yiaGrK96CC9/EjG99ZKx3kdKcrTrk2YrTZ1TEMZizOiWhtDqcuAIe14HaYCdDn8u/eFGB8w0XFHl19+eSsdFN3oqluxcW9LjFVFiFG7VIXoXShNWuWOyTQNB3Hds50IMR7PPeXr2GTaQ5lzJdMIMZPm2ZUBz5v047E4Hy0e56s3MpGhaC3Z6azNSQNRqGMBgegsHM/SjNRx7h7PU4h5omFbcroHH89KiCW1PPGkpqPn+I08/kjyeOatL1E0fMrUl91q0plDXXZiNoy4Wz2Da8TWzsgasdC4o8HBwcrXOlUpNRkyIn36+69Xzvoj7lh8ESoifr4JAZ0IMZ+HGXVpmAsvWrQoKsJOFOnunkKIlcFAKL3o6azMbfHyOP3f5rFSONKJSEp5nc52EgnsRIh5hN/pvO5VkxIcy0CIjXUqzB31aZfi7FO6iUo5GhaOlBkZdwiJuSZydpdx6D/cgWfZNAPTmK7JyR7qmrzLc4yHZ4oQezgqxO68805n+1qVbBisgahrNDRCouiImGu0ERv7WNWh6b5uVKJUvjFDvmhjWiFmfdcYiJ7UwBXLlQrMIixTiF0y0bLbEuzncFHCIBCB2+fZtwPRmrIcrtMW42lleTAvIWbSx9Fr9WDO9+H2DITY850KI8fvwLE8hZFJUV6K1GXeWHFxcZWJmj2RsjNzi6O705cKXd4jQuxRz/ENzQghZmwsJqPjjiYm/PVOVbCxCNlXIAYQBUWkA61wcaXXqmj7kTQqRiTPtSGcEFDRFHVcsX60Ti7k6P/BBx80lixZUgkD15KF2CUTaXnDLLzLUqTmxopIk0XOzUDUjNPjOTWQVZ1SDjMWOxFi24seFG6aNy51I8Q6bXrx1MPlKjxN48mpou/pjGvNlhrBkSSNubpNfMwLPGd1jwixPZ7je2JGCDFu8KQ2FtZTqgrmrtZA1DdSyIqDMtOSVTdy7eTcsn3npWPTomJxkw7aBWlc1G3//v2uaNjDVfilCtSIbTHpufXdYg0+zUzABRmIiUtFDEd3pCcvurrxzLFN8xDLqnOyaCHmsBQ5lvfQbs90hZAQO+gQv9d2+DuwPqvXSvm+z+TdeFJgpGwwQc3YFW0i7k3P4+7t8VmT988IIWbSk9uiC9+mTZsSL8JlzZpEMLhSgkRUiJbl3Vhg3ftd4oNt49N/U0shZgUmxfmujSgklhPtKVdr6OqbdNDecclrcx/5Xtsxzmi0W4+pvIVY3hGQLi0lxoqIJhrPsotx3YomujHimV+5CzFU1vVOK8Q8x7KroOt8qFMhZnzDLuvid+BjIjpv4empeyzkfUtwk5820Ns0BLges6cHRNgVSSN+PS3E+PCJCjFSQ660H6KDeqAqdAGGCsuLEEFEBn0NA3VNSyaJcLmifSE/MFLF1kctbralJxo2UCGRU4mh3ykjB8cKcv2f64jSbPAZp8YMhR4zBdrPmK6523DCz1tQphVinsjU9oKu894uImJHunjfaI3fwYKOd2VUuFfpD6AORcj+wOfw/iQjgKrUtJDxLE2+d82MEWLGZf9MdAE8fvy4cwAzVg1VKEBHCCC4XFsR7voh3y3qn+rULekTur7za+8DK7BCQ7vbzwWP84lnT23YRB4eXT0uxPZFbS4KHEaeuI7HFLmfTTlg3M4/PGhsHIiSrOQeyaIZIa0QM+LzXJH1UgEbizQRsUNdvO+wSzTnjSPyeLGsUWcZpynHAz5h82IMT9+vu4VFoGPyTDTi2dNCzOeyv2PHjkr4dHVSsJ+3kWoosoNIwY+rTt2SvqgY5881tqh9pmdc8b21PYlz0fd0Sg5U6ZfKJ8SqtCA4apYKqaUx3XTRQdoDCfyonjE1Ypc6bWww0bWzpkNyfae2DGmFmGtcE+OICroXH+lCiO3r4n2PVcC+pYWv9tEs2Dc4uKaCQiRUL3Zr2/H47DDu6tGo4H7Pde1dIUaBcHQRXLlypddl3dZHlV0nhhjzWUcgAPISjCHhQedgUV2bRUQdfca5jG8iNctjfIIN0WVFaSiCiG/Y4sWLXbVhn5UQ6zpisa9AEXikE7NWE01bZurbDpjox1gX4owo1d6090/NImIDXQixXV28r2us0aWSxNhtgfqrSQejVRsLFIh2fUxkBQraX66xCJtrrkmiRoSeF2LUXrDwJXHZr1J6MlRUjjDIQzDarkJXYXqSuYx1gnPHdXbZUtj6r4V//M2W2HJNFrAdrFwnRJvrMQEX/Yer9ktVEyGWu09XoHD9WFb1UsaGY5lJP243xemn4iYORNNmaYZZZ1Qj9khB13lvGULMIbYPmutUKFwrX80gi3hd3OiNT9hknKdY4Jjer2Kkr0tHfWfKteeFmElPvhBdDFkgqzJY2yeKQsag1DhlvZ8h8WeFR12L9H1TDDCmdYkovkeKlnS1a6MeDKHm63ANuOiP5jGOZ4YIsVxnOcZEh07lGR0i/WlmcFqBNmBSsSMBgZbY9b1mXZPDKYTYgQwjYgfLirhmtMBfU7F9nReoE3siItjeS+K3VSMhdjiJo/6MEmKuIeDLly/3Cg66J6sgOEIF4D/75b+1BnJnVStmbTN8dVOheYy1FmNrn2zVhPmiYpxn10YU7HdW/0Vjy65XG76NWkRHNOyhKv5S1USIbZ9mrFpAZ5XHSHZDUY0Cxj7jQc/4n0TjfLLwESti/I4RvWMlCbG9ZTSDZJjuW1qxff1UwL5hT8J6svG6Fe0bg9vJNHVvM0KIudKTc+bMaZw8edIZySBKYou1yx53FLJEoJaLqEzeMy7zbhCo6kgp34Y441xg4+Ezh33nnXdaH+ZVdNGvsRArxXDTuL0nquHJeT+udYxbShSd69BZP1o0fy7vaK7Zz0slCbENRY7P6nCRvyHweXZ/BX20RhM6yy8NHNezPWLiesZXxzcjhJhJTz6XtHuyShYNoagY6TMKzrPYV94Ha4wqm92WUSvm664lGkYa27dt2LChUcWZkmlHHFVJiLlG0KSpk8pwgT5XVnrZJVSSpGizmjWZ9/l2FOoXKcSWRc7txSKEPmKPSGD71w6LwF+umCC5KjBLcksKATNZtWhf4JhXB9abjR2cq54TYiuiCyNO565ICBGPqtRD0T1JrZirgJ59p4aMqFk3RfShIv327sBeFGLtBrZ0S8aJMM4RKWFGGeEP5tpee+21VsS1/V6bNWvW21X767puQswzl29fAecm1jTUROseMTyeZ+rSUVQeG7npRIiZlOy5ouryXO9XpBDzNChsKOCPi7MmHTtmjn9LhxGX8Sot2gFDU2eKLialx2ikT9XAO+1M2mjYjBJixtz1RDQ9efToUW8NUBVmT9oieiwrQqkyxFqn+4uI870+hei9YlnRaUSwfWNoONEwX10ZUg57lKjoLyJyk4cQq8rQ6kDBfq4u5NRnOZzytycQR2N5jalxjOI5Fzc6qRMh5plmQMRoZYHRsLRCbG/GHZsjef4B5Uj/xqa9Y0YI3VshYbI2zkfM8Zw9gefsqbgQ259k2PmMFmIUmbpmT27durXyg61t+sy3+NsmA8RYJynEUGquV4v0XeeAKJfPuqO9NszntB8YZTRU9ZB6XYQYEbpoepIIVFFjlRBlrokIDsFyLq+5kg7Bcjau9rBTIeZKB/N+WYtfMxD+UtlCzHN/rS9wdFbsrMzm59XywGcZkZe5FREmewKRu6s6iCo5U5oVOdZHuxGQM0aImfTkTU2morMnXfYFE+c/aC3MVSlQJ0VJcbivi8+mzSg8p4A/aVqV1+U4XQ0BnAPEXS8W6acdfWSjg5wPX4H+xMSEy7z1Qh3GldRFiJl9PeQYEbQspxmAl5KkQh2DmxuIi4L81EbySE0GInCtFGVWQtPUop2LRN1KEWKe+2ssj6irY4h9osYL0434ZuCz7NGKpOlGkzrLp6izCtZalXSs9wf29c0kwnhGCTFSBdTqRCMWw8PDzoV123cPVyoaRISOei0Eki8tRk0XxeRE0Xh8XEox5B1WpahgUZHH0MB1ash8IqwVPdy6tVH1UUY9IsSWOaIWp7IsoDeWEWej0TCfqGahdqQwhwuydziQ8JxFF/1lKd5zxPH8075RPClGRz0YuZanojNFixZiXGPXteQ8ZHkPO97jbNL3iEn7TcalwkqOEN3V5fMrITYT7OdoUuuNGSXETFTsoehieeedd17ypftYnKtUH4VQIOrls7Ro33c6Kol48RxfVCuUliQ6NJOEmG1coBif85dmY5B88wN8ml1FN+KAKAepISIrzPnDkd9wR9YDw+skxALRhJEsutyMXYVraPeGlJGURlzhdRZ1VEkibybFeKnTQnSTsjvnMZU9aAaUX5b0vjapyDcc3ajXO65toULMF+EkCpiF2PfcX6lq7wgqmAL2RsDg9dYSfbTeC4iTq7pMbX4UWUv6WjlNDRgK7Nt4mk7PGSfE+EAiXdS+YLKA4vtU9aL99sgYYsznuh9Np1GIT1ckz0OU4RmGQOPfpNpcETZeu1e9w5J4qhF59HVFuiKRq1atSm3eSkSARYkPd3NfrjCCa9usWbNeMs0lFxyv2zDffy6rKFDdhBjnzjEEvGGiRes7KZQ3kZ8tHsHxfIf1Ra0B4d1GU0zH6HbHax9LIoA8kbSzaQS9Ob6RwNils0YYcQ7XI7ZMShSRdruxAdnnEbnnrBBJOfQ7FyHmqftrRey6STkbgee6vx7pQAzEpfDeK7p434iw8cA+rU1pCDsUc4xnio7+mWjkmZh9uiEjq4/eFGJpRx7RSVfFqBCde76UomtDWFHs//j3ftwSl6v/bLBVc+ZzhrdpyV7vlgxFHkOu+e3b7t27pzxiadSkwoeNsOK+GzL/z/deN2ILs+FJz2vEcSKL+pW6CTFr1OwRYw0zG/JBxENIqPAaRiw84jFLbS3uSaM9nkidTbltQXCn6cLj2iLOHbMuraHtjSmu8QGPAOLabzBRKuriHvSJDc4XojTjYdjD7ZHMqggxkzp93LfPiMskdXL8sWSE6LDntbZ3IQqeSPB59nJaYdChi/6WQCSsNd4n7WQG87qDCY5xKG+vMdMkcTjBvtzbwWt7hVhe3delCzE+ZKILGkX71FfVoWDd1oqFOvziNhoUEGe+FCdpSTtLkQgR7zmTomNEDBG7mNmGNo+DftEMzUQh1hYp2hVY5BEMI0awHTD2BM/zb2M5MRbz3C0dnMtHAkLlookqHTJpxi2mTmqD+fq4iRrx8zccdUTtkb+VKfdrWQoBtSvBaz0f2L8kHGtFLyOLc0oh9nxeQixi6HvRcwznjMDaayKW9lpuMRG14cA9dq7bmaWcu4RC5X2Tylsd8rPqMEV3b0ya1EaJFnZxjE8k/Ox+2USsrsro+K4yr3c4xfrxXpI6uIRCbNII3I0VY20mTsZRT7FQ0T7F71Vy2sfANVQ03u1GUTopTeZOUitFJI3oG4K01wUZ3aYcI52kNGv4Zm/a7e67785UVF1++eWtzktmoa5Zs6aV8uTfUYPYCFPdFE2bxcaXMlpWZSEWSfmcyipKg1Dr5pyaTsBjGUaN2sXhgU5r4RAJCcXTrqSlHubc77MDyqOvb/49Zq7PsBFay3zRkZRC7GDaFHIXDSKHMryOh7Jy7Tf1Ys+m+Jw7Y8TbvSbKszCJWaoZWXSNmXe50USh3kvwfiNZzIs0gmg04TGOGuF5r0mXXhUXjTPHt9A8/n5zfONdrCdPJI0AxkwhqCIj2YTVUhTtI3pI45UtQIhMIYZ+8e6EVxgQ1XNF9rLYiJ4RIaJ2rGp1c1l5ifGV0UW+zlRXkT7jjBYtWpRacPEcpjsg5kiN84cAEbZobRrRS4yHEWeB19zWTYrS/AV/wIgHIjFHoIgRL1mlkYwz+gZzDBc7WBzHbOF5hgO7bzfndazLhZu06a5uBXdbrdczVjg5omSXOkmXcbyk6qg7M++xjK/clyY9lzS9+3jS7lNz3w63sSVnwb/SCLKxDu+vXXn9cUMUJoVQiUZwzhjB9KaJ/gwZDpvvjZjHpBULh7Mc2m2E0mAHxzhu9t8e26BhKHJ84xmvK0NJonM1FGKHM7mgfDg0F6+JpEX7ZVtZIBIQg6FuPhbsdevWtaIojNlJMrKnk42UKHVmvWT0yvlF5MZFwHzb+fPnW6JsaGioJaqwsti8efOHwP8z15RaMn7OteE+4znt1yjuavF4l2u/GaFE3dmKboRMO3UasuuKEBj7ifVm4Ttk0pAjJup3yojNH5pIzhYETp4D2REiphZtvUlh7TP7ZVOkxwzDZr+eN49bT3o4D3d32yhiztUyW1zPZ2OZ47gcqeYDVbvHzDimlUY0HozcXzb694YR9o/kfX85hMpkyZ+pCMJ78/osMVG5wyUf47hJmb6ZICJ4jYRYikHgPqd9olDYGpQRFeM9KZqPG0zdniYjlUW0BQFw+vTpXKJjiLFesLfg/MaJ3KpsiDhPRGw4LwPRXsEINKJUl1VJbLbEb3Pf6i6AczTs3VWn+8sO7i7zelKcb+wfxksQYE8UZSthBNn+gkWMFWAL20TUUILnrI4RYnVaN9/M8q+am6MLGr/44+PjlRn3Q80S0Rq6GEPbpk2bgmkw0lo8ZnBwsLWYI86IynQTNbMDx+s+EJw0a5I5k5ypfGKM6SJvDvf+hunIvEkLucg68kPEjBQ1aca8U9WewdtbdC26LjYfNKm3yZzE156sGwE6GDB+rynWH8/pGAd9jQAJGwomfVMBTH3aHiMqowx2wJ6MeNbD/ZleQGMh8LFFjSiSzyTViqOinN6JOMV17rG/nRSGI8ziUpBxnZlE6WzErq6eYXiyucZctdcI4rZPBBBLi266VbvdqP+jw9dxPR/O0lleCBOdetAxXSC3+8yYnbbXrF3Koi5OfGQFcYMRE4866qNGjYh534iGSVM/Nm5+ZuvIhszz15rC9rkVFJ+2oWC/OcYzkWOLCqT24xwxgu4JU3e3POkxGjEYJ3b3JGmOqDrZvtgnPnFHdFFbuHBha26ga8MctaioGO+D71eHHlZBiJARXfFFfihYJ11HYT7HHGoQYAh2XVOURMN80UbSr0RBOQ8tI9y1v7Xx4JxwfrIWZDQIUKMWet3R0VGfXcYKLTYip+L0QmZoekxUx7IcLSS89hBXGAGz0ESXbjBcY753VVnRrgxFaPuxLTXY41xoj7PblLIRgeMxDQxXSIglsLLwGbwWFRXDwwsBFEodUvgdY2vgBKHpa0pgQ/xZDzHg/xEfvoHjRMXw3apbVIxj47hcwoezjsB0DVDneQgzBBqPIWKJ3QdiFfHmu2JEsxBbRNi4j3709j+0nksjCFE5Xg/hF+p65b50XNMzWqxEjkXp54qwiKBJwPFe+3QdRA2F3zUeb7XDVYsgVkKImajYA9HFDWsBX8Qo7w5KXps0WGhBps6L2q+0IozOUJ7r2xAGvH9UVPG92//8eec+8T1qxRBjdUtLcp594jJusgCCzI6N4tgRUpwHzhPCitcG/h+YZoA/GeLP1v7xXIxjf//LT7fSn6EaNKJhiOi6DhYXtY2KHXA4+l+bw/tEi/Qv+oasC1EDMTYvUsQ/UtZszFoIMdqKiSpEFzjSfr7aKawO8hAeLOws2KE5kidPnuzIzR3hRhTNtxGhsVEwn0D0pfGI3tUtPcn+IqqzENsINsQV9wQCC5EXhe/zc84vj7UTC4iqxRn04i3msa64oMVKFJ2eNCN+LsvwPVyjhBQNE72Q9n02K1PbnhZiPoNXomK+WjGiF1lHxVioiZaE6rGIini65oJwLL7JAWykHXnvUAckooHRR6FIWt2E2K4X3/IPe1/3ZG6eZXZMFVML4joxaSTAbNhzbXfqA08UIMYOuqYPdBsZMx5mB12zOdV8InopOtZrx5TbAGFXVMznK8bimKWPFlES0lPUGvkK6EmVxrirfwzrJUZkz5dmtUXiiII4t3wEBCk2V92aHRJeNyHmivCRauV8ZGnLYevKeE0inthlJJmAwHVj1JFvqDgLmT7oRN6Y+q2znnmJz6QxLDV1Z8uMces5lwN9XSY6CDFTye+FHbViIbd9Cq6zMHm1aaqQlxWLdmBB/kh4EfnCXR/xRQozzicMQfm1bw0limYhXHw1Vex7HSNiLiFGwT21XJ0KMZuibK8fI5WN9QW1Z0lHUOH1hpD2Xe/Zs2ffow8EURRmruTpwAifs8Zhfp8ZaP6IGUG0xfx7rxlDdDbwGsMSYULMYCFG55mrg9I3g9KmKOOKukMQBWOxfvr7rwcXZeYZuoQXaUp+hlErwis6pzBuuHdSk1qOj8f5xGIvCTHEKTVv7cX4fCViaGu9WnVfxs7CPoZ/I7oQ5wg5ar+wuSDKmXR2pb0u+/fvn4qpAxzSh4EoGqJeiKqEg8PTgDjbgju9zrMQM1iIAVEG18IXKnJn0cbmoFObCiIlobhVu2UB4ouibb6H8Op0wDfPs55oiMEk++mrD8urZq4IDzEaFHxiiLo5BCZ2Hhw7wqq9C5JIIt9HzA7s/0nrHLTbWHSyjY2N/YepBwv5w51guLI+DETJ0bEtJgJ2sUPxdc5EyNYXMYdRCFETIUaXA3P70hTus+iyMKcVIoibOJuKdq8whnkfPXq0a+NQxAI1UC6bCl+3JI8PRXXqJsRsl2MnQ74RaTmMOholncziFFP7N6FRRqKC9WN0Vm4wKUhSkwfaBpoPm4L8fcaw9UFqylSML4SEWKiY9GZXRIIUYGgcEEXYScUIj0O8hcRNu1eYb+xS0o10GwKMCA4pt6QdgaTd8MaKs1eomxBDhOH7FepQLWIjlUwa8rrrrhtrXufJGBF2QQ76Qgghel6ImcL951yLIbVYITGGuCLS5Ys08X1+julnyCuMBgFr3hk3E9K3EalDfJE24/1sAXnSqQAIK8RlErFSN/sKxCgF9KFrkOfGYHkiYGZuZJIxVRN5jpYRQgghKiXECLe77Czoojx+/HhQ/FDzZUWPHYiN+LGF3fw8VEOEZYHtlqOWAu+wJBuiAuGFNxaRLwrG220TktSCtVstUBOVVKjUTYhxPki3dlpj11HusXkdiX5RA5bSkPeM0pFCCCFmlBAzZoO3uxZGOhXjxBE2BRRzY5LKws9X6sEoDg/VF5FCbLepoC4sTnjRmcdrW0NW2+WX1vkfsWhnKCKs2JekG+KvTkKM88P1yWtDTCPYiaCS0kZYI+I7GNA+zB8F+sUXQggx44RYKEXJwhoySbUmrIgluu9IW8Z5evHzu++++2PvgyjzbXT0ISqYVUi6ExGW1kajfeYh/yZa10ndVB2FGF2jvto8jHMRwaSF6VAlksVkAn7GV3jllVda8DNq+Hgs14t7g7RyJwPZI0X5D6idXwghxIwWYnT2uLzFABsJXydlJ5vLKyw0fJyNInpEELVpRLIowkcQWV8rRFY7dr6hjZoh3EjR4WPWTeE6Ubm6CTFq51xbVAwXDAX5z8kxXwghhITYx7soL7gWToqt8fPqtnPOJcIsRFySWCogykiJklZkaDWpNwQaQouie76SwqR+jJ8TUWM6QNIUJIKQfXHVVSHk6ibE6PR0bZ7h2nkyZcT+Ng3wFkIIISHm8BbzGb3agvqQ4Ws3Y2zs63cj9kiIIrbS1Hy5uvwQKOyra6ubEPOZuSI2bbdqzkyaIvydWFL09fVdpl9uIYQQEmLherGB0OJKfVBSwURKk9qjpAXcNAh0G3nrdENkWnHiax4gzVeXod8hM1cEZ4dF9XGia3TWrFlvG+F1B5EviS8hhBASYunF2M7QoosBK2KFbjmiXQguIlGk8/AGo9h78+bNH6a0L/jIOgPvqW4iW2k2hB8DxNv3wSfEGANUFyEWMnPlmB1F9gMmIooQH6KTsSmqXjfCipTiCfP/w+bnz5nHPoD3F6KLWkMiq/oFFkIIISHWZZrS10npEmUILqJZEBNpOREXcWvv2EToxXVtdrJRa8YYJQrWrat/ki7OOgkxa+bqmmpw6NChacfsM1Klo5GoFkhkCSGEkBArNjK2LaEjeiLDzvnz59+YJOLWDulCBBPigWhbp5EyonV4XpEqxbYhZLvgE2IU/9dFiFkzV9f5QuA6CullpiqEEEJUSYgZ0XSH8XvqWITNmjXrpXbDTqIsze8/nGDu4LToGx2cpBK3bt3aSmHidUV0C5FFyg34N8KNn+N9xeOJ1iX1vAoJsboU64fMXBGjUT8vGaoKIYQQFRRigN9Tc7F+oYPoGALuIZ9hJ3VFJjo2kVXReJcGoz1TI4Zg9Jm5OjzERufOnduvXzwhhBCigkKsLTq2wgiyOOE0SlozaZSl+bgFJvI2lKUoS8ALrlo4LCzqbl/BfvrMXKPNCRThy91eCCGEqLgQcwinbSai9YL5+hBirZvoCuKtrXtv2PhQTWZss4DgW2HE5UPRx1BDVndnffYzqZkrqWP90gkhhBA1EWJFMhdV99sUZkv4IRpM9+VEilTpqBF1D82fP//aSJTvIVfHpmtiZl1mTf7+l59ujXlymbky4cBh5vqc7jUhhBBCQixpzdplRM7owsR2AS8rU/zfzkNGvN2Ev1Ug3eoUYq5uQ8Yq1UGI4SHGV0Y7RTc6Tx2WHdt0XwkhhBASYmXUvT3kmq3pmjVJqq8OQgwPsT+8968b//rvF6YdA12m0eMlFax7QQghhJAQK0OIPeAatVRnIfZ7d/xlawC66xgYaB493r6+vtt1LwghhBASYpUQYosWLWrVUkW3A4dHaiHEGPb9le0/cBbq46sWNXPt7++/WfeCEEIIISFWOKZDc5qbv2u0Ul2EGF5nKTzELuATp3tBCCGEkBArIyJ2R1IhNnTk72th6IpYxPPMtWFWKzNXIYQQQkKsskKMIeY+IUbarw5CjOhddKMTlEYEmbkKIYQQEmJVscK43SXEJiYmpgmZl3/689Yw7SqLsOu//FetYv0fH//HafvPMXFskeMd0n0ghBBCSIiVgvEhmybExsfHpwkZDFIRYhimVtlDbMldzzZ+9st/m7b/DER3eIgN6D4QQgghJMRKgY7BqBBrfq8xOjo6TcgQZSLaVGUhhofYLfftaUycn971+corr7imDjyg+0AIIYSQECurRuym6KgkhBgO9NHtpyd/2RI6pP+qKsSI2P3Rln1OD7HBwcGGPMSEEEIICbEqRcSYY3mhXZyQviONF90YGWTrsKpsXfG1bw05Oya3bt3qGoB+k+4DIYQQQkKsrGL9z0WF2Jw5cxpHjx6dJmR+8e5Eq/7KznKsasfktu8edgqxO++881JEiE0ws1P3gRBCCCEhVgoIEQRJNGX32muvTRMy//Lr842b7vl25YUYo5hc2/Lly6MRsTNzm5vuAyGEEEJCrKzU5KcxNY0KMQrboxtDtBmmTZ1YlWvE6O50WVdgVBvxEHtd94AQQgghIVYaRISIDEWF2NDQ9Dqr31y42FixcW9lhVjIuuL06dMu64oXdA8IIYQQEmKlgas87vJRIbZ79+6pqJihE5GORCws6mZdMTw87LKu2KZ7QAghhJAQK9vCYjgqUnbs2OGss/rK9h80Fq17srJpydv//PnWKKPohrB0CLE7dP2FEEIICbGyhdhQVKRs2LDBKcS+PvBiZQd/s18bn/4b535v2rQpKsKmMLPV9RdCCCEkxMoWYjujQgyrB6cX194fVVqIDez/iVOIrVmzpiHrCiGEEEJCrIpC7OGoEFu1apVT0Dz9/ddbFhFVFWJDR/6+4aptW7JkSVSInejr67tM118IIYSQECuV2bNn3xMVYggX15ggPLqqKMRw+wfc/6MbczMZZB6xrnhJ114IIYSQECsd5i1GhRieW3hvRTc8uiiKr5oQo5MTaw0sNqIb5rSOQv2duvZCCCGEhFjpULQeFSp4buG9Fd3w6LKeXVUSYovWPtlqJHBtTz31lEuIPaBrL4QQQkiIlc78+fOvjc6bBLy36uKuT7r02wd/6hRi69atmybErrzyytW69kIIIYSEWBUiYs4xR4ODg9NEDR5deHVVKT0Zqg/74IMPGosXL1bHpBBCCCEhVk0+8/lbPuly18d7qw4WFhjM+oxcjx8/3pgzZ45mTAohhBASYpW2sJhm6rpy5UqnEHv5pz+vlBAjLbnrxbec+8qEABXqCyGEEBJiVRdiA1HBguUD1g/R7V9+fb4ydWLsA/vyT796z5lGXbp0aUOjjYQQQggJsUrj8hKDQ4cOedOTVfATW/jH3/S66R89enRaWrLJJM0JuuZCCCGEhFjVLCymDca+++67nSKHwviybSxoGLjlvj2tTk7XxrxMh7gc1vUWQgghJMQqxbx58xbQTRgVLk2B1njnnXecQmfLrldbEakyRBgC0DfSiO3kyZOtfZd/mBBCCCEhVpfOyddd6UkMUV3bL96daCy569nCa8WwqgilJNmI5DmOZaKvr+9zut5CCCGEhFgVC/Z3uoTYddddNzY5OXnWJXi+89KxQmvFEH283+Pf+7FXhGFZwWQAx7E8p+sshBBCSIhVEtfMSRtJOnjw4JBL9ExNNRpf+9ZQ7ilKomCkIonAMXjctzGoHNsNxzEwOeAmXWchhBBCQqxWdWKwfPny/33x4sWTLvFDsfwfbdmXS2TMCjAK85klyazL0LZ169aGR0wqGiaEEEJIiFU+PTnki4o99thjT05NTZ1zCSC8xXC3JzLWbScl4gvhhbD7/S8/3fjK9h80fnz8Hxtx2+7du6d8+67aMCGEEEJCrPIwDNsjZlrWD6dOnXrGJ4R+c+FiY9t3D7eEGCIqaRE/wovHLlr7ZOt5v3fHXza+sOk7rWJ8bDJIf8ZtzMV0eIa1wCNN11YIIYSQEKtLVGzYJ8ZIUZ4/f/7vQqII8fSn3/5hy/GetCLiiq8ILeZCQvv3rR8YtWaMKvrbn7/bGtaddGOMkU+ENXlB11QIIYSQEKuTEFuBA71H2EyF6sWi6UrmUhLZQpghtEgz8pV/0/l44PBI46cnf+k1ZQ1tjF9at26dT4Ax3PvtuXPn9uuaCiGEEBJidRNjAz6BQ/QJMfZuc2uUsBEtw9vMY9hqOTFv3rzP6loKIYQQEmJ1tLK4zGfwasUY/mJHjhz5dZECbGhoqLF48eKQAGuJMBXnCyGEEBJitaa/v//6pqgZDYkejFM3b9784cTERG4CjHFF2FIkEGCthoLmfn9a108IIYSQEOuFFOVNMWIMy4iphQsXttKF4+PjmUS+cMfHjmLVqlWhQvx2qGnbRiRP100IIYSQEJtJYuyjdOWCBQtacx5JIVJM/58fXgqKrktTU1OIN4QXFhQ8l8hXQvH1UVF+f3//zbpWQgghhIRYTzJ//vxrETxJxRFQTL9kyZIGUa0NGzY0Nm3a1Eox8hXBtWbNmsbSpUtb4i3N67ZxBo8wRcGEEEIICbGeZ25zM92Ukx0KpyyYRBAiwNgfXRchhBBCQmymFfHfbExfpwoUYGeMCLzpM5+/5ZO6DkIIIYSE2EyvHVthZlNeyEF4XTCp0AHGLin6JYQQQkiICQd4djUF0wNGlI12ECnj8aNGeO1scgev+Znf/YM5Or9CCCGEhJhIXkfWP3/+/BsRU9hJNHnOCDRSmcNNsfWS+TeC62HzuJvw/lLKUQghhJAQE0IIIYSQEBNCCCGEEBJiQgghhBASYkIIIYQQQkJMCCGEEEJCTAghhBBCSIgJIYQQQkiICSGEEEIICTEhhBBCCAkxIYQQQgghISaEEEIIISEmhBBCCCEkxIQQQgghJMSEEEIIISTEhBBCCCGEhJgQQgghhISYEEIIIYSQEBNCCCGEkBATQgghhBASYkIIIYQQEmJCCCGEEEJCTAghhBBCQkwIIYQQQkiICSGEEEJIiAkhhBBCCAkxIYQQQggJMSGEEEIICTEhhBBCCCEhJoQQQgghISaEEEIIISTEhBBCCCEkxIQQQgghhISYEEIIIYSEmBBCCCGEkBATQgghhJAQE0IIIYQQEmJCCCGEEBJiQgghhBCinf8H5UrtgbJuPOEAAAAASUVORK5CYII=;" vertex="1" parent="1">
          <mxGeometry x="40" y="195" width="108.93" height="50" as="geometry" />
        </mxCell>
        <mxCell id="eUcrK74wxGQHS_9A9SQL-10" style="edgeStyle=orthogonalEdgeStyle;rounded=0;orthogonalLoop=1;jettySize=auto;html=1;exitX=1;exitY=0.5;exitDx=0;exitDy=0;entryX=0;entryY=0.5;entryDx=0;entryDy=0;" edge="1" parent="1" source="eUcrK74wxGQHS_9A9SQL-6" target="eUcrK74wxGQHS_9A9SQL-7">
          <mxGeometry relative="1" as="geometry" />
        </mxCell>
        <mxCell id="eUcrK74wxGQHS_9A9SQL-6" value="" style="shape=image;verticalLabelPosition=bottom;labelBackgroundColor=#ffffff;verticalAlign=top;aspect=fixed;imageAspect=0;image=data:image/png,iVBORw0KGgoAAAANSUhEUgAAAu4AAAHgCAMAAADNIRgVAAAAGXRFWHRTb2Z0d2FyZQBBZG9iZSBJbWFnZVJlYWR5ccllPAAAA3hpVFh0WE1MOmNvbS5hZG9iZS54bXAAAAAAADw/eHBhY2tldCBiZWdpbj0i77u/IiBpZD0iVzVNME1wQ2VoaUh6cmVTek5UY3prYzlkIj8+IDx4OnhtcG1ldGEgeG1sbnM6eD0iYWRvYmU6bnM6bWV0YS8iIHg6eG1wdGs9IkFkb2JlIFhNUCBDb3JlIDUuNi1jMTQ1IDc5LjE2MzQ5OSwgMjAxOC8wOC8xMy0xNjo0MDoyMiAgICAgICAgIj4gPHJkZjpSREYgeG1sbnM6cmRmPSJodHRwOi8vd3d3LnczLm9yZy8xOTk5LzAyLzIyLXJkZi1zeW50YXgtbnMjIj4gPHJkZjpEZXNjcmlwdGlvbiByZGY6YWJvdXQ9IiIgeG1sbnM6eG1wTU09Imh0dHA6Ly9ucy5hZG9iZS5jb20veGFwLzEuMC9tbS8iIHhtbG5zOnN0UmVmPSJodHRwOi8vbnMuYWRvYmUuY29tL3hhcC8xLjAvc1R5cGUvUmVzb3VyY2VSZWYjIiB4bWxuczp4bXA9Imh0dHA6Ly9ucy5hZG9iZS5jb20veGFwLzEuMC8iIHhtcE1NOk9yaWdpbmFsRG9jdW1lbnRJRD0ieG1wLmRpZDoyNGI0ZTQxZC1iY2JmLTRhZjQtODdiZC1kYzNjZjVmODEyNWQiIHhtcE1NOkRvY3VtZW50SUQ9InhtcC5kaWQ6NjAxMjkzODZDOTFFMTFFOThDRjZGRTJCMURFQkFFN0MiIHhtcE1NOkluc3RhbmNlSUQ9InhtcC5paWQ6NjAxMjkzODVDOTFFMTFFOThDRjZGRTJCMURFQkFFN0MiIHhtcDpDcmVhdG9yVG9vbD0iQWRvYmUgUGhvdG9zaG9wIENDIDIwMTkgKE1hY2ludG9zaCkiPiA8eG1wTU06RGVyaXZlZEZyb20gc3RSZWY6aW5zdGFuY2VJRD0ieG1wLmlpZDoyNGI0ZTQxZC1iY2JmLTRhZjQtODdiZC1kYzNjZjVmODEyNWQiIHN0UmVmOmRvY3VtZW50SUQ9InhtcC5kaWQ6MjRiNGU0MWQtYmNiZi00YWY0LTg3YmQtZGMzY2Y1ZjgxMjVkIi8+IDwvcmRmOkRlc2NyaXB0aW9uPiA8L3JkZjpSREY+IDwveDp4bXBtZXRhPiA8P3hwYWNrZXQgZW5kPSJyIj8+fcXc4wAAAVxQTFRFra2tze3qjY2Ne81zmZmZSL/gw+indMyCic9VXcWy////mNdUZmZmTMDYa8mWasiaZ8ifd8x97u7u3t7eeM149PT04PTnb8qMZsejv7+/bcqQenp6MzMzzMzMVMPEw+jETU1NYMatWsS6U8LIXMW2c8uowOfXgtB/T8HQfc5u5OTkVcPi8Pnzm9mi5vX0UsLLmNi3V8S+f89qccuJjdW5c8u1gc9ngtBjz+3WsOCMotzjfc/oz+2+tuOym9rXq+DJqd5+AAAAHBwctuTPnNrC4PPRmNh7p92jtbW1bcvMm9mOjNbdYsaqkdREi87Nc8uFbMmTis+Uj9VhY8emcMuKqd+yjNOjquDYasrVDg4O7fjqgNCljdV/ueTnds2Q9vv0XcbPhdG0Z8jB2fDaeM2bY8a6YsficMuZWMPIeM2DfM59asmvbcqZbcqXfs5tVsPAfc+JhdJridNz////Vk4EwgAAAHR0Uk5T/////////////////////////////////////////////////////////////////////////////////////////////////////////////////////////////////////////////////////////wD2dMVrAAAch0lEQVR42uydi1cTxx7HQ4gS1xQkIYGQjQStWCgg+AItqAQUqsjjoniDD66P1vbq9dH9/8+5G0Qz+5r5BdxE8fOxPaenssmy89nvzmtnEg7AD0OCSwDoDoDuAOgOgO4A6A6A7gDoDoDuAOgOgO4A6A7oDoDuAOgOgO4A6A6A7gDoDoDuAOgOgO4A6A7oDoDuAOgOgO4A6A6A7gDoDoDuAOgOgO4A6A7oDoDuAOgOgO4A6A6A7gDoDoDuAOgOgO4A6A7oDoDuAOgOgO4A6A6A7gDoDoDuAOgOgO4A6A6A7oDuAOgOgO4A6A6A7gDoDoDuAOgOgO4A6A6A7oDuAOgOgO4A6A6A7gDoDoDuAOgOgO4A6A6A7oDuAOgOgO4A6A6A7gDoDoDuAOgOgO4A6A6A7oDuAOgOgO4A6A6A7gDoDoDuAOgOgO4A6A6A7oDuAOgOgO4A6A6A7gDoDoDuAOgOgO4A6A6A7gDoDugOgO4A6A6A7gDoDoDuAOgOgO4A6A6A7gDoDugOgO4A6A6A7gDoDoDuAOgOgO4A6A6A7gDoDugOgO4A6A6A7gDoDoDuAOgOgO4A6A6A7gDoDugOgO4A6A6A7gDoDoDuAOgOgO4A6A6A7gDoDoDugO4A6A6A7gDoDoDuAOgOgO4A6A4Qq+4nI7h16/jcbsQx1+o/8K/6Hy93bs1HHvPkvJcP5z/ssbn9cGiHAoMW6X5fw63bocfcSmu4O2eFHXN+dHS006Vvj95PdNVZX1/fHNqlzKDdukcIr9U9PXPndqjunQ3b+xq2r9e5dOnZkEWpQbt1v3//mtWc7jMzM1evBcP6vMZ2V/cHD7YLFBu0Xff7t3aa0X2mztUnO6G6a2zv7382S7lB23W/f3JHrvsn26/OfCyE6K61vb//0ggFB23X/f7JXanu+7a7/LMT0N1ge//gIPkO7df9/i1LpnvD9ovv7lg+3c22D76mSxLar/v9OZHuiu0u817dBbYPDm7TPwPt1/3+rkB3r+0XLxZCdNfbvrFB9R2+Ad2Pm3X32f7u3XJQd5PtG6+Id2iz7mlfa/WWyPZ373b8uhtt3/gf8Q7tTnfX5jmD7gHbR0dH572695pt7+6eovCgzemeTt+/ptc9zPbOJ2G6623v7qY2A23Vfc/nk5ZO9zDbXd/HFd17Zbb30PcO7dR93+gdje6htneOjr4M6G60vWeR0oP26f5Z6dvRukdke2fnUOOYD0Lbe5YoPWib7l+cnovUPSLbXd3nfekusL2Htiq0Tfe0WffIbPfo/kFoe89lSg/apHvarHt0tvt1F9mO7tAu3dNm3TXZ7tNdZvspdIf26J42667L9s4+VXeh7aQ7tEf3tFl3bbb3+XUX2H6KdIe26J42667P9r7Oh41jNoW2ozvEqPsdoe1pZU7ktRlRtvf1Lau6y2xHd4hR91tC21Xdj4uy3WWiccyE0PYBdIf4dD8utD2tzBGbk2V7X99m45j5SzLbSXeIUfc5oe3pO41jCrJs7+v9b2Ne2azI9lMDpDvEqPuu0PZ0uqGu9a8ZSbb39fY25pXtyrId3SFO3cMq7+Gvoiqvns5Lsr0+v31WrbxLsh3dIVbdbwttV9uqhbQo23t7lZ7Ilw8k2Y7uEKvugXiPWkTmlnLMtc+6a7O9t1dpqzrbkmwf2EJ3iFP32zLb02nl7eydoO0h2d7b21VQ412Q7VvoDrHq7lyT2e55O/u4JNt7u7rUt7MfCrId3SFm3a1bItvVrkjHuivJ9q6uD8orrta2OdvRHWLW3Rk/KbHd8/6es/tEkO1dXetD6vdsGrN9axjdYyZbLmd/aN2dnZMS2z3x7ozfeWfM9q719U11IY2dx/2GbF9dRfdYKdoLLnbxR9bd2b0lsD2d9iyKsXvXnO0uQ557ZEqf7aurW2sxXA67wdf82EyD70WM0sI+pR9Zd8eaE9ie/sezMqo1dNGU7S7Pxj3HLL7WZns86b7QIJ6PrX0nXiQbp1z6kXV3KxrHzbqn532V/mVTtq+vX5rwHXPzbXS2u6yhe2yM1ZQrkfuhdXdrJ3P6LfXSMzNp/6Z640N3O0cNu4wN+b9nZOptVLavDpPuLQn3hYXMD657va6xM/eJ48ePX7sTsnrSx+D+Grsvh4bm93i4fDds9aQHwT31rMnZkQg60D02KqruNrr7pLx93P8W9sydcf0x4y/nN//276nX7j1o0H2/ya7qXkX3kBrO8Tuq7Vev3jVvcD0+v+l5d2lwcxzdvzndSfeIjL+j2H716h2Bu9bspmd+++Ykun8DZKi7S5j7p2H7xYtPJHUTV/iG7f2Drwro3n7Kqu5FdI+s0ly7qsyB/Chag3334SVlDuTgIrp/U23VioPumoD/qMyBvLi8Kzlm9pk6B3JqB93bTfZL7d3OoruOnX+UOZDv/hmSbCqzszmozIF8u2ihe5vJ71ffM3kH3fXueudAPpkTyLu77ZkD+apNwqO7EvCpUik15jjobmB8z/cvcyD7zs+b25/WtnfG7+ulgoXu8B3o7tZn/HMgnyzPGvTdfeyfA3luaaTVyqM7un/iWgTLx+eC/eu334WuFbY5sby8PLH88OH8bLA5uvM6ZH77wLnnl6eW9ng0Monu0CLdT+pe5zjut3cobH57394smf2ZA5vz/mNmw+e3f5kUtrr65lEB3aHduqdnZq55I966a5zffunBQ5/wNzd089tXh11OrBXQHdqr+0z66tWPc96qiXl++4MHl7wdMLuvdPPb92x3/9yw0B3aqvse1zwezuuz/dM8mQcTnmGo2R59tg+fqLM2/q3ons3mxrLWYXTPj4k+ILQvKzuWy2ZRuOW6h86B3D1vtt1l2+PuY1O27/Hi0G3WXCpjV2uufVU7o/Yti3W3ysmKvf/KT/0zcs3rnnXP4fMHlFaaGs3JrpTs6udRz4r+4JwQ742TK37B1/VebvxN9L2m+SHlr5T7vPypQOrlkSyH3//ZRKlSrS7s/0zcuv/LaLvP93mJ7f2D27v+eNdn+4kTP//84lD5nkt65re6xqSs5nQvZ6oLPuzkWFO6Fyve42uVFWmqpyr+L69VEpGPiNqCDO+8R2VKZMqJ+ptoeSrRE8yU8/l8J+R9BVItBa6llfCVWbWUa0+6N2y/enVZjXeJ7f2Dg1PqgkqPzdn+s8vawevv5UxIWVdTTehetMOFqZTFuucqIcc37jpdsCeroV9eS+a/U93zyeAp1kqeS2GF/tKZbBvSXZ3xe/Gi2l5dFmR7HfUV1UVBtrucuXFA2bOZiNK2x4S6lyvRylTGZLqnIhy0y8Zkr0Z+eS1pfY+6F8N/IztnzpdaouW6e20fVVfcmJXZvvFaqZrsSLL95zNnpg/WH5mILvxaWaK7ldQ6U0tKdC9Ff0BJG/BjtvbbQ++Wb1z3krY89i657nK1WHev7RffvVNW3LD+2ymxfWNDWdzdeS7JdpeDLLthZbSqJsy6Z22TNZWsUfdM08ebb9ZwNb993TXXYt/3bEV+1nHr7rd99OJ5Jd4nZLZ3v1Xi/aYk2910f998vOsv3F7JGHQvV83a2DmD7iXD8ZG+J5uW9pvXXXst7LwgYEot1D2Q7aOj75Ta+1CnxPaN7m7lBaaXA5Jsd31vuvZuTuZaTq97WaRONafVPWG8XyIaACWZtdZ3pHvCeErmQiu2TPcQ20c77yrqCm1/u904ZlyS7a7t0y+a7JzJ24Jk1upeFppTzWp0z5k/xM4f3PZg3H3DuhuvRdkyF1o13yLdw2wfHVX2jNzZl91ge3d3j6LuOVG2TzddmwmpJdqVTMWOqp8E24n+n7QzyVQikUhWAn9hRetuq/+dyZTcMwjW30NOP7UQ/Hb3y1Ml2+9M4rvRXa1c1qrVYElUvIUW+jMLydboHmp75+hoQWmrCm3veam0VUXZPj19+mlTtvt1qWU+D+rlUrZEd8uOHOaw/GNGyei5CQ29vgwqjvmHvUJanGV/F33jCZL3nX/NWxlaSYSz4usNLbVe90ZZJPbOOV8uRTaOapmV7KfhbP/P1KxW6B6e7Z2dncrqA5t9Mtt7RhrHLO3Jbsz29++bqrz7n5slT4VjxTbrntQO6pRtbyPApHsmp+tO9x/vu9fsFW2XjWzpAKuiayG3UPdaMmvs6K2qI3CW70ZNtUD3iGzv7BxVRo02hbb3LPp1N2S7a/v0vWZ0r+g7qEP6dv1VmZq+Nen9hIxe9+D4iK/XKKO71zKWodOp3HzlrjrmtEl3/7VcCXsS+sIlZzd/ex9K98hs7+xUdJ8Q2t5zU+mJlGX7+/fN9Lx76wKVvKBurLEjYxmrSzmd7rWycUzA+xPZmmko0XO4pPxL+jNqme7Ba5kSjCZ42lG1fNy6R2a7y7xHd5Htft3N2f7+/enfDxruFbOtAd2zgqGNZGRN2Gy7o12oLrlgdMxT3THPnvLWGWpFp026h7UzbX3bO/gMKMasuybbfekus/2UV3dJtp9uRvecuZ8v0NMX+Zd2ZNPIjlo111x8gcq0+oi3aoJ+iLFaE50VCdMZtUj3jODkSsYAS8aruy7bvboLbffqLsr2pnRP6pqBEV0v3r+sSqKzHFUbkY17Z6sRRbgiWo23JF+zt2iM2NboXg0dQbaqgn71lQPNJDiI7tps7+ub96a7xHaP7sOibG9Kd1sUBeVo3cuya2tHfI2mnzCqPmWHG6Z5bo8pR+trs+WaMT5bo3tS0IqO6HdRn3iVOHXXZntf33/nPekust2juyzbT5+V655dkFRFfJc5KjnLsqdIJUr3kvC2zIYZUhXe1NrarG+8LOO0S/eoNmZK0g7NHGQBernud2TZ7kn35XWZ7aeWGscsDouyvRndV4SdtOVI3W3ZpS1GFEFUpVxXa10Ja3lkhJ0tutqsbxpKeMO9NaOqgnKoCKKlGoPut0TZ7qJM530otH1gqnHMiCjbT59tQveStNMqas6M8uTMCB8jtQjdtQ9e9QldCgu7hHDgWHOWviZKRMO9JbonBU/jpCDD4tB9XpbtfX3KfpFDl2S2n3reOKYwLMr2ZnSvSFs1yQjdc9IJp7XQyogj7kXIhJ2psCalPlsyBxxMba3ukW/nLgh+pnyQ1Uzkus/Jsr2vb1NRV2R7fWk8pTxk2X727L8P0lJNiUejokQq66iFV1rEI56psNqQKpjuy1OSZ0jGNFm5hbqXBalRFrTM49B9R5btfb19jcqg9eGSJNsHBgaUFzyey2y/INe9KrUtH6F7aqF5cuG6W9L7rRo57CLAFg4vlZ126j4mKLBcsxXHr6S721aVZHtvb19BrbxLst1F2SR1RGZ7E+keUcXQX+doSWSUQ3W3xX1ItTh0T0lfjWjpwhvfpO5zomx3UcaZCrJsH9hSeiLH/5DYfqGJdJdfGLvNuoe+PVj9aroXRcO76L5XM/lHku0uSlvVmRBl+9aW0lZ1bopsl+tuHVr3Ust0r4WcQO1r6V42z1dBd0+8m7O9t/dv5e3sgijbXcbVeJfY3sp0b6/uXyvdc1X5S83o7jh3Jdne29WlrpP08Ivummzf2hpWt5cckdj+y0Hq7t96ZcaKse7uW6Qm46C7nvF/BNne1dW1rRbgdrTt6poDV9Qui7U/ThhtP1jPTP5ATdXUV9PdMCKSi69nJi8ZTP1auttHQXen8FGQ7S4v1Xtk05ztq6urWx3qPbJmsv3CL78cqN+9LA3XhahZCIfT3XC/hc59rHwN3f3DS4b7XqR76ojr7tz++M6Y7V3r6xOee2TTnO0uzx2f7/psb0b3ymGHmZT/X0kKiRhVLUqnO2RCh1qFX54wDC8Z9wY+pO7Vo6G7U3hizPb6SOpLTx1o25jtq6vDqx1e3w3Z3ozuJelc0VKE7vmDzK0O170kfQ6VwloOK84BKckGU5vTvSQZrvuudXd2l6+Ojhr3Xdr0rld8c9CU7cPDw1e8tcmnf5yZ1mR7M7onFoTjTPYhZ0QKdK9awqdLMez/lg5oe0o4mNqc7pG3fvHI6O44L++OGvdd6h/yPRSmDNle55H3mMkbumxvRvcxYbpGTwDOyCbwCnTXTmrMhN6XyjxJ+2C2r0gHU5vT3ZY8S7533d0a/PL5UdNONP41vgo3Xxn3XerwHTP56PfpqGxvRnc1tWtZWbgvRD0fkofUXfN+STmisVlpck0Nw/CSpMyjdS+ZH5Wet+++f93dX6gwNL+8x8TE5vmwtcI2d4P1/tmbS0tT9T+Xn58LWyvsSnAPmsmORzfuhXP9YDXXjDADvde2Zni/Uq579P1iRb1jmJK2PSJ6N+WDqQLdU+Z3ZRILR0x3X32+MDTxd6/vLexty3DDjCy9CeypF9MekmVJuGWrmlezpVPmLbPukTXnUtRLT9kFWWM1/MvHmhhMFei+YpyrkK8ebd33LvXsxN+ed5cuTVnmZ8TSG++7S3H5bpt18y82G9340lyzVHgP34KkFzAZvTJWRrCQQr1rPexOzDczmCrQPWtsBVQWjr7u9Q7H+WeeXcamBO5ai1c87y7F5HvCGK+BnT00N0xK0wESWjVfEPie1Kwipj6dqlEPh/pvkDTdxRXrsLp7pvCErYqRWfgxdHeFV+e39w9uS66ttejdU2889nhfqAV9De7soavYh++g9OmOCRMqMOgZKETfFmkVjUIRG3B9WjcxpZfPlq4vp9E9o719AhfyCOteH0Jt7CA5OPhYtAb75Jo64/dFIQ7dfQtGV3xXcSU461D7iA7b9OvzMsIZs+7+XfICG+r5C3nMu/ZW0IEvuzUmtLaLe1E1uq/oPjIRuJBHWnfHetivTPn936Is4NUZv9OP4qjQ+OsqmYawVth61wuG/o3Kiucss8oi6yWz7m41oLHtcGBb45BPSEWe/d4nKGueF6PkkgymSnS3fItzN/b8zYetlH+0dXecWc+MX1nAF/5QZvxO/97x9c8quFdNNZNMFIuJZCb89QlDP2X9+FR5LGtlc+VEydZ39UXM48qUXCrBB0tY/d9/u9qlRDmbz2dzxS97zYe1TLy/W03LmEz34HTo+jYmqWRG2Uek+uPo7rx85pkDOSURfvKKMgfyzJl7X1/4XJMvBRk6CrUURbpHERrCefE0YM9SOs380jmh7nnj+yaZyg+ku1N45p0D+Xxk1+z7C88cyOm1p1+7SiPYSSyj1V2/Iaqu/aaUjPkzIjpKs1LfU07Muhs3D6zmfyjdnZeBGb+XFwsGfSf/8MyBPH36/b2nk19V+aKp7O28XveD7vWo6m6ZfK9FzWgR+p5wYtfdcN+79+v3r/vc0JD7T5DZ2RCRRwZD5refu7y0dLPOo8WRkGM6/ghbGe/e9etPP9FxaPkNvlezxl2zk82ma0B3w9bdutmKecHTxd8rH4/u2v0faytH4eW9L7PCGju/77251LW+/vdEoLYyFTnjd3Xr07yBtRG/vY9C5rf/pUyB/Ok/9zoOZ3xOV0z1wR+T7r4tx8I+pezodde/CmhrO0+SJnszWacVuuueNHtPpyOje8QcyGfz3uEh6/GGaX778JtH3pvEWpvWzW93ff/pp1+vH0p4TUDubXdl1N0QsbVU6On5Sib6nsnkD3G/ht1qMeke/Yz6dA5HQHftjN8HD155p7i/NM5vPzF84o23A2byjG5+e9131/hfD9dpE6Ha/t6NZt1d5SKFryYjCtBfMvlSTfxkiBjMCjk6EXKrxaV72ICSMt58RHSPnt/+4EH/lCesp94a57e73PAU0SOf7WfVbK+H+x73DlejKQZfdbY/h7JE97rwIUVdqyQizytYMmPB3n5bWBblSojD1Uz4rRKf7k4+GbgKX4Z7j4buGtvrY0vbaoVm560p24NzIK0XQdsvqNG+x7HfDtlmHUuqxtilhil2A/04cNGzOXvNLq3oqiFhH5tNVjyjRvIRTyeb8IwsVSvJctQVyTSBal+yccbRU46tFeW+r6k7eZcah5ejzyjykkWclG8g4guVeHQ32N7f73mnY6nbmO2BOZBPzdnu6n5o392SyiVSyVIylSjnD/wRY8VEKpVKFMvZA35CvpwquSVaShWzB/gFVtxvTySKuZjmTEujo1i/jslEub2nEYPuRtsHPXMgJwXZXh9KveGNd1O213X/6TcHIFbdBbYPDior+TrPBdlenzkwohxzQ5Dtx9x/n1J00ALd9bZvbCgTZEYk2f7zmTMvlEdCQZDtdX6dpOwgdt1Ntm8o60Naomx3UVfc+P2sPtvrf+rco+wgbt2Ntnd3K/H+XJLt9RmQllqbEWR7HeId4tW912i7q7uyRepNUba7vis18ad/SbLd5TqFBy3QXW9799tGVM9Ksr0+T2ZN6c+RZfuxY39SeBCj7qJs7+7uaSyHOjkgynYXZbO+vy5Isp3aDLRCd6PtPY19OCxZtk9P/9WhtlUl2X6MvkiIU/cPQtt7lA3fz+3Jbsr29+/fK+rek2U7lXeIPd0FtndfVrpmJNnu2v7XI7/uxmw/doyRVYg33QW29/Q8VnSXZfv790pS3/hFlO3oDjHrLrL9lKL7ZVG2e3W/Lst2dId4dRfZ7tddku2nT6u6y7Id3SFW3YW2D3h0l2T76dOedJdlO7pD3LoLbD/lSXdZtvvSXZTt6A4x6y6yfcCvuzHbQ3U3ZTu6Q5y6b8ps96T70rAo20+fDehuzHZ0hzh1nxDaPnBO0V2W7WfVdH8qy3Z0hzh1fyi0XU33xWFRtp9V071Dlu3oDnHqPiSzfeDUFUVdUbZ7dR+XZTu6Q5y6F+qym7N9QG2qWrJs9+ju/FuU7egOcerubJqzfW9+u5Luzpoo289eUHW/Lsp2dIdYdR/ql2S7V/eOYZHtHt0nRdmO7hCr7rvPJNnu1d26IrLdo7tzT5Lt6A6x6u4srguyfWtL1d3pENnu1X3y8+JJ6A7t093aNGf71pYn3d3au8T2X7yvalzfr8qgO7RPd6fwwJztvnR3xl8IbPemu2P9aZYd3SFm3Z0RY7YHdHcKRtsv/OJLd2fyz2PH0B3arLsztGHK9tVVn+5OhzHbA7o7k7+S7tB23Z0RQ7avBnXf32NMk+1B3SX5ju4Qt+5O4ZU+20N0d8bX9Nkeortj/Ybu0Hbdnd2br7u1+y5dCenTefpCl+1hursPhT/RHdqtuxvWi690e+pdCTvGerqm23cpdM0Yq+M3dId26+6KWFhcev749TmFN+fe7PM84qDJpzfWfv/9xX/+4/7jJ2qJJOvp9d/+/PPXUNAdWqM7ALoDoDsAugOgOwC6A6A7ALoDoDugOwC6A6A7ALoDoDsAugOgOwC6A6A7ALoDoDsAugO6A6A7ALoDoDsAugOgOwC6A6A7ALoDoDsAugO6A6A7ALoDoDsAugOgOwC6A6A7ALoDoDsAugO6A6A7ALoDoDsAugOgOwC6A6A7ALoDoDsAugO6A6A7ALoDoDsAugOgOwC6A6A7ALoDoDsAugO6cwkA3QHQHQDdAdAdAN0B0B0A3QHQHQDdAdAdAN0B3QHQHQDdAdAdAN0B0B0A3QHQHQDdAdAdAN0B3QHQHQDdAdAdAN0B0B0A3QHQHQDdAdAdAN0B3QHQHQDdAdAdAN0B0B0A3QHQHQDdAdAdAN0B3QHQHQDdAdAdAN0B0B0A3QHQHQDdAdAdAN0B0B3QHQDdAdAdAN0B0B0A3QHQHQDdAdAdAN0B0B3QHQDdAdAdAN0B0B0A3QHQHQDdAdAdAN0B0B3QHQDdAdAdAN0B0B0A3QHQHQDdAdAdAN0B0B3QHQDdAdAdAN0B0B0A3QHQHQDdAdAdAN0B0B3QHeCH4f8CDAAKv85pipPaKQAAAABJRU5ErkJggg==;" vertex="1" parent="1">
          <mxGeometry x="200" y="170" width="156.25" height="100" as="geometry" />
        </mxCell>
        <mxCell id="eUcrK74wxGQHS_9A9SQL-11" style="edgeStyle=orthogonalEdgeStyle;rounded=0;orthogonalLoop=1;jettySize=auto;html=1;exitX=1;exitY=0.5;exitDx=0;exitDy=0;entryX=0;entryY=0.5;entryDx=0;entryDy=0;" edge="1" parent="1" source="eUcrK74wxGQHS_9A9SQL-7" target="eUcrK74wxGQHS_9A9SQL-8">
          <mxGeometry relative="1" as="geometry" />
        </mxCell>
        <mxCell id="eUcrK74wxGQHS_9A9SQL-7" value="" style="shape=image;verticalLabelPosition=bottom;labelBackgroundColor=#ffffff;verticalAlign=top;aspect=fixed;imageAspect=0;image=data:image/png,iVBORw0KGgoAAAANSUhEUgAAAr4AAAFxCAMAAACiD1u7AAAACXBIWXMAAAsTAAALEwEAmpwYAAAAM1BMVEVHcEwAAAAAAAAAAAAAAAAAAAAAAAAAAAAAAAAAAAAAAAAAAAAAAAAAAAAAAAAAAAAAAADbQS4qAAAAEHRSTlMAYDDP7xCfQIC/3yBQj3CvWA54yQAAFbdJREFUeNrtndli3CgQAK0LIY2O+f+vXTtx1nbM1YAAxVXP8WRGKqGmaZqXFwAAAAAAAAAAAAAAAAAAAAAAAAAAAAAAAAAAAAAAAAAAAAAAAAAAAAAAAAAAAAAAAAAAAAAAAAAAAAAAgCT6eZ4fXAa4GY9OL+vzD8Opt4mLArdg2z/M/WDQjMPQ/LirTe6+G9wxBkPL8qqnk1EjMNxU3t8Cc52gRY7xGcI6c6mguaF3eYayE0FAY+mG8RnO0HPBoCH0U8S4ccmgGdRTSsdFg9vai79wZ3vxF+5sL/5CCxyR9j5H8g9Qm/kZzUr+F+oyrfH6Pk+uH1TlfKZA+As3DR1+hb+ED1CRNU3fp+ISwv2yDv/DFgyohqNOZ1Td78TYfJwMv9AgnT0n9mVSNumR4RfuEvmOx9//ctoZfuEeaQdjOa+tIJjkA9TBUuwwmIXsR3K/0PzEbbD9c4u/LL1BDTZpIUNvHn65klAB82zMtY9Yi/8C4CIGeSLBmKqg8wNUwDiUuvMIxkTxwqWE4swxWVzT8DtyLaE4xpHUt4Fil4/YABegYwbSnrkbNJt48Iex6AtNsEQlEUx/dXAx4b76kjmDJvT1hwEKfeG++p7oCwQPABX0HZi6QQtoEmfwb+nrLX6c0ReawFju6+uavlPwC03Qx2ydGCnZgTaI2PdOwSS0nHpwuziNlKtDy3M3Z/S7s1kImg5+XT3TzU15CH2hCqukzYN1ozFtdqAKlsZPg3n6NlvalHBCITQUPbyGA6Zo1tZLdeU6QkO5B+Oh2731nwrzDtOs92V5rZwYl+XUHdM+iMbeIHXcP0cQs+PoN8k+zU19D7eXg/O1IOfk7T0E3rf58dLPnVqztKeela1J8HrQJBgi2FLPBhhDxevcp2gohmDIGP0GorPI+6vaghEYciUfsp6r2Q9BH7bT7gSE6CR9QxIH9nMFvj0M5CFAyJBg755v6A3/QIAPHmO0vUNI1Cv7+IUAAspkH0IOZRGfeziQggARXaS9AaKpaz4W4IP9qmmbuuqxAEjTLOA8rOO6oAQgQbSQIbKLnhLiL8jiX1mCYA2wt49PaVABDzL6VaDXGTA8TikJZU7qBBnhi2NjUE+zPcHe8EoggHfmsAF4CVJrTiumoHcEiNH+cDW0LmFI05cddBARQWj3CDyEBqVdor1soYO4HMRpDUhVeEWY6ylY1TG/0umF2Rtk53Gco8G5TZCN7cL2VUzHyvAL+dnTQtE1eE+FPeHM8AvRk7ikPma2tMNoeAqmk+QDNKWvErXvsW34IPcLVfQdZaUMlkiZE1+ghr6bdCVNRW/mAMit7y5eiBiSG/gAZNJ3EJ+a0bPyBo3oO0VMxBT7jqENfeeIEt4HqTNoQ98jZmfcybED0IS+OmYJuOO8Q8OU4LUwROvlFeKoYvouMdt/HpxZ9NXc4xyIo1rR19+JMp++y3dutvd+/tZS+Yu+neEXouyV+s4X/VXgg3CrYdzUTXbxRWcoi75NjLyrNwmDvujbJpMKKL9DX/RtksfwRN8G9fXXno/o6+jsgr5V9fXmLacn+k7rE32zDAN/h2CSo6tUTPHjlq/k7Lb6Lk/0TZ/6mncAj2eowjpm64TKt+p2V32PJ/omsilXp5J1D8n/bxFbJ6YxX736TfWdRvRNm/dqf5uoofO+0fuIfe9dxkaTN9VXPdE3Rd7AJtWj9gk8iodf86Tl+En6Ogdf9M0kb4jAp7hppHmzcf+T9O2e6Bv96Avbmbp7pB7Svg3mvhCx5b731HewzjfeWmr16OuYbMkbobsOsNqEPdMt2Xr1k/SdLKPuHPiu+sFD75n1NO5JCXv+29aatp+k7yZodYG+n+1Zn3GYT8B09QhWpr+Yx8w9+m6prxbMXdE3dMogPV7I06H9e3Nre9Stf5S+i2C2gL5h2UbpESqPxT9kfzFpcozVjx+l7yD41uibx96v/gamL9b9/bY8nEt88Ydj3VJfSfSEvpns/ezvIUhfjK+7szz/5PHj9d3R151yGJ7pvI+Sc47PytNh5476TpJFR/S1Thfixt/HmVfepHON76jvLPnS6Jsncnj3d9LP3KR050Pfn8CRzbU1u73nC/qir/SCtcI63UXfaX6n/1f17f/8wqbOapjGdu0d01wopO+sv7Rxeq6Lnv8pfadNL18sGdTRSruipeHBN/FIrAL6vh59Z4l6un9E3343p5JW1YLBR4kQYBtq2CvT15Y8dCXuOtezP+4P9yih3V81e72vpSLKVX/tOi7y9b52sc9d4dBheF1diA0y3kqCoxLLyccRii7oKV3zm/w7qj5VJtXX11bPZ7/M/p0LnwSuoq8/Zzbo+c9N6LddnlvYp8iFkfTDNCUXVEnt1WPgo9uIvrY70MXL+0uPuaK+vqzD+m1PfK9Eo/Dy5++ltcRjhqNgBRd0F9o7r8ILUFtfsb069D7revouoa+GLy/NYIHXzXOt7X+ZY14QfkEtxaK28xMlz+I4N6HvIrO3F7wtf1+lCvo6B9/RWmcbePf+/oA5fNxWWU5yC76gQnuFdf1dA/oq2bxUNqH/NdZU0Nc1+Lr2sAXtifuu4KQiBu0C+s4ye8V1/V11fWWR/SStInjLz5fXt48f/x6+l4u5Df8ckmXWuQ7RDLygvezk5YgKka6yvofMXvk0+7Wwqry+jhvhrRF3/8bVOiPoPNdmVPnWJMMuqDAdGlXf1FfVtxPd40dMknOYius7Jdjr9tc5fs7KlenIeXxx0AW1/A7benVcdd46VdR3E1VDPeLy+6q4vl2KvU5/PQPo1BnnfmF9/zLrW8Te1ytaT19ZbBS9c2Evra81fxDY0NH+nAb0JPta5zIue5e/kCnkgsrsja9nHmvpW8heI3ON2GEMFWlL9P9V4ksr8AIuqLLFqnlyDiH5/mv1nS6fl1bSt0sYO33j9/TSAv4LqkTJ/H68nb6W0dRmb+YCriv1ValDp+UA1zz1CkX0PWTfPvMm1AL6CiP7/nkffdcM/+eeMverrm8ns9cb+K6/j2VdI/R1LqHE1/sqkb3+53P4/Qsb0Nc2cq45PmS4g75Cex/uUfH49NHzsTShr9Be7U7Idx9/N4XVHl6o75blvW+LQG6gr7Qbq8PIVX+bfboLvcvou8vsddV+L9+1CKg9vFBfnWXWtVWIevLoK7XXXt5ka9HdrXX17YS3xp51WMx/4+2LcKEFSrQWY2XMMYZX0HeSdsK2xoWn9YH33N6L9RXGRvbgyNFB39OK8UJ9l9SsmTN3phvX1zIlt9trG3zdZfXOVNu1+vbSccWaiXKuhR6V9B3z/I+64dSD/edZ7F3ET7tvK7+zMuRKfS0PTidexVo80aSrdnYuem9j5lzzUypCC/oqUTLf/mb1N6Jw+HulvhZ7jwvGIccbpri+4kb8/R31FdsrncQH+XuhvuLYyLYMMEzRI1gNfZdqn1NQ311+p8wjTNCuEOvodJ2+Efb2lkLPkF/Ylde3/7n6dvI7Zc4PBrYe3orru8jjgD3Fv7O4vvOP1beLiAP2+KFJmJ3Joa+KiGLXhOfTuuCBvtn17WOi2DXp5lju7lX6qoh1fONVCW8N3hH7ltHXHIl67H0k/kRdUt8jZg52JK49rW3oKz4++GaZhyPGXvPgIrg35uH3Gn27qAzCmehCR963xE+MyyDsqSlGVU7fuPzXmrpyuhbW99pVt71RfeMKNJbU1fW+rr7eINa45Cbaw7Xfs+ZhuVfNQ1yIN6be3PDR7Qp9/asrc3LNdt9GxdmSR5HuPvp2UR8kLMjfK+obsDbYpY9AK/W+NfQNuEtzenS01dM3ZGVbp99CVdaCOcu4ed5st0XUKDrHrhe7U2+F9O0ix7IMw+GF+toK5P7tvW5RHpqGzj79u5QafQPep0v6LSzdJGrNMPzaSpzVffQNaMqS4wCfpV7su0R9u6VxfVX68Hu/Pg9Rb4qb6xsQ3i8ZUp+F9f2RXXaictQ6w+pkTX39kc4S43xdfRvocfZ4P2a08rLFJtd3uZW+3tq4G+pbvcPk5+B7UWU6TB4xz+utRl+j0uf1+k6l9f2R/X2PiOc1R+y7Fqs4GyIGlCV99l2+u/qYkssX76H9/3c6ziUq0F19kf/eLkN0X65g0vxS7K/OPGzFF69UwmTVc7aFNZz0tZ4Z9+lafc0P7XzxwDIXLFff5OHvnh4e6eL6Ok8W8sS9kScLBfQYHS8+WWgT5/bn9NKmrqC+5mHplLonnIss5UsHnOe6ub5+5LlugYdRjtee67ZLc/tTxGQo4EV3mb7TKg1/j/TcfYXKl4tP1Tzkzv+R48pTNc1xj5Z9kPDdOpbU1/Ja7WUiyOZuW43CravPNJ7d8ZXjL68807iXFsktqTU727OovuaEsCP8nZIfUFVDX++J8jrbifLLU8SlJ8ofwvBXpQ5OqrC+5nHplL0dttTXy/Vls/6TZIZ9+6Ng3ynZYdS/lmQnf6LioroJ+wU9ZeHvkbgwPj1L62vOnh2i94skdVZ8q6Y39/tlZBIcaGAKgaOOC+uu01ew9dcabQiWpXRxfS0L+r3oGwrsW+vom/soJPMAvsWdydNdpq8lapolr8bwJh6Psby+wsZA8zNp+C3fpuQP57Ndusv0Nd9dq5FnUlGzelbQ1/zCOy+JXcs3iZKGD1UY+8v0NZcGLFeEdvOzhr6W/MoheUBDu7jZkkoldjzODQ+/63SZvr0k/J0Svt201tHXEheKzrtVaQYV2bCbL/zNP5Cfl+lr+dmzJMQKCg7PZyV9zdkzyzM3xYdv9sLZMvvNc53D3E06u7/bZfqavbKEv9szdnRSz2r6muNCJfqefn8dWaVC7RLy+Pv2Sx9LZn3H6TJ9zW/1RZIZ8vsrrerLeqrmJjAytnGCKydaSN8px2HT71vG5jWvv/tl+lrumBakbr3VGa6BocCZxrtgQjxE+du71CnVrCaDvx/j0CEIgVf/esjjMn0tTs6iBI3r2DN3WWkBfc1OmvtNWjffKMcT6i7DKtdrSWWIHP6/1WHVOYN+/3mPzVVIoa7T13x3zfGKPay31id7aptK6NsLwl/ra3O1nlLuWTQo2CpMZbM3LARWX0atybEL43GdvuZJ8ynMjxsL7CffvpIi+lryK51gevprQmD6g4dXmZKd7rqsywub++YN336ZfcjW1+lr+dGHOL+otq8GbwGFeUX0teRXjBGPa8xZ96/f4tEFTNKLNmrsYydd5nNDXa9OYzg1W/5gvVBfS1a2l8xt/jyRSm9vTSs2vYelX8roa35rGMPf3nefd/2rLUf3tclBI/oGb+YJHB0nJQxnbQf4bRfqa86erTF3N8t1y66vJb+iZPF9HKXb5G7ydTPXzFua7Lf4qy7U1yLlWeDuFtLXUpHQRbxgWtc3NGnwEUQd8uXoRbp6vl6pr0XK4/q7W0pfS36lF7z/7qJvyHzSM+X2ThtcmQQtKTPJo69lxtLLsg8t6/sID3+7u+sbLrC/IYNwx8pLzB7vdH3Nd9cc/sb6Ow4V9ZWUk0UHSGsr+r7eUO2fWQ6dtxqhj4gEuozBb+gF3cLD39jRaVtq6mvJr3QZ8//j1o6+3sTlsIesJYRvD/e8n4dr9bXcsiOfv+qlrr7ml5o5+xvn7zY3pe/b4KkXk0trcC9THbOGZrx6F+trqSjvc/n7GmbW1dcyJzYXP8T4u780p68xDpa0gFQxA6lxyJ6u1deSPTNXdsvj37ciisr6WmJaJfi37rdLm/p++ymSb7QYH1Nf6i7fFFbwQUd4+OtvT2h6R9fW15L0M68IdaPY3h+ir796f62hryV7dmRIjv9+Q1fX15xfsWQx+0Fq7w/Rd77or1L1taR0LRlnQU3+e3lHdX0t+ZVBFGwYn4DuBX1r62u5u7bNxKF9Cv/v9VpfX8uUzBbNhW77+lM0gL5V9bWUBpxJizsflXUN6GvJr1gLouYleOhF3+r6WjZMHY7FHc8IrB7OX1VaX0t+xbGIP3se0fXTuuvP0Ndfez5muw7zd1wZuMdsoo9c3Bm+phj7759s1GaSfGnTN3Zm8o2/0JWJnw77EHx20V/8tvp6138fzyYfY/szor//zPE8Hi//ClO3D6a1q+kOXz5FXx1T/NjlW3Urt7gza62WX5xaz/+Ouh8P6ab17x+4KH3M012+d4q+R8xAaqouGV8ASus7R1SPPYQF7gAX6Wtu++Z+tSpJbhLgOn1fZB2SrYPvc+M+QHl9d7GM5jTNxH2A8vpuz/AqaWuuIrpaHSBJX/NmN0uV9Iu1FPzgNkANfS2Ljpbzkm0bGR7cBqihr63n8Wj4GGtTHtJmEMuelgRYQ8pZfg+91n/acRcggkd3jobVbonBjo2NnzukurqJrtwIkNNZG/aNKjyEcG1LWNXxu2Ghs7CUwRek+HYTDKFSJXcdYvAF8YTNvxVmDYwhUtvaMfiCjMCNiEtQQivx0M6T2wGiuCF4G/gYtJ6wp9g7kvMFCaIjApaAaoSkQ7co1gFRvkHWYGUNaL2b0PNYcUNAgPh47jHA3y3WXmp1QIK6JjUQmT0bKJQEAXGzrPmiD2baBqK4NzI70F/i79hzRyCc7crsVkfkAFeSkCAImWIJj4w7sRckpKRnQ7YCi3rGau4HSEg7MnLO+l+sM/cDRKFDYl1Y0Lu+DzyrmsABZCxp+oa+7Tv/krQiXwZCkstyg5O0HoGRF+S4nBr0Nr/1b+32NUt5wmZd21sPwgbIOfiO+vNw6Gq3LRg2p019fxKWg3UKyBv57n8Ph/YTO4S5rmnW+3vH2NemuB3qQu60g6kdg7UojSa8UIfdfebRX8wjpeXQEMJWZJblZWrLoZ3YwZEK64geoBm0OBbY41eOAQrkHZw71M0nAFNnAxWISON2tIKEhkNfX3uQkeAXmmCLyYLtNzw9EH7MzM33RzNzN2hWX38Yi77QbOLBn0QYOEMF7qvvQuYMWtXXHwac6Av31VehLxA8ADSiL1M3KM5O4gzui45Z/+3RF5qgy7ZozD5hKM4cs3VipWQH2oCCSbgxg3z4XSlXh4ZTD+55mGazELTCJm0aaTkpkysJNcizUZ7zW6EKSnS8hO0UAQ7PhirYjs02ttmxHVIxkvWFOqzBh27bD+ymyQ5Uwt4gdf0SEjz0mKNBKkCR4fdtBFbv3Uvn4+T0bLjX8BsKgy80OfxmO9kNoHDyIfRkFtIOUJM9SV9aU0NVppTwgQU3qEzCuZoroQPcNvswciwQ1EcR+MKP85dSHbivv9gL9/UXe6EdhOnfEXuhqfzDKLB3IOcAbfEYwgsdyPdCcxxhA/DKzmJocgAOmMGNmqEXbiow8kLbAmt7Dc/QIS+0zrabDB406Qa4yRjc7cuHw8OpN8ZduBv9PM9sZgMAAAAAAAAAAAAAAAAAAAAAAAAAAAAAAAAAAAAAAAAAAAAAAAAAAAAAAAAAAAAAAAAAAAAAAAAAAAAAAIBU/gPf35OTY5eAOwAAAABJRU5ErkJggg==;" vertex="1" parent="1">
          <mxGeometry x="410" y="190" width="114.15" height="60" as="geometry" />
        </mxCell>
        <mxCell id="eUcrK74wxGQHS_9A9SQL-8" value="" style="shape=image;verticalLabelPosition=bottom;labelBackgroundColor=#ffffff;verticalAlign=top;aspect=fixed;imageAspect=0;image=data:image/png,iVBORw0KGgoAAAANSUhEUgAABQAAAAF7CAYAAACNTibmAAAABmJLR0QA/wD/AP+gvaeTAAAgAElEQVR4nOzdeXxcVd0/8M/3ziQlbaFssraIsoisssiuAiJrQUSD+EAxdO4MoVr9gSK4jyugAipISzKTVhAXgqiPiiK7oo8iiLg/+rA2xaosbSm0TTLn+/sjk3SWe2fuLPfcmcnn/XpB594593y/SSlNPjn3HoCIiIiIiIiIiIiIiIiIiIiIiIiIiIiIiIiIiIiIiIiIiIiIiIiIiIiIiIiIiIiIiIiIiIiIiIiIiIiIiIiIiIiIiIiIiIiIiIiIiIiIiIioc8SiboCIiIiIiDpfMpnc56CDDpr9u9/9bnXUvRAREU038agbICIiIiKizpNKpbpyudxJIjIfwMmqOg/A2QCeiLg1IiKiaYcBIBERERERNcWiRYtmj46Oniki840xbxaRraPuiYiIiBgAEhERERFRA/r7+7cbHx8/A8Bpo6OjbwbQo6pRt0VEREQFGAASEREREVFNXNedKyJvV9Xe8fHxw8FnixMREbU0BoBERERERFTV+eefv3csFjtLRHpVdW+u8iMiImofDACJiIiIiMiLpFKpo4wxvQDmA3g1ADD4IyIiaj8MAImIiIiICACQTqedFStWHOE4zhmq+jZjzG5R90RERESNYwBIoTst/cOZZobMAID1OZ3pxGQGNpaPc2JGu+LOagBYkz+Xm/Hyhv+5+Kz11polIiIimsZWrVq1i4g8wFV+REREnYUBIAVy8ldvn5FbE9vJ6XJ2Nmp2FiPbiuS2gmBro9haIFtBsbWBbi3AVgC2VmAGVLEBAHIT88QAYFyhZY+JVhh1sHEMUAAzkP+ic7QHb/7UD0cBrFVgDaCroVgzcSxrBLm1gLMWBv8CzIioWSWxrpVbYf2q4fRZozY+N0RERERERERErYwBIAEAjknfO7t7xuhrHMiecGRPQOdCsSNU5ymwo3kJr5A4oGogCkAMFILJHw5P/KqQwkm9fnCs6nFap8Zqyem8bkC3BbBt4QCBASATz6GRiTMqDqA5PKvdOPYT3/+3Qv+lihWO6L+geFIFjyGnj+VM7rFfXH7Wf2r9PBERERERERERtRsGgNPMmz9/1zYzYjgIgr0V+hoo9gT0NarjcwEHE2HcpjRuItIrSN106l+bzipQmvapxzkgaPinZUlg+XRaUKf4XMFV2wHYTgT7TUWTqoAjcJw43vTx29ZA8RhEH1PIYw70sRzw15dj3Y88nD7t5bJWiYiIiIiIiIjaEAPADnZM+t7ZM3tyRwDOISrmYAAHQ7HrRJhWELfp5Lq94qBPPc4FCv9Kr8sflz9KJkj451XCc2mh17TVep8D6EFQHCT5kFEUmGU2jr/po7f+GZDfquqdxmy884ErznnBoygRERERERERUctjANhBjvnavbNnrdej1OgxgB4DmEMAiSvMxACP3EyLk7ySl17nAoR/Xg+Nrjv8Kw8Sp1759NmE4DKuwAGAHgBRV5zu8aM/Mvw/EP2+juW+/csvvOuZ8g+QiIiIiIiIiKg1MQBsc6d84d4dxNHTVeUMvGyOU2DGxDsTq/q0PGWbOqgU/qlP4ucVmRUdeYZ/HtfVEv5FH1zGBXgDVN4g8dgX3vDhW+5V4MYXZuA7f+ZGI0RERERERETU4hgAtqETvnjHrC50nw3oQkAPV4UDj1V+wcK/src8n9TnfV9uyWGg8K/8Wq+Er4WDyxiA4wEcv9VGXHn0h2/5anxG19L70m9bXT4BEREREREREVH0GAC2kZO/dNfejsQuhOoCqM4BKj0aL2j4Vxpx+T+Az28FXU3hX+l1Hn02JfzzqOd7WH9wuSOAy8c3jH7kDZfe8qVYD66+L33WOo8miIiIiIiIiIgiwwCwDZxy9b2HwOCjArwVqlL99tk6ds3V+sK/0mk2nQu646/PQdBVi1MjIg0uN1fRT41t0AuPvPTbn975cWdgePisnH+3RERERERERET2OFE3QP5Oveb+187/0r23i8FvBTgDCBL+eWV0VVbGlU8ROPxTr0DQcy2eV/jXccHlDgJc/8yrcr844sPf3MtjdiIiIiIiIiIi67gCsAUdk753s81n6UdMTi9VoHvibJAAzSt6Kxjtc/usepwLFP6VXucxfW29l17bpsGlyBGOwSNHXfbtT/xys79dhXTaeHwgRERERERERERWcAVgizn1mvtfO3s2HjEiHwe0e+qNCqHapjNey9Typ3zCP/9z3nFf0VEYO/561GvT4HIzqH7hyJf3uv2YD3xz2/JiRERERERERER2MABsIfOvvu80yemvFSi+fVSL4id4hVeh7pqrHgFajeFfpXOdHVzqiaMxPHLkB795RHlRIiIiIiIiIqLwMQBsEaddfd8iGHxfoVsUv+MT/nndKlsx/PMaXuUWW7/DOnbNnebB5Vw4uPuIS74xv3wkEREREREREVG4GAC2gPlX33eJqn5NoSW/H16r0MoPfG5B9d84A2VRWaDbZ2sK/wIEl8HCv/Ip2zS47BE43z/yQzenypsgIiIiIiIiIgoPA8CInXrVfb1QXFGeTQW5BbXeXXPLS1UL/0qnKeuhau8+B9MruIypYukRl9x8nscoIiIiIiIiIqJQMACM0Fu/9PO9BVgGDbLyz+sWVFRK2MrPaVlUFjj88901l8ElqvZeXE0ALDv8km+806srIiIiIiIiIqJmYwAYkYNveKgrJ+YbUJ1VGhUFC//Kw7ipV963oNYf/pVe5zF9bb2XXjvtgktHFMuPuuSmN5S+RURERERERETUbAwAI7LDSy+9D6oHeq9qq3jC5xbU/Cmf8M//nHfcV3Rkddfc8uY6NLjcLKfy/cMv+9auHpMQERERERERETUNA8AInPale7cVYz5WnkMVxU/wSKV8wr/SVWjl6V64u+aW9uN5gsFleXC5NcZy394nfUt3eaNERERERERERM3BADAKqu9TYMuSkx6vfA6q3oJaOrzKSjW/w8DhH4PLBoLLw2a/uOGj5TMTERERERERETUHA0DLetO3dBuRVPHZIKvQanr+XA7AgwCGDfSrIvgSgBsB3AXFmmq3z9YUoDG4LL2g+Lqit72DS4Fc9vqLlu9T3jQRERERERERUePiUTcw3ayf/YpeANtvOtNY+FdMHxTRr47mYj+9+yPHP+dV/+AbHura5vnn3gDoOVC8G4pYtVCtqIfSgc0NLv2rld8+20nBZbfjxAeRTh+NdNp4XExEREREREREVDcGgJYZ4J0ydRQkQCvLuYpHT7x8RoFL7rj0Ld+CiGd8N+nhCw4ZA3APgHuO//SPv+zEnK8AOLZ4vtIpmr9rbtlcflNMvV05/POdum2CS3PEYWtf9V+/Ab7h9VEQEREREREREdVLqg+hZjkt/cOZZvbsZwH0BA//SgeVhH+KX4ypvM1vxV9VqnLC53/6SQCfUECavnFG5eCy6Nym4aW3z1YP/2wGlyH2/tS6LTbb88/ps0ZLuyYiIiKyob+/f9fx8fEnQixxdiaT+U6I8xMRESGVSs2JxWKhPPZu48aN40NDQy8W1JoZi8VmlI5bsmTJavgsVQrinHPO2WKLLbaIFZ7bfvvtX0yn0+P1zMcVgBaZ2bPeAKAHgN8yt5IzXreg5k9NnLvXxM1pd19y4kt1NyWiPwPSb/nsT9YCepVXobrDv9LrintHeVjmd65KgFY62OP60j4r9156rbXg8pWz1m48GxPPayQiIiIiIiKiOhhjHjLG7B7G3I7j3APgzQW1vmKMcUvHJRKJo7PZ7C/rqXHeeedt093d/czY2Fh34fkVK1YcDaCuObkJiEUCORoAmrT5xONjRnp/1kj4V+DOj518tQCDRSct75obaOMMr6Nmr1r0qVdb+FfyMmBwKaofABERERERERG1NRGZX++1M2bMOBNAd9WBNWAAaNfBJfETKh74h385x9G3133br4854+veC+ijk4XKs76mBJelFxRfV1ywwueolvCv/NpmBpd+5+oKLqH7H/aB5Qd7vEFEREQtIJVKdSUSiVMTicRnou6FiIiIWtppDVz7rqZ1kcdbgC1S1UOmXqPgVUnK5XcLakEItfz2D53w+2b3N5w+a/SEz/34EjX6M694rPyVz0HF3r2GV70Ht+xcbeFf1MFlbasWxchCAA97TExEREQRSKfT8RUrVpzsOE6vMeZ0EZkjIn8B8PGoeyMiIqJymUxmj2pjUqnULsaYpwpOaSaTaeZCuX0SicQrs9nsU9WHFvW1ozHmjU3sAwBXAFpz4tU/3RrAK4Bqt6DCM4QqsDE+Hvtk8zuc8LOPnnqnmdgluLiHqrfP2t41N2D41xLBZemQyr0rcBbSaf7ZJCIiilgqlTradd2vjIyMPCUi/62qCwDMibovIiIiag+O45xe6zXGmP8CEKs6sEZcAWhJ3HS/CqgW/pWHalOvJl+K3v2jj715ZUht5kvI1yF6XGmfDQaXxefKpwgU/vlO7bkWr22Dy20Pf+HVr/818JvywURERBSmRCKxu4icC+AsY8xro+6HiIiI2sqLmHh23wwAUNVTAFxb4xxnFbx+HsDWzWiMAaA9r6wa/vkovAVVDX7Y/NaKxYzzo1wsNw5oPFj4FyC49Az/Sm+prR7+lV032YFXmtjGwWVOzAlgAEhERGSF67rbi8jZ+RV+fBYvERER1eslAPdh0/P/jlu4cOHmQ0NDLwa5eOHCha8BcGj+cB2AnwA4pxmNMQC0RI3sCFF4pUC1PH9OjT4QVo+T7kif9Pzxn/nRX6HYr7itIMFl9fDP/1yA8M9zBZ3HiTYPLh1I0+/3JyIiok0WLVo0e3R09EwACwAcq6pNv9WGiIiIph9V/a6ITAaA3bFY7AQA3w1yreM4hZt//FhVXxaRpvTFANAWx2w1lf8U5UfBwz8A6HLGQr39d5Kojihkv9KeCtW7a656nCuPEoOGfx7XBQ3/fOq1QnBpFPuWX0BERESNSKVSXblc7iTHcRaMjo7OB9ATdU9ERETUWXK53A/i8fgoJm4FhqqehmABoAA4t+D4FgAnNasvbjRgiRhsCcB7xVnF8K/orQ0/vuzU1SG0V15KnFUF3RS2ln9ZW3DpGf6VvlnpMPCOv1VPtEdwKdjh4Etv4EPGiYiIGif5zTxuMMasym/m0QuGf0RERBSC5cuXrxaR+wpOndLb21v1ToNkMnkIgN0AQETWjo+P397MvhgAWqLAnNKwrHyxmFf4V3Rg7fdLoI5/GzUHl/lfPJO94qlKPik1hX+l17V5cCmjm73GoygREREFlEwm3+667h+MMb8AkEKTHqJNREREVImqFq74e8Xmm29+qO/gTaZu/1XVHy5fvnxDM3tiAGiLTOwAM8kv/CtWHEQp0H3y5T/ZNoTuyhjFzoWFCxupI7isK/zzmAaThTzDP/9sr/igXYLLXG5Hj66IiIgoIFU9AeBjNYiIiMiueDz+fQC5yeNYLHZaheHo7e2NqerZk8eq+p1m98QA0Bbd9LzFep4/NxUMSdfckDos7WleefhXd3DpO0ml8E+9AkHPtXhe4V/7B5ci2NxjFiIiIiIiIiJqYUuXLv03gKlNXFV1fqXxc+bMeROAyUVAL6xdu/aOZvfEANASEXQBfreg5k9VuAV18oVB7oRQGixwwmf++1UAXlOeaTUQXBa9HSD8K71usgOvNLFq+NeewaWKw2cAEhEREREREbUhESm8DXg/13VfVWF44e6//z08PDza7H4YAFpiFLGmPH9O5dSQWpySg5ziG/7VGVxWftsj/Ktx19zK4V97BpeOwazSq4iIiIiIiIio9cVisdtQGCGoeuY5ixcvngHgHZPHItL0238BBoAWBQn/vIaXvXnkCZ+/Y6/m9lZYV0UU5xe30ozgsmy28usmj+rZNbfkXOXep6b07b0Vgsuc5Pjnk4iIiIiIiKgNLV26dCWA30wei4jnbcAvv/zyyQC2zB8+JyJ3hdEPAwabqoZ/pYGS532sMUfMF5rf3ITjPv3Dc1VxcFkPjQeXpZP43KYbJPwrv9Yr4euI4JKIiIiIiIiI2lLJbsDHLFy4sOxZ/yJSePvv9wcGBsbC6IUBoC2m8KBK+Ke+4d/EVCrzT7z8p8c3u8Xjr7hzjkA+VdZTc4LL4pElK+hqCv9Kr/PosyOCSyIiIiIiIiJqW11dXbdi0zf+MxzHeUvh+6lUag6A0wtOhXL7L8AAMAJVAqbyxWBeAZqowS1v+czP9mhWV8ek743r6IZbAbxqsmj5Xa6NBZeVbp/1/rTUtmtu2UHHBJdERERERERE1G6WLl36JIDfF5wqug3YGPNWAJvlD/+9Zs2ae8LqhQGgVQUBkM8tqOpxzieE2kpiue+e8oUf79BoV+l02nHkxauhmFpV6Bf+Fas5uPQM/5q1a27RdR0TXBIRERERERFRGyu8DfjUdDpdmMUV3v572/DwcC6sJhgARqChzScKjxT7jY85v3vLZ398SL29HH/FnXMecA7+iUAWb5q9PIybetV4cOkxs9cKOo8TVcO/TgsuiYiIiIiIiKidichwweF2IyMjhwKA67rbA5sWYhljbgmzDwaAljW8+UTJ7aYK7AjIfW/5zO2fPjl9+xY1NCJv/swP36EbNzyoihPKqnnf1erbe03BZeFRqBtndFpwSURERERERETtZHBw8O8i8peCU/MBQFV7AcTz557ZZZdd7g+zj3j1IdQsIW4+MQuCj4/HceEJn719ec7kbnuDefg36XTaoMTx6R/uojG8DZ/90XlQHFQ8n/89qiEElzWHf5XOdWpwSURERERERETtLb8b8N75w9MAfKxw918Ruc0rw2kmBoCWVA6U/JeD+a1C8wmhtlXVD4o4H3wg9vpnj//Mj58C8E9AR2GwHQQ7KfAqqEp5G0HCP6/hDQWXJW9U3jXXb9VdpwaXCO3OfyIiIiIiIiKyxRjzXcdxPp4/3H/hwoXHAjhi8n1VDfX2X4C3AEfA6xbU0rer34LqvUisKITaFsDBgM6H4kwIjlbg1QA8wz+/W1Dbc9fcTgouiYiIiIiIiKidDQ0NPQrgicljx3Gux2Q+A/xz7ty5vwy7BwaAVnmFf6VJUfXwz3fziQorzvxvQa1319zyUk0KLiv07nMwHYJLIiIiIiIiImpbJZuB7FXw+jth3/4LMAC0qOD30jf8K3npFf6VDva4vqRIhfDPq0SVlXEMLst7qNq7z0HV3kP/809EREREREREFhhjvutzPvTbfwEGgPZp2Yuic15xX9ERd831KdHBwSURERERERERtbVsNvtbAE8XnlPVJ4eGhn5toz43AbFpKhwKEP7VvfkEPLIjr3VqXqvQSkv7Lkus9NL7iMGlT4kqwSURERERERERNd3o6OhoPB5/uOBUXd+Mi8hTqvpw/vVzFYaqiAyq6hkF195aqa7jOE9Pzg0Aqrqunh4BBoD2eIV/pW9WOgwc/hXFT/BIpXzCv9JVaOXpHoPLTYWsBJdEREREREREFIrly5evAnBIo/MMDg5+FsBnmz22nvGV8BZgi+xvPlHhoOotqKXDGVz69171RAPBJRERERERERFRYxgAWlK2nUPAW1C9g6Cgm0+UrkKr7/lzDC4n37AbXBIRERERERERNQMDQGtKA57q4Z+tzScq9em9uI3BpUfHPm00M7gkIiIiIiIiIqodA0DbvO9GRXl4VX7O+1SQAM2rRMFon1VoZT0wuCweaCu4JCIiIiIiIiJqAANAmwqSJ6+4r+go4l1z/c8xuLQaXBIRERERERERNYgBoHWVV5zVdAtq9ROod/OJQBtnMLgsO+dfoo7gsuzBkUREREREREREtWMAaIsBqq1Cqy38K7nOI+hryq655bN5zMng0rN3j3q1rVokIiIiIiIiImocA0DLmhL+lV5X6aBi+Oc1vOpStjYPLusN/0r78TxRd3DpfY5LAImIiIiIiIiocQwALap0C6r3ii/umlt40JzgsnRI6waXjP+IiIiIiIiIqBkYANrmEUyV3f6ZP65v8wmvEhWSM+8pAoV/vlMzuCw613BwSURERERERETUAAaANvmFf55BlMeJQOFfeag29cpnFVpZABkw/GNwWXJdGMElEREREREREVGD4lE3MF04MGk1cj0gU+dyU6+kZPS49yRSMjpXfl3pmaIZvd6UkhdTpY1nZ2WXSukIwXjRqXHfDyd/+WxVfI/BpX9nRERERERERESNYABoyU8/evIfou6hFR192c1bKWIlZ6uHf/7nAoR/bbPikoiIiIiIiIiocbwFmFqDVyZXIehTn8TPa61f0VGg5/7VEP751Gt2cElEREREREREVC8GgBS9is/OqxL+eU/ic5tukPCv/FqvMM57x9+pKcuvayC4JCIiIiIiIiJqBANAaiFeG2cUvRVs44ySFXQ1hX+l13kEfd7hXzjBJRERERERERFRo/gMQGoRXuFf6bq42sM/j2kwWcgz/PPP9ooPKoZ/XsPr7J2ImqK3tze21VZbbaeq26vqTiKynaruBGB7AJsBmC0iXaq6BYAYgK0AGBH5bwBj+Wk2AFhjjFmtqmu6urpGuru7n7722ms3RvJBTWO9vb2xOXPmHCciZ6vqJzOZzEjUPRERUfvq6+vbrKurazcAu6nqq1V1BxGZA2CL/D+bAZgNoCt/iQGwRlXHRGQtgDUistoY85zjOI8ZYx7fsGHDYzfffPPaSD4gahmpVGrm2NjYrvF4fB6AXVR1HvJff4pID4A5qjoDE/99TXoJwKiqviwiLwB4QVVfAPA8gP+Lx+OPqeqTAwMDY6X1iCphAEgtoMrKuPLH7wUO0NQzVAsa/pVv8FE+XTjBpQIQU9YkEVXQ19e3WXd39x6quqeq7iEiexhj9hSR3QFsZ4yZWvWuHom9z7nXl54TEYgIcrkc1q9fr67rPgPgryLyO1X9neM4/zMwMPB0cz86SqVSXblc7iTHcXpV9TQAW6oqHMf5fNS9ERFR++jr69uhq6vrjap6qKruLSJ7AXilqk59nSAigeYqHKeqEJGpX3t6epD/GuFvqvo3EXnIcZyfDwwMPNbsj4mi19/fv3Mul9tfVQ9Q1QPy/13NM8ZsE4vFAn/tWajwv6/C17lcDgByrus+AeB3IvK7XC73iDHmweXLl69uzkdEnYgBILWMxnfN9XqSnkf455UmVg3/vEqEF1xyISBRZfmf1B9kjDkMwKEichiAXY0xU18dTX4BHjIBsDOAnVX1eAAwxsB13f8FcJeI/Hj16tV3Dw8Pj4bdSCfq7e2NbbHFFqc4jtNrjDlVRLau9sUyEVEz9fX1bdbT09MzOjq6RTwe787lcltMvmeMeQHAhhkzZqxfsmTJavAruJZ00UUX9axbt+4YY8x8ETkOwF6Tf5dY+DphJwA75etOfo2wEsDdAG7v6ur62ZIlS14IuwlqLtd1XwXgKBE5SFX3B/C68fHxbSbft/DfFTBxx8ruAHZX1bMcx4HjODnXdX8nIveq6l1z5869N51Oj9tohtqDlf8yifwcfdnNW6k6zze0cYZf+BfGjr8efYYSXKpCVD78yNILrij/IIimn76+vi27urrerKrHAjgMwAHYdBtOq1sN4Eci8vXBwcG7wW8Qq0qlUvsZY84G8E4Au1Ua6zjO7lxN4S2ZTJ5sjJldfWTtROTxTCbzcBhzF1q4cOERIjK33utFJAXg+Ca2VGhEVS8Oae4i3d3dd9kKCfr7+3cdHx9/IsQSZ2cyme+EOH9g55xzzhazZs3a3xizK4C5+X92ATAv/3rbGqbbCOCpyX9U9R+O4zwgIr/lbXr2pVKpmcaY0/KPijgBwMyoe/IxDuABALfkcrlbly1b9p+oG6Ji6XQ6vnLlygMBHAngKFU9ChPBbjt4DsD3jTG37LLLLnel02neYzbNdfQKwN6rf9WzTl/aC8aZKwY7C3QnI9gekNmAbq6K2SKY+ikeiv44FBwoYOq8jdOTKZsNXreblk5iPM551zJFvzT12XkwKPu/hin9mMv79Ns1VxWxTas56gj/PCYNP/wrmtK3d+9zwcK/oPRfH7gOwOGBL6iXYhzAixB5AaovAroWgr9Dnf/FuPN3mfsFPn+LmiqdTjsrVqw4REROBHAigMNUtV3/ztoSwLmqem4ikfiH4zhLu7q6Bq6//vp1UTfWSlKp1NHGmF4AZxhjdom6n06gql/N3wIfxtyDAFJhzF3IcZyLAbwj7Dp1misit9goNDY2dgiA0APXTpZKpeYYYw4EcHDBP3sUrhxv0AwAe+b/mboVVFVfdl33fwDcY4z59tDQ0ONNqkceUqnUYar6HmPMmQBmtcGq8TiAYwAcE4vFvuq67l0Alq5Zs+ZHw8PDuWhbm76SyeTrVPUUETl+ZGTkUACzou6pTtsASDiOkxgZGXnadd2hXC43tGzZshVRN0bRaNdvpjyddPm9u8a69AQAh6ni4Jdy6/cRdSY+RikMXnTy1NRr32e4NXwbp8ctqGWdewVRPgce58J4/pz9XXPLp6xn19yaeq9+ImDvIQeXlajuAcjBtV3UgKn+Jv9AKRDPQVd9YCUEdwF6F8zYHbLjtfzpJdUsH/odC+DckZGR00Rkm6oXtRkR2UNVrxodHf2I67pXr1+//rrp/IDwVCq1lzHmbBHpNcbsHXU/RNQ58psFvV5VTxWRk40xByGau59mAngzgDc7jvNZ13V/BeBmVf1ONpt9PoJ+Ok5+hdY7VfX9xpiyZ/e2kTiAkwCcNGfOnKeSyeQSEVk6MDCwJurGOl3+v6G3AHirqp6qqnMBVH1GX5vZBUA6Fot9zHXdb+dyucuXLVv2l6ibIrvaOwBUlZO/eO+RTkzeAaMnAbpXUShTNY+rEjBNTVEa5lQP/3w3n/AKnaquQqtj8wmtL/wrnWbTOQaX/r0XT9nU4LJ97AzFuwF5N6R7TFddfDugy7D9S7eL8LYXqkhSqdRRxpgFIyMjvSKyVdQNWbINgM/19PRckkwmr9hss82+PF12E04kEruLyLmFoV+HfYFNRBHp6+vbMh6PnwzgVOOJDQUAACAASURBVEysHt/W0rO4ghIAR2Hi2WFfdF13EMBV3Mm8Pr29vd1bbrnlu0dGRi4D8Oqo+2myV6rqFar6Ydd1r8vlcl/h7cHN57ruwaq6YGRk5GxM7Mw7HcQBnBuLxf4rmUx+1xjzkWw2+39RN0V2tGUAeMqX7n4lxOmTq+5bAAe7Td6C6h+geYUyBaN9VnLVHf6VXucxfWmflXsvvTZocOk9SV3BpVc9BpdlRZsaXLYt7QLwVkDeilWz/qP/vPgqrBv7suwxPcINCuacc87Zoqenpw9A0hizb9T9RGhLVb1i/fr15yYSif5sNvvLqBsKw8KFC3eKxWILAJynqgz9iKhp0um0MzIycgyAhQDOBNATbUeBzQLw/wAscl33JsdxPs0d5IPJ/567AD6pqu3yLLZ6zQHw0VgsdnEikfjqhg0bPj+d7xxohoULF27uOM55IrIovwt01C1FxVHVXhF5ayKRuK67u/uz3JCm87VVAHjqVXcfKep8WIFTofkl/N5JV8kZrzAnf8on/PM/5x33FR2F8fw5j3oMLguGdVpw2bYKP7kKAK8A9ArMjr1bV71vsezw1buj641aQSKR2NdxnA+p6lmYeF4STdhXRH7huu6gMeaDQ0NDL0bdULO4rvsWAD9W1XbZtIWI2kAikdhXRJIjIyO9AHaMup8GdANIGGPOcV33yp6ensuny4rweqRSqf1GRkauA/DGqHuxrEdELu3p6XlXMpm8ZHBw0MrzRzuJ67r7i8gHVbUXwGb8QeSUbhG5eGxsbIHruslMJvODqBui8LRFAHjqF+/d1wG+aBQnFecvJauoPIK+UJ/hVvI/jeDhX2k/nicYXE7b4LIdFX4+1Ov8a6HOXfrP9w9j3OmXedfwmTfTjOu6x2BipcNpqupE3E6rEgApx3GOWrhw4duHhob+N+qGmmQO2mfHZiJqcclk8khVvQwTt/l20t8nmwH45IYNG85IJpPJwcHB30bdUCvJ7+p7uTFmEdrke9iQ7KKq33Fdd6GqXpDNZp+KuqFW57ruwSLyMVU9nV+DVvQKAN9LJBJfnTlz5qX8QURnauk/AG/74i+3m3/1fTeKyKNGcFLxu6XhX4WDqiu5SodXCXz8DgOHfx0WXPqFfwwu6wsu207V8C//WgFFL2K5B3Xl+19jqTmKWDKZfL3runcDuBfAW9Hif++0iH1isdiDruueGXUjREStoLe3N+a67nmu6z6iqr8EcBo69O8TVT1AVX+VTCYvjbqXVpFMJvcxxvwPgPdheod/hU4Ukd+7rntu1I20qmQyebzrug8AeEhVz0CH/j+jyURE3r9hw4bfJBKJ3aNuhpqvZf8QnHrV/aePOWN/gOoCRWlSHyTMqeM2TngEQAHCnJoCtLLg0j/oa5vgsmi+Vgwuy4O+lg0u20o+1Jt6WSn8m/xFAWA3iD6k/3zfKeH3SFFJJBIHuq57p6o+COC4qPtpN6q6BYDvJhKJK6LuhYgoKr29vbFkMnn2nDlzHgLwdQCvi7onS+KqeoXrutenUqnpvIJaksnk+1X1YQD7R91MC9oSwE2u696WSCS2jrqZVuG67sGu6/5EVe/ExKY7VCNVPUBEfr1w4cJjo+6FmqvlAsDTr3xg8/lX33ejQH8A6PbN3jW3bC6/Kaberr6Sy3sRV/2bTzC4LJukweCyrBuPai0QXLaVwo+7IAiEx2v1HDMbqrfpyveebqVdsiaVSu3ouu6giDwI4Pio+2l3InJpIpH4cjqdbrm/r4mIwpRMJo+fM2fO71X1W5g+wV+pC40xPzvnnHO2iLoR2xYsWDArkUh8U1W/DD4zuJq3iciDrutO65B04cKFB7iueyeAh4DSuwepDts4jvPTRCLRG3Uj1Dwt9Q3F/C/cv0cuPv5rKBYAqLhqyz/888roCkb7hDllwVDA8M9384kmB5eVN58oL8XgsryeX3AZLPwrn7KpwWVbKfh8BV/15zVmBgS36sr3vDWEJsmydDrtuK77HmPMXwG44C06TSMi7x8ZGckwBCSi6cB13f1d1707v3pnOu8SP+mYnp6e+1Kp1LZRN2KL67qvnTFjxu9E5Oyoe2kjuwF40HXdRNSN2NbX17dDIpH4muM4vwV/+Nxs3SJys+u674y6EWqOlvlm4tQv3nMqYvqwAHsD8AhzgoZ/5WHc1Kuawr+Sl17hX+lgj+tr67302ioBE4PL8h6q9u5zEGVw2TYUmz5fBa/h87py+Dc5tAvAt/SZxW8Ip2eyIZlMHjkyMvIIgOswseEDNd/5IyMj30qn0wxWiagj9ff3b5dMJm8E8Aj46IhSB6rq/alUqp13Ow4kmUweCeDnAPaMupc2NAPAoOu6n8PExmIdbfHixTNc103H4/HHRWQRuOFYWLoA3Oy67juiboQa1xLfSMy/6v7zAB0E0A3AeyVX9RM+K7kwOWX5dVXOecV9RUctuflEyUsGly0eXLaLws9BhVBv6peaxvRAzff1Xxe+XrZf8ngzuiU7UqlUlzHmc6p6MYBY1P3UQAGsBrABwPqS92YC2B6t+YXzWStWrHgWwHuiboSIqJkSicR/jY+PfxkTu1CSB1XdW1V/uGjRomOuv/76dVH3EwbXdd+hqt8Ab/lthAD4iOu6e42Pj5+zfPnyDVE3FIaFCxcesWHDhiUADoi6lxI5ACsB/AfAiwBeFpGXVPWFgjEOgB1EZJ6q7gygHVb3xgB8PZlMPjM4OPirqJuh+kUeAM6/+t73QvWrmPxmK8pdc8tnK6s/dWkju+b6VZvWwWWA8K/0Oo/pa+u99FrbwWU78Av+St6rP/ybfL01xnGbPpM6UnYaeLmBhsmSVCq1izHmOwAOj7oXD+MA/grgjwAeU9UnReRJEflXLBb7zw477PBsOp02fhen0+n4qlWrtjfGzM3lcruIyJGYeIj0gYj4700RWZRMJp8eHBy8Mso+iIia4fzzz58Xi8UGAZwYdS9t4uDR0dFb0+n0/HQ6PR51M83kuu67MLHRS6us4hoH8BdMfD3xTwDPqOoqVf1XLBbbTFXnAdgRwDwAOwHYDxM/QGwVZ3Z1dd3a19f3jk4KAc8777xturu7rwSwUFWj/mHtiKo+4DjOr1T1b6r6xNq1a58eHh4erWWSVCo1c3x8fG8R2R/APiLyBgAHo4Xu1sybqao/7O/vP3jp0qVPRt0M1SfSb2TmX3X/e6qGf8URjtdpoDztmTqo6RluAVZt1Rb+WQou/cK/tgouveO+oqNOCy5bnl/4V2vwlz/2+rwWjzsAJvY5ABfV3ivZlEgkTjPGLAfQKjvOrQHwC1W9x3GcB8bGxv7YyBe7+W+qVub/+Q2AYWDigeQzZsw4UUQWqupJiGjVo6pe7rruk5lM5jtR1CciagJxXTcpIl/M73pOwZ24cuXKawAsjrqRZslvMnATor2b4HkAPxGRX4nIw7NmzfrDNddcU3qXQEWJROKVjuMcpqqHYuIHpIcjwo9JVU+Nx+PfW7x48RnXXnvtxqj6aJb8c+i+CmC7iFpYA+AOVf2RMea+ZcuWrWjGpAMDAy9jYuOShybP9ff3bzc2Nnai4zhnquqpaJ1gfOvx8fFb+/r6ju6kYHk6iSwAnH/V/e8ECsI/j0gmWJjTLptPVDhoNLgsn4TBpf+J1gguW16QYK+JYzYdvl+f7v+p7LL0jjqaJguSyeSnVPXjiPgWWRH5C4AfqeqP1qxZ86vh4eFc2DVvuummlwDcBuC2/v7+ncfGxhIichGALcOuXUIAZJPJ5J8GBwf/bLk2kVWqerPjOA9VH+l7/ZkADm1iS4X+LSJXhzR3kbGxsZU26tggItu5rnsrgDO1tb5G2oiJx0O8lD+ejYlbUVvu2baq+t5kMvnw4ODg8qh7aVQymTxdVW9GNEHZCCb+Xv/B3Llzf97oqspsNvsUgKcA3AJMrVY7GUAfJp5rGcXXTietX7/+1t7e3rfXujKtVSxcuHAnx3GuBxDFxoGrVfWbAG6LxWI/HxgYGLNRdOnSpf/GRCh+U19f3w7xeLxPVS8QkV1t1K/i4K6uri8D6I+6EapdJN/AnXb1PW+COnfqVJJd7zPc8mGOT8LWmTv+Wggum927X3DZ7N7bJbgMSFQ+/MjSC66oNEZXXXwHICfUXaR8xoKXVUK9qZdBgr2axjyO+Ev7yw43vQRqGfnn/Q0BODeqHlT1H47jZEXkWwMDA09H1UehRYsWzR4bG3sPgI9EsIrl/xzHOWRgYGCN5bo1yT80ejis+R3H2X1gYOCxsOZvZ67r/gPA7mHMraqD2Ww2FcbczeS67g0AQulTRP4yODi4TxhzR6m/v3/X8fHxJ0IsYRDdrW0GE7d0/kFEHgXwh/Hx8T91dXU9l1+FUyaRSGztOM5+qrovgGMwcbvy5tY69rfOcZzXtfP//xKJxBtF5Gew/8y/B0Xkmp133vlWW7dSX3DBBXsYY96nqucDmGWjZiERGd55553PrvQIlFaTTqedlStXXqKqn8DEM5ptGReR7wEYWL169b02fsgcRDqddlasWPF2AJ8TkT2i7kdVT85msz+Nug+qjfUVgKde84tXq8ndisJlrO0Q/nk22khwWTqdV1Dk1bv3JJV695y6PI5DsN654tJjEp/f3/rDv2jUEP5VC/48x3iM8w4IX43czI8DuCxI1xS+xYsXz3j55ZdvFpG3R1B+A4DvAVg2b968u1vtC9f8g9iv7O/v/874+PhyAG+yWH53Y8x1ABZYrElE1Cjb4d/TAO4UkZ9t3Ljx7htvvPG5Wi7OZrPPA7g//8/Xent7u7fccstjVfU9AOYjuhXxs40xX+/t7X1TqwQUtXBd97UAvg+74d9dqprOZrO/tFgTAHDDDTf8A8DiRCLxSRH5CCZu4e62VV9Ve0dGRlYBeJ+tmo3o6+vbYWRkZBmAkyyW3QjgG47jfGlgYOBvFusGkv8aeHjx4sX/vX79+g8B+DgivDVYRL6USqXutrUqkprDagB48A0PdTkvvfRNLdzpxuIz3PzPBQj/PIMojxOtFlz6hDDNXrVYNpffFDX03nHBZcvyC/5K3gsa/nmHerWNUb1IV1yQlXk3/KNi6xS6iy66qOfFF1/8kYgcZ7n0wyIyNDY29s3ly5evtly7ZkuXLn2yt7f3zXPmzPkIgE/A3t+v57qu+yM+D5CIqMhKADflcrmbli1b9pdmTpy/jfIOAHekUqn9jDEfA3BWM2vU4Kg5c+ZcAqDiHSOtpq+vbwdVvV1EtrJUcgWAizOZzK2W6vnKB8ofvOCCC27I5XLXAzjeYvnFrus+k8lkWvq/F9d13wpgEPZ2BX9RRJbkcrmvDA0NPWOpZt3yz3P8TDKZ/KGqfh3A/hG1so+qLgLwlYjqUx2s/gRux3XrPqWqh02dsPwMt0C3cQYO/9okuPT8JHmcCNR76bUMLoMHl63KL/zTgvfyr3VyjHqMAYo/aQ2Ff4CiG6KfCf5xUBjS6XR87dq138bEc2tsuU9E3pLJZA4ZHBy8vh3Cv0nDw8O5TCbzGUx8vmz2fb3runMt1iMiakXrAAwAOCSTyczNZDIfbnb4V2pgYOCPmUzmnY7jvAETO89H4VOpVGq3iGrXbPHixTPi8fhtlp5lZkTkCxs3bnxtK4R/hW644YZ/ZDKZE1S1D8CLFkt/Lh+wtZwFCxbMSiQSA5hYGWoj/DMAMgD2GBwcvLQdwr9Cg4ODv+/p6TkUwI1R9aCql/b19W0WVX2qnbUA8JQv3f9GAJdOnQh0G2d50NeUZ7h51PM9bIHNJxhcll9f2mdrB5etquCT1/Atv1owxisg1Mlgz78GSvpQPUufcg8O9KFQGGRkZGSpiJxuqd5dInJUJpM5dnBw8C5LNUORyWR+oarHAXjWUsmtReRaS7WIiFrN86r62Xg8vlsmk7kgk8k8bLuBgYGBB3p6el4PIGu7NoBuY8wnIqhbl/Xr1y8BcISFUi+o6umDg4OX5jfxakWazWa/7jjOoZh4NqUNDoCbkslkSz2/9Pzzz5/X3d39iIgkLZW8X1UPyWQyyUwm8y9LNZvu2muv3ZjJZN4tIpdhItC0bcd4PJ6IoC7VyUoAePJXb5/hiN4wVS/w5hM+BxXDP6/h/omQX5hTU/jH4BJVe5/OwWXLKQjmfFf0FY4Bij+uktcacEylGpMBYfF5gaMfDvxhUVO5rvtZADb+Qn9CRM7MZDJvGRwc/JWFelZks9lHVPVYAKts1FPVM5LJ5Mk2ahERtYi/AXj3mjVrdsxmsx/P75oZmfw34i6ACwDYfibWgmQy+XrLNWvmuu6FAM63UOr3xphDstnsjy3UatjAwMDf1q9ffzgmbi23YXNjzPcWLVo021K9qmKx2G6WNrZ4TlXPy2Qyx2Sz2Ucs1LNicHDwSlVdiGhCwIsQ3bNQqUZWAsD42KwPAthr4qiNn+HWacGlrV1zy2fzmLNDg8uWU/ixVQjsJn+pFhBq6XmPubw+16V9+I6Rt+kzqb38Px4KUegbS4jINZtvvvk+g4OD3wu7VhSy2eyfjDGnYWIjk9AZY76yePFi2zspEhFZpapPqmqf4zj7ZzKZG/PP5GsZmUxmAMBC2P2psKi29qNT8ivOrrJQ6v6NGzcePTQ09LiFWk1z8803r507d+58ERmyUU9E9hgdHb3ORq0WoQAGxsfHd89mszdF3UwYstns1yMKAXdLpVJHWa5JdQo9ADz9ygd2Umh+N0/umls4OvLg0qtyyMGl37n2Ci7bMfwrCOlUg4V/1UI9zzEFAeFUsFchRKzeh4Pc+EUVPzRqR+tF5J2Dg4MXX3PNNeujbiZMQ0NDD2HiG8HQicge69ev56pZIupU/wRwwbx58/bIZrNfb+WdJzOZzDdU9ULLZU9cuHDhAZZrBtLX17eZqn4LQE/Ipe7fuHHjqS18y29F6XR6fHBw0AWw1FLJd7uu+y5LtSKlqhdmMpkL2unZ0vXIZrNfB/Bp23WNMVFthEQ1Cj0AzMXHPwdgYnlx3eFf6YUFo33CHPU4FyT8K7tusgMGl5t6mPbBZemQdgj/Jl9WCOymgj2/wA6bxpTOW+uYslV/HvUm+1A5V5+60NYucWTH8sHBwVuibsKWTCbzLQBfs1TukkQi8UpLtYiIbHgZwOcdx3ltJpMZSKfT41E3FEQ2m71BRK6xWTMWi9kOHQOJxWKfA7BfyGV+3s7hXwHNZDKLRMTWKrXr+/v7d7ZUKzKxWOz3Ufdgy9y5cz+jqj+xXPZMy/WoTqEGgKdffe/uMnkbWaPPcPPOh1D2ZsVzAcI/zyDK4wSDS5/evSeZVsFlSyn4hFnd6MMjOJx6WaWP8jEzgQ2h345KVrXFN2/NtGbNmoth5wHfM0XkSgt1iIjCpiJykzFmj0wm89GBgYE1UTdUKxG5FIC159uq6rkXXthaPzRNpVJHi8j/C7nM411dXWd0QPg3SUUkAeBOC7W2HBsbG7RQhyxJp9NmbGxsAYCnLZbdOZFI7G6xHtUp1ADQqFwKINbcZ7iVhjnl6V5LbT7RrsGlT1jG4LLK1C2jIICLZKMPjz4mA8JqfXgGhI6NB0YThWZ4eHhUVftg57ksZ6VSqbBXWhARhUZE/iIixw4ODp43NDT0TNT91GtgYGDMcZx3AXjOUslZ4+Pj51qqVdVFF13UY4xZhnC/51wvIm9fsmTJCyHWsG5gYGBMVc8G8ETYtUTkZNd1+bV2B7nxxhufyz8P0BrHcY61WY/qE9r/jE+/8oGdACzgrrnF49omuPTA4LJ05lZNAAs/ngqB3eQvkW/0UdirTx9iXqdP9L0ORG0sm80+COAGC6XEGMNnARJRO3pJRC4TkdcNDg7eH3UzzTAwMPC0qlp7nrGqtsyteC+++OKHAIS9Kqh/cHCwI2/vzGazz6vq2wFstFDuylZbPUqNyWazdwP4ga16qnqorVpUv9ACwFx8bBFUZ3iGf/75WPFBxQCtnP3nzzG4LLqu6O2og8vq4Z//uTqDy8gVhGbttdFHsDExaZmfaBPVq6ur66OwsxKkN5VK7WahDhFRs/xAVfcZHBy8spU3+KhHNpv9BoBfWip3dCqV2tZSLV/9/f27Arg05DI3ZzKZG0OuEalsNvsIgMstlHrF2NhYS+8kTXW5CHYCZADYw1IdakAoAeDBNzzUJZBksPCvNMyp4xluWl/4VzrNpnNBnz/ncxA0uPQL/xhc+l4bPLicmrL8ujCCy8gVfiwVArupYM8vsMOmMaXz1jqmlo0+/PqY+kUBNe9UhYCojS1ZsuQFEfmihVJxY8xHLdQhImrU8wD+K5PJnJHNZp+KupmQqKouhvd3Hs0WN8acZqFORePj419EuLv+vgDgAyHO3zLWrFlzOYA/WSjVz0eIdJZMJvMEgK9bKrenpTrUgFACwB3Wrj0BqtsVnw0S/nlldFUCpvIpAod/6hUIekZaIQWXXtUYXHo22dLBZeQKPgftu9GHdx9FASHm4qnzDgdRm9uwYcN1AP5todS5ruu+ykIdIqJ6/dBxnH3zu6V3tPxKru9bKneKpTqeEonEUQDeEXKZSzKZzL9CrtEShoeHR40x5wIIe2VszBjzhZBrkGW5XO4rsPPDhx0WL148w0IdakAoAaCILCiNuYKFf+Vh3NQrnzBHPc4FCv9Kr/OYvrbeS69lcDktgstW0REbfQBVexWcDqI2d9NNN70kItdaKNUF4EILdYiIavWsqp6VyWROHxgY+GfUzdgiIh+Hnc2gjrJQw5fjOKHeSqqqv5k7d+6yMGu0mqGhoUdV9XoLpU5KpVJHW6hDlixbtuwvAH5ioZSsW7duCwt1qAFNDwBPv/KBzVWkYNm5T9LlF/55ZXI+4Z//Oe+4r+go4ufPMbjcNLBtg8uQqWMCfIEoTjgbfRS+Boo//z71Gt3oYyqE9Ki9yXwQdYB8APiShVLnpVKpLgt1iIiCugfAgdlsdjjqRmwbHBz8M4C7LZTasb+/f2cLdcq4rnucqoa6G6iIfCSdTtsIUlvNpwGsDruIMYbPAuwwqnqzjToisrmNOlS/pgeAJjZ2IlRnTp0oC+W84h6v8K80zClP9wI9w60k6Ksn/Kt0jsHlpuPag0v1+HDaJbi0QJ3q4YCa2QUHKHtd1rtHqFd1TLWAUBE8hKy117KAcF99om9XELW5gYGBNSLyHQultjfGvNVCHSKioAYymcxI1E1EaKmNIuPj40fYqOPhEyHPf38mk7kn5BotKZvNPg/gSguljkkkEm+0UIcsyeVytwMYDbtOPB6fFXYNakwYtwCfuOmllrwqD8uChX9lb3mEV2WT+IRGQQK00h49JkPQ3qMLLgOFf80OLv3CP8/ePU60RXBph4i+GGDYFj5BGdpyo49KfUyNyZ0Eog4gIssslUpYqkNERFWsWbPmR7DwHFgROSjsGqXyz/57U5g1VHVar07bfPPNvwJgZdh1ROTDYdcge5YvX74aE6uvQ5XL5eJh16DGND0AVOCkqVf++VjxQdXwrzSU8Uz2ikeWBAo1hX8dElz6nAg3uAwc/rVxcGmJMUECQC1YZh0wTJv6vPoFcwrvVX8lc4Wy0YfH69I+BG8BUQcYGBh4AMDfLJQ6IZVK7WKhDhERVTE8PDyqqreGXUdVdwu7RikR+X8hl/htNpu1cQt1y7rmmmvWA7jGQqkTzz///L0t1CF7puXKWSrW1ADwpCvveQ2AucHCnDqe4VaeBwUK/0qnKeuhdCCDy7IpGVzap6LPBhhWvAKwWvinAcd4nS8NCL3OF/bR8I7EfmP0ONVj+NMl6giqamPnSye/eyAREbWG2yzUsLoLfH9//64A3hZmDVW1sYFWyzPGDIjI2pDLSDwef1/INciuX0fdAEWvqQFgPCbHBgv/vDK6KgHT1BSlYU718M938wmv0InBZVlRBpfRmCH6j0rv6zOpmZhcATgVuFUI5tTn/KYZK4R/ky8DjqnWR5Dbk/0Dwi3x5E77gqgDxGKx71kqtcBSHSIiqmLt2rW/ALAm5DKvDHn+IrlcLgUgFmKJF0dHR20Epy1vaGjoRQA3hl1HVRdceOGFW4Vdh+xwHOdhAONR90HRavItwHpksPCvPIybeuUVLjQS/pVe5zF9aZ8MLgunqD38K51m07k2Di7tW/3b69+zqvKQmXsBcCoEZQgQpuXHVAsIFYFW9DW86i9gH+ocDaIOMDAw8EcA/2eh1F6pVGovC3WIiKiK4eHhUQD3hVzmFalUamb1YY1Lp9NxVe0Ls4aIfP+mm26qvkHe9LEU3t9xNdPM0dHRs0KuQZYMDAy8DKDiAhPqfE0NAFVxWMmZ8jGeYc7U9eXXVTznHfcVHXXUrrlep8IOLr0nqSu49KrXDsFlNP5efYjuFWzVH1D8gXkEhJXGRLLRR5VexUS1sx1RGG63USSXy823UYeIiAL5RcjzizFm65BrAABWrFhxPIAdw6xhjPl6mPO3m8HBwT8DuD/sOiLy7rBrkD0i8njUPVC0mhYAnvz5n78CwB5AScxSlMt4hX+lYU55uhfurrml/XieYHA5bYPLiKj8MsCggtU8lQI3n4CwlTf68Jqr+DePASB1DGPMj23UEREGgERELcIY86uwa8RisZ6wawCAiJwXcolV8+bNuzfkGu3IxnOED08mk3taqEMWGGOeiroHilbTAsBY19jhAMQ/qwkS/nkNrxL4+B0GDv+K4ifPPtsquPQL/xhc1hdcRiWmQX6il9+ZyyMoK/sYK4ZpBa9LAkKv84W/eeFt9FHcR3mY+Sp9/F3bg6gDGGN+DmC9hVJH9vX1bWmhDhERVWGMeQRALuQas8KcHwAuuuiiHgBvDbOGiNyZTqdNmDXakeM4twEYC7mMGGPODrkGWeI4ztNR90DRaloAqCqH+4c5ddzGuemqkrcrhzk1BWil11U6aJfgsmg+BpfeJQP2Hh2TmwgEfKmmHUCPLQvmyoMyFH8iKoV/NY7xrFHQR2MbfRR8PD5jHDkKRB1g+fLlGwD8zQmONQAAIABJREFU1kKprlgsdoqFOkREVEX+//1Phlwm9GcArl279viw66jqT8Kcv10NDAw8KyI/C7uOiJwedg2y5vmoG6BoNfMZgPnn/wUP/4oVpzXeoVHl8M93as84blOR9g8u/YM+Bpd1BpfR+u0flyx6oeKIfz5/IID8c12ChmkVAruyMT5zTQV7VcZU6qNqUKnBQkjD5wBS5xCRBy3VOdlGHSIiqk5E/hbm/MaY0G8BtvD3ionH43eHXKOd3WqhxoGu6/LOm87wctQNULSaEgAek743roLDvZK7SuFf02/j9AoE0fxdc8vm8puiht4bCy7LDxhclk0SPLiMnNxUdYjq8cVhGlA5/KsypqGNPgrHBOgjyJhKNSYDQsGRIOocoT8LKu84S3WIiKgKVQ31gfyO40iY8wMQAKeFXON3S5cu/XfINdpWLBa7HT7fSTaRo6qnhlyD7GAAOM01JQCcORP7AjqrPGApD+OmXvmEf/7nqoR/pYM9rp86UTX8Y3A5bYPL6I2OjcaqP9BX9FgABR9XhaCsbAyKXze80cfk9FUCwmp91BpUqh6of+7tBlEHEJFfWyq10/nnnz/PUi0iIqpsVdQNNCKVSu0LYG6YNVS14mNxprt8OPqnsOs4jnNS2DUofMYYG8+cphbWlABQHD209Fy9z3ALdBun11FLbj5R8pLBZV3BpW/41/TgshXIT/+cdSs+m0H/8/92hOLN5R9X0DCtJCD0Ol8W7PnNBY/Pb9Ax1YLKkrCwvI8ezHQOAlEHGBgY+CeAFTZqxePxsr+ziYgoEv+KuoFGGGNCfzac4zg2npHb1kTkjrBrqOpJvb38wXu7E5FQNx6i1teUAFCNHlicy3iFf6VhTpXwr3w2lEyw6dJGNp/wq1ZjcOl3jsFl48GlX3PNDS5bg6r5XNVBG8fPBjReMSjzDf9qHONZI/9aK41BwZgKNSoGlYW9+vSheD2IOoSI/MFGHWMMb58nImoNz0bdQINOCLuA4zgPh12jA9xjocbmW265JZ+/TdTmmrMCUGTfTUdBwr+yt8rDK6+QxnNI0PCvKH7y7JPBZdlsnvVaN7gMEP6VXtda7n106YXVNwIQTWw6KA3TKgR2ZWM8rp8aHmBMpVBv6jepSh+BQshKY3R/EHWOv9ooIiL8Ap6IqAW08+14vb29MQCHhFxm9Q033PB/Iddoe7lc7gEAJuw6xpjDwq5BROFqzgpA1X3yrzwyF6/wrzSU8Q///MKcmgK00usqHUzX4NIv/Gur4NI77is6as3n/gEAVPXKqmOeec9BAKb+vBW8EyxMKxrjEcy12kYf1fvYB0QdwhhjJQAEcNDixYtnWKpFREQ+RGRD1D3Ua6utttobwMyQyzwEz+8SqNDQ0NCLAP4Rdh0R4Z03RG2u4QDw5CvvnQtgK8Ar+6qQnOVfemdElcM/36nL47iiIupxrui66Rxclk8yPYLLViH43qNLLwzy/I7LPIOyqf/OKoR/XudrGaOTYyoEc9X6qCuo9OtVAcV+qgh7hzsiW/7XUp0ZL7300n6WahERkb+2DQBzuVzoz2FWVSuPxugQv7dQ40ALNYgoRI2vAIyZ/YB8/OKTUtm5jbPezScYXE7b4LJ1vDSO3PurDdIV790Pqu8oOFMhKCsJCL3OT31SFYHCv0qhnu+YakFlSVhY++3Js/FU764g6gC5XO7PtmrFYrF9q48iIqIwtfMD+R3HCfv2X4gIb/8NzsazEl993nnnbWOhDhGFpPEAMKd71/MMN/9zAcI/zyDK40Sg8I/B5bQMLluIAF/40/Xvqb77p2M+OjEcCLxKLsiYovMlwdxU4OYT2E2NqVCjYlBZ2GuAoNLrvAFXMlFHWL58+WoAz9mopap72KhDRESdSVVDXw2mqk+EXaNTGGMetVBGurq6XmehDhGFpPEAUDDxEH6vTK5C0BfoNs7A4Z+9zSf8z3VwcOkVCNYdXPqHf2Vz+U1RQ+/ewWXrEOCeR7Zf9dlq43Tlha8B8I6JT0aVoKxoDFD8SSj4DWqbjT6qjFGzN4g6hIiM2Kijqq+xUYeIiDpPOp2Ow8LtoPF4/LGwa3QKVbXyHGEbKz+JKDzN2ARkX68wp55dc6setsDmE9MyuPT8JHmcCNR76bW2g8uW8pxRPQ/pdMVduyaecScDgMYChWlFYzyCuXbb6KN6UMmdgKljqOpKG3VEZE8bdYiIqPOsWLFiV4S/AYjp7u5+OuQaHWPdunXPANhooRQ34CNqY40FgKoCxV4FJ/KnvcZO/uKfCPmFOTWFf6XXeQR9Tdl8wqOe7yGDS89qkQSXrcOoavLRpRdW/2b/mf53QvWNmz7OCuGf1/laxkwFbhWCuWp9lIV/Pn0EGVM1qFQA4LPMqGPYCgAB7J5Op5vxQ0AiIpp+Xmmhxsi1115rI9DqCMPDwzkAT4ZdR1Vt/N4TUUga+uL/lC/etz2mfvrjFf6VhjK1h38e02CykGf455/tFR9UDP+8hjO4nCzUtsFlS5ELHl164feqjdLHUnMAuSZ/VPhOwbEWfLwVgrJGb/lVvzElfZQFhH69VuijpjG6l/65txtEHUBEbAWAPatWrdrFUi0iIuoscy3UeMZCjY6iqo9bKGPj956IQtJQACg53XniVZWAST1GBAz/fJ8/51WvLGMqLdwCm090WnCpJddZCC4r/Fa1Rfinolf8fskFmUCDZzifhGIH32DO5kYflWoEGdPQ7ckFc5WHkF3YzLwSRB1ARKx9w5PL5Xa3VYuIiDqH4zjzLJR51kKNjiIiNgLAnTG5KSERtZ2GAsBcXHcpCo58whz1OBco/Cu9Ln/MXXMLeog6uPSqHHJw6XeuLcI/4LJHr7/ww4HGrlh0JoCLvAMxhfeqP6Doc94pG31UCyrN+KtB1AGMMdYCQGMMVwASEVHNLP398ZyFGp3mXxZqzOjr69veQh0iCkFjKwDVTC0Bbotdc30mYnBZZep2Di5bhxGVRY8u6b8yyGBd9d5XQXLZgjMFLysFbrppjF9gFzT804BjKtXwDSpL+mg0qBTsCqIO4DjOCxbL8Qt4IiKqmYhwBWALEhEroWksFuMPEInaVIMPANe5QOXwr6U2n/Ce0rd3Bpf5Dto2uGwZ6wBZ8MjSC5YEGayajmN8/CZAtsyfKXyzcKT3647c6KNqULkriDrDGluFHMd5ha1aRETUOUQk9ABIVbkCsEa2PmeWbgEnohDEG7lYVOaZCplO624+oZNTll/H4LK0ifITQXv3Cf/sBJct40Fxxs965GvvfSrIYFUIVq4aBHBUXYFb8Wzlr8s+fzXWqHlMnX3UOoYBIHUIVbUWAKoqA0AiIqqZqm4Xdg1bq9k6iYg8pxbuiLLx+09E4WjsGYAqO286Kg1lPJO94pEl3+DXFP6VXucRlnXerrltFlx6sBZcRi8nIteZWTOPCxr+AQBW9l8HoK8s2Ksp/NOC9/KvdXKMeowBin8fGwj/wtvoo7yPwjEOCv5fRNS+jDHWAkAR4RfwRERUjx4LNV60UKOjGGNshaYzLdUhoiZr7BmAQH75d3FaU0/4VzrNpnOWds2dGsHgcrJQ2waXkdNf5WJy4CPXX7D4D18676XAV63s/xCgi4rCsZbb6MOnDwToo+qYakFlYa9l8+4Aog4wNDS0DkDORi3+BJ+IiOogsBMAjlmo0VHi8fg6S6UYABK1qUafAbh9efhXOmTqXxXDP/UKBD0jLa/wr7RwHZtPtGtw6Rf+TdfgMlp/F8G793h2mzf+8boL/ljLhbqy/71QvXzTCZ+gqzAQi2SjD48+fIPKkj4aDioLx5TVYABInUIBrLVUiwEgERHVpK+vbwYa/h6yOhEZDbtGpxkfH7fyORMRGwEwEYWg7mcA9qZv6X4RuukP/1ROUBrwBAj/Sq8rfqP4RNXwz6tElYCpnYNLr2rTNbiMjDys0C/v+ezW3xoePiv3SA1XqqYdPLPqGqi+r+Bk4Qjv100N0+A/zjf8C7PXOvqAbq6PnjBLDvhZ4BWXRC3sZQBbWaizrYUaRETUQXp6enrGxsJfnGeMYQBYo1wutzEeb+gR/4EYY7gCkKhN1f1/iHXds+dMHXh9c+790vso1OfPFYz26ZPB5aaBbRtcWidPQfEdjcmNj34t9WcAeLTGGVTTcYw8cwNEFuZPFL7r/Xo6b/RRrY8ZM7YD8ASI2t+4pTrdvb29seHhYSu3HBMRUfvbuHFjj+OEvgCQKwDrEIvFbH3OGAAStam6A0AjzhwBCr5H90r8SiKekvCinvCv0rnQds31O2Jw6VPCdnAZLgU2COTv/5+9O4+ToyrXB/681TNZ0CwgIktyEZFFEnDBFVxQwRXBbaKIaMhUDwGNGMHt6u/a6vWKoqJyxdDLMAYRddwRUeFKgIRFjYLsq4RMQtizTybTXe/vj5lMeqnqru6uc6q75/l+PoHu6tPnfdPpZKafOVUH8O6AYIUD79p/XPSxB5qac4N7ENY/+nOIvHzsQL3hX71B2fj9KMK/pnoN228DvSac2SDqDNaue7TnnntOxdiKQyIioppExFb4w2sA1mnnzp0jU6dONV6HpwATta+GA0AHiRm7thm3uflEUHhldPOJdg0uFVuheh9EHgZ0k6puEkfG/i9SeqqkN7YARMobEMArvl8oH+FVPmf8SGHiZqF4uD/Z/bzdTykd7JUONke9bSK6RVU2A3j4tn0fewSpVFDn9U+/Nvl25J1LATwnOOgqul8rKItqTK0+AAtBZdCYMP16s0DUGax96EkkEgwAiYgoNM/zpiQSCRt1bK2G7xiJRMLKin4RMZ8yEpERDQeAot4UFakM/0Ks5Kor/Ct/nk9YFi78q5yyw4LLYRGsVNWrAeefBc+592/fOWVtZaMUF/17Xzf2k89D8V8AEpGEaRM3I1xJ1+iYWINKBaAMAKlTWAsAh4eH+U08ERGF5jiOldNMHccxfzG7DuM4TrelUjss1SGiiDV+CrDjdGt5EBYi/IPP3V0HfcO/4Hys9E7N8K909g4JLh+HyE88D39wvK6VN16wYNjnWdQCdH3fa6GyDIp5YwfiWknns6quZrBnolefcc2GkJ7DAJA6hbVVD+MrAImIiEIREVvhj60wq2OIiJXXzPM8BoBEbarhAFALhW44Radihgz/Ajef8Fs+V5GPadlTG9h8onyKOnpvkeByOxS/VGD5zc++/y9RnppK0dOhjz0HUjgPnvYCEG700eCYWn0AgHi8Hgl1BFUdFTF8qYNxjuMwACQiotAcx9nheeY/ftgKszqJrdfMYghMRBFrPADski7Z9W9/2PAPlcf8D4UJ//xKVFk2VzKFlj3cFsHlsKrk8p58k6f2tj59uG8/dEkKyH8UirEP2Nzoo/4+6hkjYJBBHUFspX/gdXyIiKg+XV1dO3buNH8WsOd5U4wX6TCFQsHK9RlFhGedEbWpxq+t4I3v7FCepVW7x11zA0oEB5cKbHNUf7gT3d/+27cWbPAZSC1EH13yXOTzH4d4ZwMYPyU1KMQquh/FKrkwY2r1AVgIKoPGhO03oA9V/qSYOoXN9zL/3hARUWj77LPPjqGhIeN1uAKwfhZfM64AJGpTDQeACZWCN/FBPKpdc1GZB/iEY8Z2zQ26F1twqZfmtfszfzufwV8r07VLp0O29wByGgqjb4Kos/vBCMK0iZuWVtI100dUY2r2Cr/XjSuZqFPYXPVgbcMRIiJqf6lUKu+6bgGA6aVm/L6ufrwGIBFV1XAAmAfyYymH3/K2sruhw7+S6AylYcGum37hn5Y9vTLd89k1t/xoKwWX9wr0zFXfPPXaypHUCvSJRTOwc+ob4ekJkOH3ArJ/iICq8nZHb/TRQB/N9Kqe+XMeiOywtuqB1/EhIqIG7ADwLMM1Zhuev+N0dXVNsXF9RnAFIFHbajgAFGi+LKarCADqCtDKn1ftTtXwz294lQer3Y0huBTVn0B2LF71zd4tPk1TDPSpJTOxs3AYVA6H5x0O0ddiRF4DaDcmrtTVTJgWMK7pVXL1jmmwj6jG1OoDqP7ainAlE3UKawHgzp07+U08ERHVazPMB4B7Gp6/E82yVGeTpTpEFLHGA0BHt8ILDv/gc3fXQd/wryIfqwwEKkv4hX+ls1dUK5qklYJLBbYJ5MxV53/o0srCjdFnPjkbo4n5UMyH4kCodEF0JgRTADH9RdsCr+h/vm+23WP83p/lY3YNVMwAMAvQ2RDMxo7CfmPHd/1hSdlcNlfSlb+XDKykCzWmjn4jDyoD+vAkD6LOYPMUYAaARERUr3UA9jNZQEQYANapUCjsaWMfMcdx1hkvQkRGNBwAFpDY4ozvA+IXrtjaNbdirqApyvpsseByjQO8f9U3T/m7X+WwdN2n5sKRNwHyJoi+ASM4sGSABAU27cZiQKUhxlSdp44+ohpTqw/AclBZpY8og0pRrgCkTmEtANy5c+eIrVpERNQxHjVdQFUZANbJVmgqIutt1CGi6DV+DcAdXZunTCn4h3+oPOZ/KEyA5leiaLRfeKA+PYQM/2IILm/W0cQ7b7xgwdPlD4Sh61N7QLb0AHAheG1AjQ5iIqCqMS6qgKrmmCb7iGpMrEFl+V/+OmrwFGDqDAKL1z3iKcBERFQvEVmvvtdfio6q8hqAdRKRPU3/uQDAjh07GAAStamGA0AAWzH2Kb5knfHY53G/8M/GrrnFU5QHGmU3WyO4vGHKzh0nrfju6Rsri1anG87dB4pPQ7YkYe96DzFq04AqzJime42oj6Z7Hb8fX6jK62ZS2zvttNP2gL1rABYGBwd3WqpFREQdQlWNrwAUkeeartFpLIWmI8uXL29o4QoRxc9p9IkrUm/Mi+Kp4mPhwz9U5gY+wVsdu+aW3fQ/5hf3ldyzG1xeqaOJt9Yb/un6c/bWR8/5FqAPQfRcTLrwT4vu+9zW8jGovD3xcJMBlVbpo2JMwFxh+qg5pkYfCNlH00GlFo2p0oeZ8A9QbAZRm+vq6trLYrknLNYiIqIOYekU0AMt1Ogolk6bXgffT+dE1A4aDgABQFUnLgBaX/hXEp2hNGDYddMv/NOyp1cGfUE7/vpMU3rXYnApwB9HNm5+z00XLBj2adaXak9CN5xzNhw8AME5ML/zVotoNqDyCQhjCahqBZVBvVapETqorNLHRK+1wswQfYQZU61GYJhZNFe194EWuCMZtb3u7m6bpzxtsFiLiIg6h/EVgAD2T6VSTX1WnWwcx7HxQ0Qbf/ZEZEgzpwADYz8BeHFdAVrRkeBQLkz45zfcN9mreiyG4PLGHXs8+32rv3lK6OuV6eNLX4gNziW7r/E3GYQJ3Iru1xU+RT2mjj6iGlOrD6DBoDKKXsP2G3WvCa4ApLZnawe/cQwAiYioEUMWanQ/8sgj+wLg9ebCm2O6gKquNV2DiMxp8qcqMrYC0C+Uq4zjUBwEqM+xkufVDP9KZ68W/qnPsd13rQaXDxa69L2rU+/aXlnUnz567gJ4zj8Z/pUd37VCbGJFmN/KsaIxQSvKdt0OE1AFjtHdY6r1UTEmoI+Gw8yiejVPTwbMhH8+fVS8/mWvQVSnJydGHwNR+7N5CvDjFmsREVGHGB0dvQdA3nQdx3H+w3SNTqKqzzddQ0TuMF2DiMxpLgAUXVcWsY1rdNdcnzzBN13Ukpt+pWqFf4FTGwouFdgmoiff8j8fChVSqEL00XO/AtGfAnh2mOe0vzYNqMKM8f39lNUL00dg+FfnmGpBpVYbg6IxVWpUDSqLe63SR9Vei+Ya68PDlk0MM6jtiYjNDztcVUFERHUbGBjYAeBB03Usf01sa+OnSx9goRQDQKI21twpwIIheD4pWsPhX2WoNnHLL0yYGK5lT6kd/lU8b1cHDfdePl35AE2u+uaH7iyf3Y9qXzcem/EjiJ4SZnxnqDNM8/mzK7ldK3wKG1BV66NiTNh+DfRa5e9O6D6iGlOrD6CB17ZmH0/Ky1eHPq2eqFWJyFz1vdaFEVw1S0REjbodwGEmC6jqESbn7yQbNmzYD8AU03W6urpuM12DiMxpagVgoeCtqzhobtdclIYD1Y6FCP98T/31ORBJcKmX3HT+hy6vLOjTwtql0/HYjF8DmHzhn6KB8E+L7o/f1oDju25zo4+AMSH6qCvMrPL61+qj/vcBL0hMHUFV51osx783RETUEFW93UKZIy3U6AiFQuFAC2U2Llu2bI2FOkRkSHMrAB1nfckHdUO75lY8ODHcP/HziftK74W67l9kweWQYPjsyoJ+LfQk8JhcDuCdYca3vzCBW9H9usKnqMfU0UdUY2r1ATQYVEbRa9h+I+61YszEY4+AqDPY+AYeAOB53j22ahERUWdxHOdOCyvWuQIwJEs/QLwLvp/YiahdNLUCcJpT2L0LUKiNMyqDvhC75pY/ofR5AfUC74be8bfmgZDBJZau+mbvlsoR5eNTDh6buxyQk2uN7QxhQx8tWhFWZeWYlh/3mStMQBU4RnePqdZHxZiAPhoOM4vqhbl+XrPhX2CvZX1UvP5lr0FUG30Er7p8AESdwdb1jgqe591rqRYREXUYx3H+ZaHMIUuXLp1uoU4nONxCDZ7+S9TmmgoAr/z8ic8AeDQw/AvO9krvVA3//Ib7JnulU5WFFnWFfxEFl6p6xY3fPOUXlUV9PL7li4B8KNTYtlYcUKH5gCpwTMQBVZgx1QMq7P47UaOPwPCvzjG1+giz0Ue1GmHGRLvRR3AfwEMganN9fX17ANjXUrl/j1/EnYiIqG5PP/30QwC2GS6T2Lx5s41gq+2JyDwLNWyEvkRkUHO7AAMAvLvChX9a+pkd1XfNLT9W9qyyh6uHfz7TYFchg8HlCBKFT/lUray44VMnQpEKM7a9lQdUVYKhsAFVrWAoqoDKd0zRXGH6qDmmRh8lYwLmmnjdaoypGqZp0ZgqfYR5bav1UXNMrfdBSa/3g6jNFQqF+Yjk63IooTalIiIi8jM4OFgAcIPpOo7jvMZ0jU7ged5LLJT5i4UaRGRQ0x801HPKLgAbJvzzy+h8Ezq/aX0nqRb+qV8gWBklhuw9XHAp0B/edN5pNU9L1EeXPBeQNACpNba9TfaAqsbvKUyvJWN86nX+Rh/BY6RwH4ja31EWazEAJCKiZhkPhFSVAWANp5122rNE5GDDZdZmMhl+v03U5prbBASAQO/0C8uqh3+VYdzELb8gZGIKLXtKiPCv/Hm7OvBLE0P1Xj5dZYwI6PBO7fqGzwOVZEoawH6hxralMGFa0f26wqeox9TRR1RjavUBRBBUNtpr2H4j7rViTM0+NuGw6x8GUZsTEZu7Hd5tsRYREXUmGyvCGADWMG3atCNU1egZBKr6fybnJyI7mv6HwoM3voqgzvDPJzertumH/7EQ4Z/vdf98DkQaXGrmb+cv2FBZuOzZj53zXgDvrjWufYUNfcZfa270UVmvbTb6CNmHkesoereJ+P2LQtR25tsqJCL/tFWLiIg606ZNm24FsNFwmRcsXrx4H8M12pqqGv/+QUSuNV2DiMxrOgAsePmxVQR+oVrFEb/wb+xO6B1/i8b5xH2l90Jt+lFn+Oc/ZXHVvCPd364cVfacx896NhTfrTWuPRUHVGg+oAocU09AFbIPbvRR/5imTk8umqvW+0ADxghuBVH7E9g7BfipTCZzl6VaxhUKhQ6/hAYRUWsaHBwsqOr1hsvI6OjoMYZrtLtXmy7Q1dXFFYBEHaDpAHBF6j0bAazddV+L/lua24UJ/yoeqoj5fCbxvxt2x9+Ig0uF/G7lNxY84tN0KW/a2QDm1hzXdsoDKr/Qp86AKkww5He8uA8bO9GG6rVGH4FjyvrgdRR33/ac20DU5pLJ5BEA9rZU7jr4fbFrUyKyR9w9EBFNVo7jXGO6hoi83XSNdqaqbzQ5v4jctWzZsnUmaxCRHZFcK0DUuwPwzcdK79QM/0o/jzSy429d4V/58xoOLoufULiksnhZ1Sc+MwOQUDsEtxcGVDUDwlp9BI7R3WOq9THx1Bp9hBlTrUaYMDOS90HxmIB6CawCUft7g8VaxndttIwBIBFRfP5kocbb0fEbJjZm4cKF+4rIC03W8DzvjybnJyJ7IgkAPZW7SqK0srCs4jN+rfBPGwv/yqfZfSzsjr8Bd2r2PuGxnZu21f4imPcWA9ir5ri20U4BVdFctgIq39OTy+aKaqOP2K+jWNxrrfdBiD5qvw+ewGHXckcyanuqai0AdBzH9OlaVqnqs+LugYhoshrfGfbvhsvMdV33ZYZrtKXu7u7jYDgcdRznUpPzE5E9Ee0WpH8b/79/HhecsFUeq5widPinfoFgZZRYUkR9jpU8r2b4V3LnstXpM0YrypX02JOAo5+oNqa9tFtA5Rc+GQ2oqvcRGFSW9THpN/oI6hV/4wYg1AEEwOst1dr4zDPPdNRp8yKyZ9w9EBFNcj+1UONECzXajoUfIN6ZyWR4vW2iDhFJAJhIFG70D/8qw7iJW37ByMQUWvaUEOFf+fN8pi8rUiX88yvhlzGU9enhSp9BpZ6YcwIUc2qOa3nFARWaD6gCx9QTUIXsgxt91D8m7o0+gnvl6b/U9vr6+g4DsK+lcjcMDg4WLNWyQkQOjrsHIqLJTFV/Af8PS1FiAOjvOJOTq+rPTc5PRHZFEgD++YvvXgtFyYVB69g1t+ym3zH/uK/knokdf33qBQeXun3WyOzaYYTnnF5zTMsrD6j8Qp86A6r6Qh//PrjRR9ltLRpTpY+KMWVztfJ1FD35M4janOd5PbZqqeqgrVoWHRR3A0REk1kul1sD89eXfXlfX9+Rhmu0Fdd1jwJwuMESqqo/Njg/EVkW0SnAAICbd92of+OMsueVPFwWx5UFfY2Ef9WONR5cYuVVF75jpPJZRUOf+MwMQNv8p1dxBVRV5mrlgMqvj8AxuntMtT4mnlqjjzBjqvURJsyM5H1QPKbW+6Dk+DOY/9x/gqjNicj7LJXaWSgUrrBUyyYGgEREMROVL0wTAAAgAElEQVSRn5muoaofNl2jnaiq6R8g3tzf3/+Q4RpEZFF0AaDgr2M3woR/FQ+Vx3ylD1a7G3bH34rMrvJ5TQWXoisqGylTyL8RkDbdrTDugKpKMFSrj/gCqtK5JttGHxW9BvRR1/ug+LZcI9JZpzLS5NPX13e4qr7YUrlrBgYGNlqqNUFVhw3P/4pUKhXlDzSJiKhOqvpLAFWvhR5BjVP47/1ujuO81+T8InK5yfmJyL7I/gEVDzdORGg1w7/S8K2RHX/rCv/Kn+cT9IUL/yqn3P08J8RKJDmu9phW1KEBVcWYgD4aDqiKew3RR6dt9FGtD9/3QVCvATWA/wNRm1PVk23VEpHf2KpVZovh+fdct27diwzXICKiKrLZ7GMATF9mYu7Q0NBxhmu0hWQyOU9VjzBYYmOhUBgwOD8RxSCyAHDbzOHVCuysK/zT0o/1ux+uHv6VT1N80Df8C872Su/U03tZNfH0br+Oyrw5xJgWEnFAFTimnoAK0QVUtjb6qNaH7xifPib1Rh++AaEHbySuMIMoEqlUylFV11K5/MjIyK8s1SpnOgAEgNdZqEFERNV9x0KNj1uo0fJU9RST84tIur+/38bXbyKyKLIA8KZPLRiG4rbdR/wSOr/wT8serh3+qV8gCPVZqecX/pWnjg2sWiyfAth247c/9Eh59ZJnr106HcD8amNai4GAqq7QJ6APbvRRdluLxlTpo2JM2VxWr6NYpY/wQeXf5chbHgNRG1u3bt0JAF5oo5aqXr18+fKnbNQq19XVtdV0Dc/zjjddg4iIqstms6th/gyNd7uuO6lXfS9dunQ6gDMMltiRSCS+bXB+IopJpNdQUGjpdQBRnBlEFP6VP89n+rIiVcI/vxI+c9fu/X5A/J642xQ5FBG/3ubEFVBVmYsbffj3EWZMtT4Cg8qyPlpv9WdcK5mIIqOqSy2W+77FWiUcx3nSdA0Recepp54603QdomKqmoi7B6JWo6oXGC4hAD5puEZL27x586kA9jZY4rJly5Y9bnB+IopJpIGUU7QTMBAc/gUf84/7Su7VueNv9fCvfK6i0QF9+oR/UHjrK5sq4+HQmmNiF3dAVSUgrNXHpN/oo6yPquFfUR9hxtTqI47VnyKduJMpTSLjqxfeYqncvblc7k+WalX44Q9/+AyADYbLTJ8+fbqt3ZSpvYwYnHuawbmJ2lIul/sDgDCXRmrGRxcuXLiv4RqtSkTEZADqeZ53vsH5iShGkQaABXRds+tTes1dcyseLovjyoK+8OFfacmAA/Df9KO8tH+f5cdEZFPlLGVEDqk5JlamAyqfuWwEVBVjAvqIOqAK6sPYRh/FY2oFhCH7aNXVnyK3y7wb7gJRe/s0xlYx2JCB71c7q+4xXUBETjNdg9qPqm43OP10g3MTtSsFcKHhGlO7urrONlyjJfX29r4OwDxT86vqn/r7++81NT8RxSvSAHBF6p0bAL0z1K65fg9Wuxs6/Nt9REsLFx33C/+07Onhg0tAa18gVeU5NcfEwlZA5Rf6WAiomtroo8GAKtQYnz640Uflbb9Q1dPlIGpjvb29LwXwUUvltjqOk7VUq5o7TRdQ1Te6rnuc6TrUdkwGgM82ODdR29q0aVMa5v/d/2RfX99/GK7RakREzjM4fyGRSHzW4PxEFLPIr0nnqVyz+15pPFcR1xUFBOpzbPfdkOFf+fOq3aka/vkNr/rgZp8HS4k3o+YY6xhQGQmoyvvgRh+Vt+t+H4wTFNCNn4CojYnIl2HvmrA/TafTtVepm2c8ABz3BUt1qE2IyDaD0+9x5pln7mlwfqK2NDg4WID5f4+neZ73X4ZrtJTe3t6TAbzGYInL0+n07QbnJ6KYRf8BRGR856fiD/PlUSCKQoLg8K98muKDvuFfRbZXXriBHX/9qlX07gz7dVlKWiwAjCugqjIXN/rw7yPMmGp9BAaVZX203kYfZXMBUFwnh6+qfc1NohbV29v7egDvslRup+d5X7dUqyqZ+N7AuONd1z3BUi1qD0a/ZoyMjEy2FUhEoWSz2d+KyLWGy5ze19f3KsM1WkJPT88UETF5bb5hVf2iwfmJqAVEHgBOf6rrakB3r4ibyCdKA8Ew4Z/6BYJQn5V6zYV/FXMFTRHQu6e+awfLnzi19hgb4g6oqgSEtfrgRh+VNQLDvzrH1Oojjo0+/P9+/tTnIFFbOPXUU2eKyIDFkhf19/c/ZLFeoEwmc5+q3m+pXHbRokUt9kM3itG/TU6eSCReYHJ+ojb3KQCewfkdz/N+0NPT0/E7cs+ePfvjAF5osMTXc7ncGoPzE1ELiDwAvOrCd4xAcBUA/w/8fjf9wr/ywT7PnzhQM/zzK1E0OqDPih58wr+xGya/rkXJdEDlM5eNgKpiTEAfxgKqsj5sbfRRrQ+E7KPlV38WEQxjauFn/g8Stb7p06d/F8BBNmqJyGbHcb5mo1ZYIvJnS6X+w3GcL1mqRS3OcZwHTM6vqi83OT9RO8tkMreKSMZwmaNnzZr1n4ZrxMp13Rep6lcNlrh706ZN3zA4PxG1CCPXIFIPv96dH/gnfn5xX8m9UNf9Cxv+lc/VaPhXdrMyVWxRtgIqv9DHQkDVERt9FPdapUbooLJKHxO9+vVRNFfD74OgXmu9D8r7KKP4gxxyS+3rbVLLU9X9J8NP64slk8kTASy0VU9VL0yn00/aqhfSHyzWWtrb22vrVOuWNP6e2zfuPuKWTqefFBGTXzteZnBuorY3ft3bpw2X+UJvb+98wzVi0dfX1w3gRwD2MFRCAZw9ODi409D8RNRCjASA050pVwHYHrRxhpbeRcXd0Dv+1jwA/x1/J6asfF6NY6XTtEv4t+tmMwEVdo8pn3fSBlRFfcR2enLZXJ2w0UcQ5eYfnUJE3jdr1qy/JpPJY+LuxYa+vr7DVXUAgFgq+bTjOCavE9SQOXPm/BGGT8cs4ojIz3p7e19pqV7LWLx48fNd171SVa8Ad6kFAKjq3wxOf+zChQunGZyfqK2l0+lHVXWJ4TJTReTys846q+P+zVPVLwN4hcESuWw2e7XB+YmohRgJAK9KvWMz4JWeqlcRgFQeqy/8K3ueT9DnH/5p2dMrg75wwWUbhX+RBFR+oc9kDaiK5uVGH/59VH2vVOsj0MO4e//fhhlIbeNlqrrSdd0fLVy4sGNXKfX19e1XKBSuAvAci2W/2CI7/5ZIpVKeqpo+FazYdBH5ueu6Vk67jlsqlXKSyeRZ+Xz+VgDviLufFnOdwblndHV1vdXg/ERtL5fL/UREBg2Xmb9z586s4RpWua57gqp+1mCJtcPDw+cYnJ+IWoyRABAAPHUumbhTFBioz7Hdd0OGf+XPq3anavjnN1x9jvsda2UMqMwFVHWMmfj9VPl9h+kj8LWtc0ytPlpmow8fiowsGCyEG0xtRAB8pKur655kMvmpJUuWtMhmSdE49dRTZ3qe9wcReb7FsjfMmTPnYov16uJ5XhbAiMWSBwJY2amnhu2STCaPGRoauklVfwBgVtz9tKBVhufvMTw/UdsTkbMAbDBc5gO9vb3/ZbiGFa7rHg3glzD3ed0DsPCyyy7j5XWIJhFjAeB1Xz15JYAHw4R/8Lm766Bv+FeR7WnZ84N3/FWfY4HVQvTeelmg6YDKZ65YAqqAPowFVEW3udGHfx+h/oz9xtS0A6OOzVVDZN8sVf328PDw2mQy+dlOOJ3u9NNPnzt9+vQbAbzEYtltXV1dH0mlUi27M9Ull1zyhIhcZrns/iJyneu6r7Nc17jx031/pqorAUy6053DchznZgDbDJbo6eSVzERRSKfTT6pqn+k6IpJKJpMLTdcxKZlMHoqx6+Ya29FeRL6RzWb/Ymp+ImpNxgJAQBSeXhAm/CsbMXG0cqVemPDPr4Rf2KAlN/1Khem9dRJAWwGVX+gTR0DlExAaC6iqjfHpo+U3+igeE6KPMGOq1Sh5HxQfD0nxS3nZDU/U9yRqU89V1fO6urruc123L5VKdcXdUCNc1z0qkUjcDGCezbqqmlq2bNnDNms2QlW/BGC75bJ7AfiL67rnwN61GI3p7e3dq7e397x8Pn83gAXogN+TSel0ejsAk5eRmNLV1fVxg/MTdYRcLneFiPQbLiOqmkkmkx80XMeIvr6+//A8708A9jFY5iYR+ZLB+YmoRRkMAIEZXd2XAHiiZvjne+qvz4FQ4V/5saLRfqHKxHAte0rt8K/iebGJKqACSl/TuAKqorliD6iK+uiYjT5Q9PsJ6AMh+mjofdAI76IGn0jtay6Ai4eGhm51XfcjPT09U+JuKKxkMnk8gKsB7G+zrojclkgkvmezZqOy2ewQgDg2KekC8C3XdX+9ePFikx+sjDn99NPnJpPJ74jIGhH5LIC2Xy1ri4gsN1ziXNd1X2S4BlHb27FjxycA3GG4TJeqXuq67ocN14lUb2/vsZ7n/dXwpUMeB7AgnU6PGqxBRC3KaAB4Repd2yFa9OE9bPjns9tu2PCvssKuKSt7qHosRPjXEhuBRBlQ+YU+cQRUWvT7iSugKpo31Eq6EH3Uev1r9REYVBb3AUQbVFbpo+p7pVofdRCsliNvurGxJ1MHmAfgR7Nmzfr3+KnBs+NuKMiiRYtmJJPJZar6Z5j9qb2f7SJyWjt9Mz8yMnI+gHUxlT85n8/fPb7K1Oj3QVHp7e2d39vbe0kikXhAVZeCu/vW7YADDvg/jH3wNWUqgAvb5T1FFJdLL710m6qeCOApw6W6AFzquu7FfX193YZrNS2ZTH5WRFYAeJ7BMiMATh7/QRwRTULGv0kpjBZ+AGBLZViHkOEffLKDyuf57/g7MWXl8yaG+yd+PnFf6b3Yw796Ayqg9PfBgCralXQBffgGlT59BL62dY6p9j7QamNQNKZKjarvg+Jeg2rUSbGs8SdTB9l//NTgta7rfn/RokUvjruhIuK67ntF5F+qegZiOBVTVZek0+nbbddtxvgHwDhPmdwLwMVr1669MZlMvh0teAptX19fdzKZXOC67goRuV1EFgJom9WwrSaVSuUBfMtwmTcPDQ1923ANoraXy+XWiEgSYxtRmNbned6VruuaDNYatnDhwtmu62ZU9TyMhZYmfSabzd5suAYRtTDjAeANX1/wBFS+XhwC1BX+lT/PJ+jzD/9015QV8/iGfz71Au+2RPi362bYgKpGMFQtoAod+oQY09IBVdFtbvTh30eoP2O/MQ25D3ftf0mzk1BHeTaAJY7j3Oq67m2u656zaNEiq6fa7pJKpZxkMvk+13VvBfBLyzv9TlDVgVwuZ/p6SkbkcrnfqGqsp/iLyKtU9Q+u696aTCZPbYWdqF3XPaq3t/ernuetUdWfAXhD3D11Cs/zlgF42nCZTyaTybMM1yBqe5lM5tcAzrFU7gQAtyWTyZMs1Qult7e3p6ur6y4ArulaIvKtbDb7fdN1iKi1WbnA+s5to9+d8qzEmRi7rpN/LhAU/gVne6V3qoZ/fsN9k73SqcpCk8Dwz7O14WJQ0FL2WD0BVdBzGxrTYB9RjanVB1A7KAszJnSvYfs12GuYfiN/HzQd/I0R/bosGCxEMxl1oKMAfMtxnG+4rnstgCtF5A+ZTOY+k0UXL158wOjo6KlDQ0MLAcR9va+bCoXCmTH30JRCoXBOd3f3saoa96rOo1T1x8PDw993XfdyEflRJpP5m43CqVSqa926dccCOFlV3w3gIJGWW5DYEfr7+7ckk8kLVPWrJuuo6g+SyeRemUzmv03WIWp32Wz2u8lk8gBVPddCueep6m97e3t/19XVde7FF198v4WavlzXPRpACsCJNuqJyKWZTOYzNmoRUWuzEgDedMGC4df/v1+kRCWnFWHE2P1w4V9lyFM5nV/4Vzp7I+GfzzTYVchO/BdVQDV+P/aAKmy/NgKquILKgD4Ay0FllT6aeh805UEMj1wW1WTU0RIAjgdwvKpe4LruA6p6pYis9DzvH/39/Q81M3kqlepau3btkY7jvAZj1457s4gkIum8OWsAvGdgYGBH3I00Y2BgYEdfX98HAdyiqjPj7gdjpwZ/TFU/5rruegB/AfCXRCKxcr/99nswlUo1/SV/0aJFM0TklSLyWgCvGxoaejWAZzU7L4UjIt9R1dMBvMBkHVX9quu6b3Qc52PpdPoek7WI2lkmk/mM67rPBfBRG/VE5KRCofBO13UvB3B+Npv9l426PT09iVmzZp0M4JMAXmej5rjfikgvIvwmnYjal5UAEACu/+r7+1//hV8uAPStpY+oz6K6MOGfX3bhm9D5Tes7SbXwL3xwaQIDqsA+jAeVQWMa6MNI8BowznqoWv5Ys2SpvHx122xoQC3lhSJyNoCzHceB67obAfxDVW8HsF5ENqjq4yLyhM9z9wBwoIgcAGCOqs4fGhp6hYg8S2O/9EOJp1X1xFwu91jcjUQhnU7f47ruyQCuQmvtars/gA8D+HChUMDQ0NCw67p3i8idqvrw+HvoMc/zNojItuInep43xXGcPUVkT1WdraqHiMgRAA7HrrMhKBbpdHq767qLAfzZQrk3eZ73L9d1s47jfDWdTj9qoSZRu9FNmzb1zpo1axqAD1iqmcD4v++u696oqjkAv8nlcpFeIqCnpycxc+bMYwGcLCLvA3BglPPXIiJXbty4ccHg4CC/pyYiABYDwPFiZ+THtn3fvXtdw+FfcAgSdN0/9TkWKvzzbdQvuIxavQFVlcesBlQ1nh/VmJq9wlAIWe+YEH1ENaZWH0ZCyKj/IsifZP7KKyKelCav2QDeJCJv2nWg1umVLRb2ldvoed6b+vv774i7kShls9kVvb29p4jILzD2wawVTQfwMlV9GbD7feL3fnKcsUssVxvT7kSkpf+iVJPNZq9OJpOXquppFsp1AzjT87xe13V/r6oDe+yxx58vvPDCEQu1idrC4OBgoa+v7zRVnTp+KQSbjhGRYwAsSyaT16rq9SKycmRk5I7ly5fXtVNxX1/ffoVC4QgRmQfgaADvALC3iaZD+NPo6Oj7BwcHd8ZUn4hakNUA8C9fe9+a13/xF1+E4rsAUHndvzrDP59vPatt+uF/LET457thSeWhaEUV+jCgaizEiiqErHdMwDjroWqVcUbDP+QBfDbqSYk6xLDneR/o7++/Le5GTMjlcr/p7e3tE5EsWnBXXiqlqvm4e2hGoVD4mOM4LwFwpKWSUwC8V0TeOzw8vMV13T+IyPWFQuGvXV1dt6XTaa7QoUktnU6PplKpnnXr1l2sqotiaKFbVd8C4C2qiilTpsB13Y0iskZVHwfwBICtReP3UNWZIjITwEwAz/c8b68W+YHPjzdt2tTL8I+IylkNAAHg+v9+//de/4VfvgLqnVoRHdQ+EBD+jd0JveNv0TifuK/0XujdiqMSFLSUPcaAKngcN/qov4+mxkRI9L9l3qqODDeImvS0iLytv7/fysYUccnlcv3JZPIZVb0MYyvuqEWJSFtv0tTf37+lt7f3XSLyVwD7WC4/A8AHVPUDjuPA87xR13XvBXAXgPtF5DEA6z3P26Cqj86aNevRCy64YNhyj0TWpVKpPIDeZDL5L1W9APH/MGi2qs4OerBFwr5iKiJLM5nM9+JuhIhakxNHUa+wY4lCHi49qmW3KoO+cOFf5ZT+cZ3Wvtsy4Z8WPTZ+W3eN0epjyudtJKAqGeNTL7CPornCBFR1hVgBv28N0UekKyqr9FExpmyuqILKUO+DKn009D4wQPUfeHzK18xMTi3mKRh7I3Wkpz3PO9HWrrRxy2QyvwbwJgBPxt0LBRORtl4BCAC5XG6N53nvRumqnjh0A5gPYAGAL6jq91X1FyKy0nGcB7ds2bJ9fNdQoklhPMD6CIDtcffSRraJyGkM/4iomlgCwJXnnfqMOPl3ABi/0KqW5BkT/O7UDP9KP1M2suNvfeFfVJ9hOzGg0qLfT1wBVdG8tfqoGBPQR63Xv1YfgUFlWR/Nvg8Ce631PgjqtXyuSO1AIpGUN65o+w+UFMpPALxCVVfG3UirE5G7ALy8v7//prh7sSmbzd4M4M0A1sXdCwVq6xWAu4z/3ToOYz+YIKIWkc1mfywiL8XY9eOpun8lEomXZjKZy+JuhIhaWywBIABc/98fvNtRvBvQHZXZnpblDFqZY9QK/7Sx8K98mt3HAsK/pvOQegOq8gbjCqiAaIPKKn1UDahC9tHQmLJ6YfoIfG3rHFOrj1qrLmvVCDMmcPWnCbJIjrjhHwYLUIvJZrOr586d+wZVTQJ4PO5+WpGIXDsyMvL6bDb777h7iUM2m/3Xzp07XwzgD3H30oYUwO9F5ARVvchEAc/zOiIABMb+PRKR48FVp0QtJZPJ3Oc4zmsx9oND8pedMmXKsRdffPH9cTdCRK0vtgAQAK77es8N6ukiAPng8M8vo/NN6EpuVowIGf6pXyBYGSUGFKlXIyFWlWDOakBVo48wAVWtgDBUr1X6qNpr0Vxh+qg5pkYfgWPK+mg6VK31PtA6/oz9xhggWCbzV15utgi1olQq5eVyuazjOIcC+DYAXqx6TEFEvrJx48YT6t2BsNMsX778qWw2e6KIfBIAN0mo7WlV/UYikTgsm82+K5PJXGPqWn2dcApwsUwmc6uIHAfgnrh7IaLd0un0pmw2e6qIvAPAhrj7aSFDInJCNptNXnTRRXFfxoCI2kSsASAArDzvA5eL4q0ANvuHf5Vh3MQtvxBjYgote0qI8K/8eT7TlxVpMBopC6iMnepZPKaegKpKHy0fUIUdo0W/nyqvTa0+QgeVVfqY6LXGn1Ek7wOf2qGDSgMEORyx6iyzRajVjX9zf67jOIcASGNyBz1rPM87IZPJfGlwcLBjVlg1ScevafROAENxN9OibgewNJ/PH5zL5T5nYyVIu28C4ieTydyZz+dfCuD7cfdCRKUymcxVnucdrao/jbuXmHkA0jt37nxJJpO5Ju5miKi9xB4AAsD15y34Czy8U7T0+iv+m36MHwoI/4KP+cd9JfdCXffPL/zzKp8XqFpA5RM+tfxGH60SUJX10THXUUTR76fW+6BKH00FlYaIXAlsPEvERjFqB+l0+pFsNntGV1fXHFX9BoAdcfdkUUFVvzFjxowX9ff3Xxt3M60om81ePWPGjEPH3xsdFz414N8Avux53uHZbPaobDb73YGBgY22infSKcDFBgYGdmSz2bNVdSGAJ+Luh4h26+/vX5/L5U4RkRMwCVfrquotnue9KpvNnjHZzxAgosa0RAAIACu/sWBlId99hAJ/AYLCv7E71cI/9TlWdrQi6Gsk/Cs5Fjr/Y0BlJqAq77VWQBiij1qvf2AfZa9/rT4m10YfuwmW4c79TpZ5d/KUT6qwbNmyx3O53OdU9UgR6UeHB4GqeouIvD6Xy33uggsuGI67n1Z2wQUXDOdyuc8BOB7AvXH3E4NtIjKoqic5jnNYNptN9ff3x/I6dNopwOVyudyPRkZGDgLwZfDyBEQtJZPJXDNnzpx5qroAwENx92PBP0XkhFwu9+r+/v6/x90MEbWvlgkAAeDGb7338ZnbZrxDoP+LytRu7L9+2YRf+Ff+YLW7YXf8rcgWGwhK2iqgAqINKqv0UTWgCtkHN/qof4zVjT4mynwdR6w6Sxbw9EaqLpfLPZDJZHodx5kL4PMAHom7pyip6v0APpTL5V6TyWRujLufdpLNZlfMmTPniPEPf50eBN6tqt9wHOd1mzZtmpXJZBbkcrkr0ul03KfKb4+5vnGXXnrptmw2m3Ic5zUAfoH6TvkgIoPGryM86DjOkar6aQBr4u7JgH8BWDRnzpxX8nRfIopCV9wNlLvqwneMAFjyms9d3u9ALgbwCv/wrzSoaGTH37rCv/LnlYRbIRkL0+qoEdWYWn1EGVA13GvYfiPqNXBMHX1ENaZWH0CN182IByByusxfudJGMeoc6XT6SQDn9fT0nD979uyTVPXjAI5Di/0Qqw53A/ifzZs3X87r/DUulUp5AAZ7enp+O3v2bFdVPwXg4Lj7isBOVf0rgKsTicTv0+n0P9HcP9JG/p6IyDYT87aidDr9DwA9Z5xxxiGe552jqqcB2CPuvogISKfT2wF8K5VKfXdoaOjdAD4O4PUAJN7OGrYTwO8A/CCbza6IuRci6jAtFwDuctN5p/zz6L6Lj52216xPQvFpVTx396NacrPiu+IQ4V/5NMUHfcM/v7yvrm/HTQQ6zYxpsI+oxtTqA7AQVJb/ocYVVGrZzTiDSgMEBUB/hIJzrhy18hnzBalTjYdlvwbw697e3r1E5EQAPQDehhb+ejZuO4AfA0hns9nVcTfTSQYHB3cCuAjARa7rHg2gD8BpAKbH2lh4z4jINQBWqerKTZs23RpxMJyIcK4JnudNmgBwl/HNVRYvWbLk7O3bt7/FcZweVX0fGAYSxS6VSuUxtlL3F319fQcXCoWFIvIRAP8Rc2thrRaRH4nI5eM/+CQiilxLf2BanT5jFMD5bzl3+UVbEt1nOopzFLrvxICJHMM/QKkW/qlfIAj1WRDoF/75pY5hMKCKbIz1oDJoDCwHlZXv2br6tbvqTwH8Cl7h/8mRN99tuhhNLrlc7mkAywEs7+3tPRBAj4icBODVALpjbW43D8AqEflpPp8fvOSSS7ihgGHj4eoZixcv/ko+n383gHcDeANa5z2xHcAdIvJPALeq6q2bNm36x3iIaYqp7/U6/hTgIBdeeOEIgCsAXLF48eJzR0dH3yoix2Ps2pT7x9td86ZPn/7Y1q1bTzA1v6rebmrudjM8PHz/HnvsYey19jzvH6bmbmXpdPpBAP8PwH+5rvsyETlJVd8F4CVonZWBIyJyned5V3R3d/9+2bJlD8fdUJy6u7tvy+fzxv4uYBJuGuNHVVc7jmPy35wHTM1N0WiVfwDDSaWc1w4feoyn2gOVUxV4TkPhH4Bwp/6GC/886FdWf2/Rl6q1rhvO/hVU3lMym7GAqux+R6u+IG8AACAASURBVARUzYxpoA8jvQaMsx6qlj8WuYcASaNLL5XDV603WYjMcV33EQBzDU1/YTab/YSJic8666xnj4yMvGH8w/ibAcyH3a91G1X1/wD8IZFIXJVOpx+1WJt8LFy4cHZXV9dbReRVqno0gJcCmGGw5E5VXSMiawA8PP7roUKhcNvWrVvvtX3at+u6/QBONzD1W7LZ7NUG5m1rruu+SERepqrzMfbvzzwAz0fz/w69nKuHiZqzePHifQqFwnGq+kYAxwA4HMAUS+U3ArhdVa8TkWtnzJhxEzf+IiLbWnoFYIVUylsJrASw8ujUFZ+ftn3zqzyV1wH6OlG8RIG9Ad+4r/RehOGf/8YjQSwHVHWHWAHjYg+oIgxMa46BoRCygT6MB5WR2QrgbwCuhci1eLzrZnnjio7eHZJa10UXXbQVwJXjvzB+qvBRInKk53lHisiLMfaB/FlNllKMbUpyv6reJyJ/LxQKtxx44IH3jF+bjlrEwMDARgA/G/+FVCrlPProowd7nvdCAAcBOMjzvINEZBaAWRg7nbP49OHNAAoAtmHs2kw7VPVJEXkCwGOq+iSAJxOJxJOO4wwtW7ZsPQz/lKVORk4BnkzXAKxHNpu9G2PX+ZzQ19fX7Xne8wDMUdV9AcxxHOdZAKCqs1W1IhwUkc0YOz38GQDPbN++/X4L7RN1tGXLlj0O4Ofjv9DX19etqocCmOd53sEADhKRgzD2A9DnANgL4a+jOgzgaRF5EsC/d/0qFAr3Oo5zVzabHYr4t0NEVLf2CgCLrE69azuAa8d/AQBes/Tne3my81AnoYd6kBmi+mwo9tz1uFf03xK+36ar/89qy0KqsSESflMDBlTlt3fA0+/tPh70ubna52ktG7LrD678OSGOV7wXpGy8V/oUvx4rWg3oXcqLlfXnlT/mN48AEnAcADyf3pviPANgC9TbDMWDkMJDcuQtj0UwMZER46cKrxj/NWHRokUzEonEfiKyj+d5+wDYT0SeHTDNDlUdFpGNIrI+n8+v9zxv/cDAwA6z3ZMJ4wHt/eO/JgMjAWChUGAAGNL4js1D47+IqEWM/928c/yXrzPPPHPPkZGRPUXEGf9B0S6jnudtnTJlysj06dOf5mo+ImoHbRsA+rnpggVPA7h5/FfrmVQr6UL0AQCqw3LwTz8HIiKL+vv7twDYAuC+uHshMszI93pcAUhEk8EPf/jDZwBwEzsi6ggdFQC2NC9MmBbw2K7bDZ/qWe+YJvtoKKgkIiKiqKnqdJHoL4MpIlsin5SIiIiIjGEAaF0zK+l8TsGduGn6lN+gMWH7tXpNOiIiIgIgInsYmFbnzJnzlIF5iYiIiMgQBoBWmV5JFyZwCxgX++nJREREZECzG9742ZhKpbjZExEREVEbYQBojYexjRnCBG6I8HTeZlb9jd+3dXoyERERRUpE9tCKHwQ2Z3znYyIiIiJqIwwArTK96q/ofkOn88Z4ejIRERFFzvO8PaK+BqCIMAAkIiIiajMMAG2ytZKuJTf6qNYHERERmSAiJk4B5vX/iIiIiNoMA0BbbK2ka/mNPoLGEBERkQF7GZjzCQNzEhEREZFBDACtMb2SrkZgN/E/m6v+QvUxXR98/3kVYzyUqThQ+3hgvugF3A4Y4wUcLxFUzKvytBq1C84f5cgVKwIGERERVdXX17eH53nTDEzNU4CJiIiI2gwDQKvKQqLJuNFH5ZhpAD5b0a/YCioFvq8HJOB1k6LbCBiD+sYErf50vI0AVoCIiKgBnueZWP0HVX3cxLxEREREZA4DQGuiCrGK7kcRPoUZU6sPwEJQGTQmbL8R9xqm36aDymgv2k5ERJOLiOwd9Q7A4/M+HPmkRERERGQUA0DrOimgCjkm1qCy7INPbEFlA30EniJMRERUm+d5z4l6B2AAEJE1kU9KREREREYxALRpIvRpxYDKZ5yNoDKKPoz0GrZfg6EqFwASEVFznmdi0tHR0bUm5iUiIiIicxgAWtdBAVUzfUQ1plYfgOVQNWy/Yf+MiYiIGuM4zlwDpwAPDwwMPBb1pERERERkFgNAq+IKqMbvx7KSLiC0tB5UNthHVGNq9QH4vG5cAkhERI1T1bkGpl2Lyi9mRERERNTiGABas+t6bp0UUDUwpqFew/Ybca8VYxroo+mgkoiIqDGqOtfANQB5/T8iIiKiNsQA0CoTAVWVx4wHVHX0EdWYmr0ixqAyyj6IiIiaIyJzop5TVR+Oek4iIiIiMo8BoDWtsJLOZzWbjZV0UfRhpNdG+jURqpY/RkRE1DQBcGjUkzqOc3vUcxIRERGReQwAbeqYgCrCFX1hxtTqA7Acqobtl6v+iIgoHn19fXM9z3t21POqKgNAIiIiojbEANAWr/hOp62kCwgtrQeVDfYR1ZhafQAM/4iIyApVnWdiXsdx7jAxLxERERGZxQDQqnYOqEyspKvSh/GgMmhMA300HVQSERFFS1WPMDDthnQ6/aSBeYmIiIjIMAaA1hQvAaw3oKrymPGAqo4+ohpTs1cYCiHrHROij6pjiIiIjDnKwJx3GpiTiIiIiCxgAGid6ZV0UQZUUfU6fj+SELLZwC2qELLeMX69EBERGXOsgTl5/T8iIiKiNsUA0Jo6Tjmd+F+cAZXNlXQh+gAsBJVadshEUElERGSW67pzABxsYOpVBuYkIiIiIgsYANrW8gFVvWOa7KOpMUX3rQeVVUJchn9ERBQvE6v/AOAGQ/MSERERkWEMAG1pi4DKxEq6Kn1YDSqb7KPpoJKIiMia4w3M+WA2m33MwLxEREREZAEDQOtacSVdHX1ENaZmrzAUQoYaczeA1RBsgOJJqM6EyAGAHgboKwE4FXNx1R8REbWAVCrVNTQ09B4DU19vYE4iIiIisoQBoFUmQiwYWiXXQB+RhZDN9Bq234o+NkLle/DyP5Mjr78bAfSeY/dHwXkvgE8BOIir/oiIqJUMDQ29HsBzDEzN03+JiIiI2hgDQGu8ottRrZKrd0zAOOur/qqMs7/RRwHAd6BTzpN5f3oaNcjhq9YD+F+9c14a2OsMKP4bwEyGf0RE1CI+YGJSz/OuMzEvEREREdnBANCqhgKq4HFGV9Jp2U2bQWWDfdQ/ZiOgPXLEimtQJ5l3504AF+qdr7kKcH4PxWH1zkFERBSlhQsX7gvgowam/nt/f/9DBuYlIiIiIkucuBuYPBoJqLToeNFtVZ8xZXNFtZJOq/SBEH2EDSpDhZlV+qgYE9DH7td/KwTHNxL+FZN5Nz0AL/8GQO9vZh4iIqJmdXV1nQFgqoGpf2NgTiIiIiKyiAGgTfUFVMFj/I6XB4R+xyuCvaC5QvQROKZWUFn2GoQOIesdUzWoLEDwfnnRtasRATnylsfgdL0TwMYo5iMiIqqX67pzAJxjYm7P8y43MS8RERER2cMAMBZhVtL5BGU2VtJVXfWHojFVaoRe9VfPir6A8DRMH5VjLpQXXfsnREiOuP5+CD4e5ZxERER1+D6AGQbmvZWn/xIRERG1PwaA1jUSptUIykrGBMwVyaq/WkFl8aq/KnM1fXpyraCyuNeK5z+FqV0pGCDzVl0GyI0m5iYiIgqSTCbfDuA9JuZWVa7+IyIiIuoADACt8RAyoCq9Xfeqv3pW0hWPCdFHXav+agWVVfqI9PTk8tdcviMHX7MJxhS+Ym5uIiKiUr29vQeq6o8NTb+1UCikDc1NRERERBYxALRF4e26sft/YVbSBZz6CkSwkm7X9GFW0lXpo6GgMqjXWgFhiD6CA0KFyGUwad5NVwN4LJK5PC1EMg8REXWknp6eKQB+BmAvE/OLyMDAwACvb0tERETUARgA2rOlsZV0xbfrWUlXPCagXsOr/moFlUG9Vukj+o0+ym4DgK6WI/6yBgaJwINGtFuig82RzENERB1p9uzZ54nIqwxNr6p6kaG5iYiIiMgyBoDW6JaaAVWkG30UH/cJysJs9FGtRkOr/mqt6AtY3ddwUFk8RgHVm2GDo7dEMo8KA0AiIvLluu5XVHWpqflV9YpsNnu3qfmJiIiIyK6uuBuYNFQ2Y9dZwGMHSm83HLgV3a8VgkU1pqR82BCygTGhew3brzwKG1TXAxLBPB4DQCIiqtDb2/ttAJ8yWGJbIpFYYnB+IiIiIrKMAaAt4q0JDKvqXtHX6Jgqj0W16i/U76fG86MaU9nHBtigXY9CvNrjanF0ffOTEBFRp+jp6UnMnDnz2yJytsk6IvLtdDr9iMkaRERERGQXA0BbPPwLUueKPsDySroqfVgNKpvsI2iMeNNgg6PTK17KegkK2GMqT70iIiIAwJlnnrnn6OjoIIA3Gy5178aNG79muAYRERERWcZrANryrB13ojhtCwyxdPdtbvRRWS9MH0GvrYf9YIOH/ZueQ/GgHLRiRwTdEBFRm3Nd96jR0dHrYT78K3ied+bg4OBOw3WIiIiIyDKuALRE9hncqg9/+B6ovmj3UYMr6aoGf+P3Izmdt5lew/YbUa+OzIUV3twIrgF4exSdEBFR+1qyZMnU7du3fxnAObDwPZuqfq6/v/9a03WIiIiIyD6uALRKfz/+f9ReSVd8HCgJypo+5beelXQBfSBEHzXHaNHvp8pqx6iCSk/fpmrhPS/ytghm+WMEcxARUZtKJpPHDA8P3yQin4Wd8O+quXPnfsd0HSIiIiKKB1cAWqVXAfh00f2imxGs+pu4aXglXajArcbzoxpTs1cUv27Pw93HvhJYdTMM0XuOnYE83tTsNHCcKyNpiIiI2srixYufn8/nz1PVBYhkS/lQHhodHT0tlUpFsIMVEREREbUiBoA2bRtdhWd1PwnF3pGHfw2FaT7jjJ7yG2EfjfbqoReAsQAQozgVgqlNznK7HHHDo5H0Q0REbcF13Tki8ql8Pn8mADubVo1ZB+D45cuXP2WxJhERERFZxlOALZJ5gzvheenap/wW3e7EjT6q9YGQfTQcVGKR3nnMS2CA3v+qmXDwleYnkv4I2iEiojbguu6rXde9AsAaVV0Ku+Hfesdx3pDNZv9tsSYRERERxYArAG1LODl4+jmoFoWvJlb9jd83tZIu9Jiw/UbUa+CYCQ48OV9/3vM2WTBY8BvQsJHuLwD63CZn2Q7F8kj6ISKilnTaaac9a+rUqe8TkYWqehzsnepbbKOqnphOpx+MoTYRERERWcYA0DI58CcP6b8/+BsA7204KItqTGBQZvqU3zBjwvYbNoQsIjgeR6z7GoDPBQ+qj9752h6ofrr2yBoEl8tRK5+JoCUiImohCxcunOY4zusdx/kggPcDmKFa5WuVWUOq+vZcLndHXA0QERERkV0MAOOghf8EnJMw8frXG7hVecz4Sro6+ohqTM1eET78myCf0Tteu1bmr/xBiMFV6R3HvhGql6D5FRwjKMj/NNsPERG1BHFd92UicryqvgvAq9Aa33etzufzJw4MDGyIuxEiIiIisqcVvhGddOQFg/fqQx/4IYAl5lfSNXBacLtv9BGOAPq/esexL8GOHWfJy1eP1vPkiYq3H/MJCL4DRaKR55fNdr4cteqh5uchIiLbli5dOn3r1q0vVdVXAngFgFcCeGGMq/z8rMjn8+8ZGBjYGHcjRERERGQXA8C4jDpfQXehB8C+qPhwYGKVXL1jGuwjqjG1+gCaCf+KuZg+7aV6+7GflyNXXR32SXrXMfPhydcAnNR46RKPYmrh/EhmIiIio0499dSZ06ZNOxLAfBF5GYBXbtmyZT5a9/sqFZFvi8h/DgwMNPQDLyIiIiJqb636jWrHk8Muf1If/sAiFLwrMXHqqKEVfcZX/YXt1/TpyQ1SHA3Bn/WOY1dB9GfIF34tL75lqGLYP4+bja78uyD6Pnh4F6LbRVsB73Q55JbNEc1HREQRSKVSXWvWrDk0kUgcCeAoAEcCmA/goHg7q8sTIvLRTCZzVdyNEBEREVF8GADGSJ7/s6v0oQX/C9UlvmGXsevnld3vxI0+GnMsVI5Fout7esexjwHYAMWTEJkJ0QOgo/sA6I66KCAXyPyb/hT9vEREFEZfX99+nucdJiKHADjU87xDReSwoaGhFyQSCQP/7tshItcWCoUP9/f3r4+7FyIiIiKKFwPAuD09+xzs+cx8AG8sDbom/lN8YPdtoyvp6ugjqjE1e4Xp8K+YANgXwL5jazPLT0mOtNSNmDrjP03NTkRElVKplLNu3boBVT1CRA7xPG8mAOy6Xp9Is3s6xe5pEflcJpPJwvAXTCIiIiJqD1GdwkgNkpenRzE6cjKgtwMY+zZdFbu/X/e5rQHHJ4RcSRdqtV2NPgLHFPXRbPinWhT+lddoY4o7sGP4HXLIVSNxt0JENJmkUilPVV8A4GhVnRl3PxEqAPh+Pp8/OJPJZNAxXzCJiIiIqFlcAdgC5PDfbdH73vduOPgLoAfufsT0qr+AcdZX/VUZZ2/Vn21PokveJ0eu3hR3I0REk5GqXisix8bdR4T+BeDsbDa7Iu5GiIiIiKj1cAVgi5BDf/kQEs6rAdwZvOoPCBeohV3157OqrtaKvon/1eijrlV/AasMO3HV35i1SMix8qKV98XdCBHRZCUif467h4j8TUROyGazL2b4R0RERERBuAKwhchBgxv0/ve+DYKrAMyvfyVdeUgWZiVdHWMaWvUXtt9JseoPGAv/jmf4R0QUr02bNt0ya9asrQCeHXcvDfq7iHw+k8lcE3cjRERERNT6uAKwxcghvxqC7jgW0D80d/28Wivpilf9wVD459OH+hyfNOGf/BWF/DEM/4iI4jc4OLgTwKq4+2jATSLy/jlz5ryK4R8RERERhcUVgC1IDrlqs2rPSXhg9JuALgUgFWFYFCv6woypGvyN34/q9OTAGh1AtB9TZp7FDT+IiFrK1QDeGncTIYyKyE8BfCeTydwadzNERERE1H4YALYokcECgHP0vvdcCylcAmDvsUfqDdwCxjW8oq/OMbX6ADo9/NsC0U/IvBsH4m6EqB6qeoWIfATte3okUU2O41zreV7cbVTzhKr+BMD/ZrPZB+JuhoiIiIjaF08BbnFy6K9/D897CYA/hV5JV2uDjcCNPspOC64V7NV1enJAvc7d6AMAVqGQeDHDP2pHuVzuY9OnT99bVU8SkUsBbIu7J6KopdPpfwJ4Iu4+ymwBkHYc53Vz5szZN5fLfTKXyzH8IyIiIqKmcAVgG5DDfr8OwNv03pM+CNHvALrf7kdtnvIbNMZn3OQ+5fdpqH4Rdx+QlgWDhbibIWrUhRdeOALgCgBX9PX1LfE872QAPQDeBn79oM6gAK4D8P6Y+9guIn9W1V/n8/nfDQwMbIy5HyIiIiLqMPwA10bksN/9VB88/irkp34JgrMATB17JEzgVuUxI6f8Vgn4OjX8ExTgIYuu0S/Ii/76VNztEEUpnU5vArAcwPJFixbtn0gkelS1B8CxMbdG1BQR+T9VjSMAfBTAn0XktyLyp3Q6vT2GHoiIiIhokpC4G6DG6D0n7Q+n8CWoLsJEkMuNPmIhKEA1B3G+JvNWPhJ3O0Q29fX1He553gdV9UMickjIp12YzWY/YbQxopDOOOOMQwqFgo3d2beKyHWqeo2qXpPL5e6wUJOIiIiICAADwLand71zPrrwOaj3QQCJ8aNF/+NGHwblIfgVxPmGHHHDP+JuhihuruseDeAjAD4A4HlVhjIApJbiuu7DAA6MeNp7AdwsIjcXCoWbtmzZcsfgIC8LQURERETxYADYIfT+tx+MAs6F6KkAZoS7HmCVx6Ja9Rc4pq1thGoOCVwoR9y4Ju5miFpNT09PYs8993yN53mnATgFwIyyIQwAqaUkk8mcjq2or9cIgH+r6n0A7haRuzzPu2vatGn3XHTRRVsjbpOIiIiIqGEMADuM3nPSDOiOUyByBoCXcaOPCAlWw8MPMbLjcnn5al6riSiEhQsXTkskEic4jnOaqr4bQDcYAFKL6e3t/ZCIXFZ0aBTAVgCPq+oTIrJBRDao6uMistbzvIdE5KFsNrsOHfEFjoiIiIg6HQPADqb3vO0oqLcQDj4E1bHT8bjRR73uAvBLiP5K5t14a9zNELWzxYsXH5DP5z8IYEc2m/1B3P0Q7bJkyZKp27ZtOyCfz2+aNWvW1vEdsImIiIiIOgYDwElArz2uC/t2vwmiJwN4FxRzudFHFWMr/X4F9X4lR910T9ztEBERERERERE1gwHgJKR3Hv9SiJ4AwfGAvhbA9Em+0cc2QK8FnD8ikb9SXnTzw3E3REREREREREQUFQaAk5ze//apKOw8Bp6+GdA3A3gFoImiEZ240UcewK1QvQ4J54/onnGDHHIVT/ciIiIiIiIioo7EAJBK6IPHz8KOwnEQ7xhAj4bK0QBmt/mqv40Q/A2e3IgEVkK7bpZ5K7g7IxERERERERFNCgwAqSa9/U0Hw8kfDdWjITgawNGAzg4+LTg2CmANgHsA3ArR1Sg4/5CjVj4Uc19ERERERERERLFhAEgN0buPez7yo4cA+kKIHALghQDmApgDYG+TpSFYD8VDAP4N0Yegzn1w5F5s336PvHz1doO1iYiIiIiIiIjaDgNAipz++7hpGPbmwtN9IN5z4MneEG9vAHsBAERmQdWpfKKMQHQ7xNkID8NwMAz1noI6T0ELT2GK8xSmdj8tB63YYfm3RERERERERERERERERERERERERERERERERERERERERERERERERERERERERERERERERERERERERERERERERERERERERERERERERERERERERERERERERERERERERERERERERERERERERERERERERERERERERERERERERERERERERERERERERET/v717yW0jO9s4/rynbiyWREd01AiNBjwI3AN56A1okC0o22lrE1lEnD20M8jQgwwkBO1B0EAgDQRLFm91r/MNVG/psFiy3G512+3v+QECi1UURVIc/XEuREREREREREREREREREREREREREREREREREREREREREREREREREREREREREREREREREREREREREREREREREREREREREREREREREREREREREREREREREREREREREREvwn53C+Afle674u1tjt5fHx87/fo5OTkk79rz58/t/c95vvvv994jMjtS/3Uv0tERERERERE9DVgACTRmNcPeRrtjo6OunOnp6db35mzszMBgBcvXgz+gfPz81/8PZvNZoMh782bNwCAJ0+eDF4/ODjozr969WorJmo4ZDAkIiIiIiIioq8VA+DXT6y1G3HPDXv9oHd2diZuyOvHu3fv3smzZ882/sDl5eUHv0eTyeRBvmfz+fzOODedTreuvX37Fo8fP944ryFxKBxqLOyHwl4kZCAkIiIiIiIiot8VBsCvw9YovpOTE9GRexr53Ljnhr1+1HODXj/ezefzjfuz2WzrXN9qtRq8vr+/P/j4i4uLwfNJktwZ3yaTiQWA8/PzrXOqHxDdaHh5edkdu5GwHwiH4iDDIBERERERERF9yRgAf382RvR9KPS5kW86nQpwd9zTiDcU9FarlbixbrlcblxP01Sm0+ngi12v1w/2HRuPx3dGtjRNt67t7OxY4DYougFxMplYjYVuKHQjoQZCdyThUBzsh0EnCgIMg0RERERERET0mTEAftnujX2z2UyA2xF9/dD39OlTXF1dCTAc+dy454a9OI67Yzfi7e3tDUa9LMvk0aNHW28gy7IH/Y6NRqONoHZ9fT14fjwe26urq437euzGQjcSDgXCoTh4Vxj8yCjIIEhEREREREREvykGwC+PvHz5ciP43TWyT6fuauzTEX0fCn1DkU+DXj/uuVHPDXmTyWQr7On93d3djTeT5/mDfseiKOoC2mKxALAd/wCgKIrunHv9+vq6u+9GwqFAOBQHV6uVBW5HDfajoE4l1pGC5+fnDIJERERERERE9Fl5n/sFEMRaKyJiDg8PZX9/3xweHsrFxYWpqsrs7e3Jcrk0AOTp06emrmtJ09QAkD/96U+maRrJ89zMZjPJssxYa6UsS7O/vy/z+dxYa2U0Gpk4jmW1WhkAsre3J03TGGutpGlqHj16JNZaU5alASBhGBrP80wURZKmqRmNRiYMQ7HWGmOMKcvS+L5vXHotiiIjIt2Pnn8ovu+LPndd18YYY4IgEPcxdV1v3A+CQFarlSnL0iRJIp7nmSRJZLlcGj02xpjFYmE8zxPP88zu7q5cX18b3/cljmMpy1KstbK3tydJksjV1ZXxfV/CMDRlWUqapiYIAomiyOR5LmEYSvu/EgDi+75cXV3J7u6uAJCLiwsBIH/961/lhx9+2NqBmYiIiIiIiIjooTAAfh4b0e9vf/vbYPTb3d2VMAyNBr8gCO4MfnEcS57nxlork8mkO7+3tydFURhrrSRJ0kU9tKFP7+/s7IhGPmutaOALw1CyLDNRFJkgCLoIaK0Vz/O60KfXwjDcCIBN02zc158kSUwYhoM/VVUN/o6IDAZA91wURaLnjTFmNBrJer02xhgTx7FoICzLsju3Wq2M53kSRZEkSSJ5novGQjcKVlUlRVEMRsH1ei2+70v7uUsQBNL+r6T9rOX6+lrG43EXBOM4BhgDiYiIiIiIiOhXxgD429Lw97OiXxRFkue5mU6nkmWZ+ZjgpyP73NinI/52dnY2Ql8b/iTLMjMej7trGviCIJA8z00Yhsb3fdGoF8exuIGvaRoTBMHWCEA9Ho/HXeS7K/CJyEYMrOvaPS/9x3met3HO933RgBhFkWgoHI1Geiz9ONgPg+1nKxoF67oWAJIkiWRZJp7nibVWqqrqYl6apuL7viRJgn4MbP+P4nkeAMh0OsV//vMfGY/HMpvN8K9//Uv+/Oc/A20MfP78OQ4PDxkDiYiIiIiIiOhBMC78NgbX9XPX9Btaz28+n4u7jt94PBZdw89dvy+KIgFu1+zLskx0nb4sy2R3d7dbiy8IAgFu1uZLkgRFYy+BjgAAEdFJREFUUQgA+L4vAFAUhYzH4+68e+x5Xvd9KctSR7B11+M47o5VVVUSRdEv/gDzPIfv+1vr5dV13Z0Lw9CmaYr2fdr+9aqqrD6uf3+9Xm+dL8vSAjfrDi4Wi27tQF1fcDQa2TzPN9YTHI/H9vLyEnEc252dHdtfP3Bo7UB33cChNQO5XiARERERERER/RIcAfjr6kb8nZycyOHhoYiI/Pvf/zbfffediIj89NNP5ttvvxUR2RrtZ62Vy8tL84c//EHyPDee55kgCKQsS7OzsyNFUZiqqkySJFJVlZlOp1KWpSnL0gRBIFVVGc/zxBhjqqoy4/FYqqoy1lqJoshYa0VH9VVVZeI4lnbUngRBYHzfl6IozGg06tYMNMYYEemeF0A3ys/3feN5njtC0ERRJHdNA3am8nrW2q3RfL2Rfd30XndEYDst2rRhszvWEYBVVZkoisT3fanrupvSfPM2bkYE6mPSNDXGGImiSIqikNFoJEVRiOd53Zp+YRgiz3OJogjW2m50oMbR9v+N8XgMa213LkkSiAistbJcLjGZTBBFkbx//x5oRwVeXFwAgMxmM/z3v//FN998IwcHB/jHP/7hjgj8TF9lIiIiIiIiIvq9YgD8dWxN9e2Hv+VyKdPpVERE0jQVHfHXD386FTcIAlmv16Jr3uktADHGdPHMjX7tFNbunMhNv9N19nQdQg1+bdAyo9FIqqoy+hxlWZooikTjnkY9vW3XyBMR6YLgaDQyAAzaKKfHURQZ3/eN7/sGgNe+D+OuOaj3fd83dV13v+t5nug5DX4AupinU5n1OM/z7nF1XevrF9/3JYoiKctSwjCUsizFGNONfDTGiN7qKMkgCKAxUEdUujEwz3MAkNFoBOAm+mVZBgAyHo+xXq/vDYHT6RRxHMvFxQVmsxl+/PFHybIMBwcHeP36tZyenuLw8FBev379236biYiIiIiIiOh3jVOAH55Ya3F8fCx3TfedTqcCAJeXlzKZTAQA5vO5JEkyONV3vV7L3t4e1uu1uNN8wzDspvW6U3zd6b0atdxjne6ro9bakX4b59zbdh277pwxRoDb6b16PYoitOvidY8BgDAMu/OuoXPt69ma6to0jXWvF0XRHed5vjXlVx8fBIHNsgxBEFidRqy3OmVYb4MgsPr77rRgnRJcVZUNw9CuVitEUdRNE3anCA9ND87z3I7HYwsAaZpuTA2eTCb2/Pwck8nEfsy04NPTUwsA7bRgTgkmIiIiIiIionsxAD6sj4p/d63zt1qtZH9/H8vlUobW+IuiSLIsEwBop7J2o9F0bT835unxUPjTNfyKouhuNfBVVSUa8Nzo5wY/jX1u3NPfcQNhGIbQ4/Z1dx/WfQHQjXx6X4/dIKjHTdNYNwi66wY2TWOHYqAGv7qurRsCNQx+TAh01wrU46Io7Gg0stfX1xiNRtZdIzBN0y4G3rU+ICMgERERERERET0UTgF+QNZa+ZiRfzrlF7jZjMNa+9HxbzKZ6PTSO+NfO0W424k2iiKx1kpRFN2UV8/zRKfF6lTZNsgZEemm++raeUEQ6Dp4ZjQaSV3XxvO8brdgY0z3OHeKbvsajDFGPM/rpvO214zneVs/7dp5xvO8bpqxvi59zrqude3CLmwaY6Rpmm6qr0ZK3/e7/49Ov20/r63rABAEAdqpwqiqCsYYKcsSQRAgyzIJggBlWSKOY6RpKmEYYjwed8dN06D9XLGzs4PVaiXWWkwmEywWCxmPx6iqCu20boRhiD/+8Y949+5dN504TVOZTqdI0xTL5VJmsxmWyyUuLi7k5OQE33zzDf75z39yOjARERERERER3ct87hfwFZHj4+NuRNvp6akAgMY/Pa+j/4DNab8a//SaTvsFbnb31fP9nX378W88HgPAxm68OgU4jmNo/ANuRve16wSiXTdQRqNRdxyGYXesIwDdW/enaZpusxDf9027NmB3a631dN2/IAi8IAg83ARoz/f97rhd79ALgqB7fD8QuusPjkaj7u/3X1MbHbvb/shGdySj+5kMfVY6ilI/X/28kyRBnufdFOw8z7dGaT569Kj7n+r/RCPv/v4+VquV6E7PwM3IUD3WaAwAZ2dnAgBHR0c4OTnRDUY+9J0kIiIiIiIiImIA/DUcHR1tnXv37t1g4OlL03QjAgKArvk3mUy6x2lw6h9r+OsHKw1acRwDuJ3aC2xOxS3LUkcCbkUyd4qve6zX2l1GRLWjELuddZumMWEYigbBdkOQLgK2OxN7Gvl0d49+3BMRqet6K0b2X6M7RXnofYxGo246c/8zcQNq/37/OEkSADfrLwLA7u7u1v9Vo6Cu5Tjwr4dOBdf7biy+B6fyExEREREREdGdGAB/p3QTii9JWZZb53Qdv/7jfN+3ZVnC8zwLoLv9VEMbh/xc7U6+P9tqtfqlf5qIiIiIiIiI6FfDAPiAvv/+ewsAr1692rr2+PHjLlDpbq+ui4sLAEAcx9013TlWN5KYz+eDf9eNgbpRhW5csV6vAdxscqGbW+h94CZ66cYZwM2uuRrT9Hf0Me5mG03T2KIouo033FtjTGOt7Y6bprF1XTftcVPXdVPXdSMidVVVtbW2qqqqrqqqvhncd3OtaZomz/PuOfrP7f7oBiH9DUGKorjzfbgbggCbETEMQ6s7C+v9+451A5DFYgHgZidgvabHuhHI0P9RdwPW+9Pp1L59+3bwf/78+XP3Ob64GExEREREREREXw4GwIezEWEODg4sALx58waz2cwCwNu3bzGdTrvHTSYTu1qtLAAkSWJ3dnYsAFxeXkJ3jQU2Q5LuLrtYLDZ2ndWdaQHcuXuthjDd8baua6s74WoYq+va1nXdhbW7jt24V1VVY4xpsiyzxpgu2mno05+yLOuqqhoAdVmWH/zRx2kQvHn5N8+jf09v3dfSP3bfs75Hve+edz+T/mf2c3cC1v/XfD6H7gQMAHmed//HNE3tzs6Ovbi4QJIk1g1/biB2w/GTJ082AnO7C/DP/Z4SERERERER0f8z/ud+AV+TdodZe3x8jFevXsnR0ZFGQHnx4oWGHJlOp/by8hKTyUQmk4mdz+dIkkTW67Xd2dkBcLP+23Q6tev1GlEUSZ7ndjQaIcsyaSMgFouF7O7u2jzP0e7ia8uy1DXmbLv+HcIwRFEUui4ggiDYOK/qukZd12iaBkEQ2LIsdT092665Z3X9PN0gow1u3W1VVQBu1xXUdfjccwCg54boa9KpwgCQpil837dVVaH9G9YY04141FF9vu/bNE2hox3bqcZdzNP3076n7pyGz7quUVWV1fNVVVljjG13A96Igf34VxSFNcZ0xxr/RqOR1fg3Ho/tUPzT0X8a/9rviAWA2Wxmz8/PLdCFZavfN3D0HxERERERERHdw/vcL+Brc3x8LD/88ANOT0/x+vVrOTw8RJZl+PHHH+W7777DxcUF/ve//8m3336L9+/fI4oiiaIIy+USYRhKWZZIkgTWWlRVhfF4jCzLMJlMkGUZ8jzHzs4O8jxHFEVomgZ5nmM0GtmiKBCGIUTEBkGAsizRNA2Am5jmeR7KskQURbaqKqRpqqPaEIah1ceKiAYmW1WVxkCEYWjb57TGGACwnucBgNVYV1UVdORdu0NtN6qwfV7rnhv60ccAsDrCUI/bkYXdcVEU1vO8RkRsURQWgBWR7u9VVWWttRoSN87pbRAEtp1WDADdNd/3red5qKqquxURm2UZjDHd70RRZK211vd9FEVh67ruop/v+8jz3I7HYxsEweDIv4+NfycnJ/oZ4uXLl10IJCIiIiIiIiL6EM4f/JVYa+X4+FgA4ODgQE5PTwUAZrOZnJ+fCwBMp1PRnV4nk4nM53PRnWBXq5Xs7+9juVwKAMRxLOv1WnQX2SzLRHcHDsNQgJudZnd3d5HnueiOtHmeS5IkKIpCfN8XAN3uwO5tURTi7hSsO93qzrh6W1WVRFEEHR2oO+nqNXdknz5W6eMAwD3f19+Mw12LT9fx0/s68g+4HeHnrvfnng/D0Gr01FGC7nUdTdif6qvnhqb7uqP/2s+jG+2n4Q+4mfKrt0mSWABYrVbd1N/5fG51zb/Hjx/b2Wxm37x5gydPntiDgwP76tUrPH/+3DrTfhn/iIiIiIiIiOijMAD+usRai+PjYzk5OZGjoyOcnp7K2dmZvHjxAufn5/Lu3Tt59uwZPjUEAkAURZJlmQCAxsAgCCTP8+4Y2IyBbvjTYwBwI6EbBPUccBsD3WOd3qthz419biT8FEEQ2CzLts71N+9wo59GPve4H/zc6bx6276XD0a/xWLRrcvYn+rbvo6N8OeO+AOGwx8A3DXl9/T01ALdmn8Mf0RERERERET0szAA/jbuDYHA9ohAAJjP55IkiQCAGwPjOBYAuGtUIHAbA92Rge304a3Yd1cEdO8Dm/FvKA72H6P6owE/Vn/En3IDX/++hj4d7afX3ch3X/Br399W9NPdmIeiH3C7xh8A3DXVF9gOf7pRDMMfERERERERET00BsDf1mAIBLanBgM3G4E8ffoUV1dXMp/PBQCGYmCapjKdTjdGBAI34e++IAhsjxAEhuOfhkL3uhsO1VAAvGsEoAZE4CbYDXGnALuP1YCnNPLpMbAZ+vrX3dgXRZFdLpfQ4/4oPwAb0U93ae5P8b0v+gHba/wNTfUFuM4fERERERERET0M7gL823LXb5Pnz58LAHtyciIHBwdWA2AURRoD7WKxkHYEXH/6razXa2l3nRXP8yDtk+tjRETm83kXBBeLhTx69AjGGFmtVrqxiNR13UXBNE27UBcEgejGIBoHm6bZCH4aF5UbBl3tBhlbEXC1Wt3/obW7iSiNeO76f3pfX2+WZQjD0NZ1jTRNEUWRzbIMcRzb5XKJNE0Rx3EX+tbrNYwxKIrCtpuvdCP7RAQa/HQa7/v3762IwPO8jem9OlrR8zzbvjc7n8/RjvbrYuPZ2RmePHliz8/P8Ze//MWenp7a09NT/P3vf+caf0RERERERET0oBgAPx/bjvAC7omB+hjgZkReO03YujGwjVDdyMH9/X3s7u5iuVxKURSI41iSJIGOJIyiSBaLBfR4PB5jtVp1gS4MQ6nrGsDtiMF2x+HuMe50YlXXtQDodh92NU3zSSNO+6FPX1f/fJZl3fp+ej2OYywWC1RV9cHQpyP73NgHoLv+McEPuJ3C60xb3op+e3t79urqCk+ePLEAcHR01EW/ly9ffspHRERERERERER0J04B/vJ004QBYGiqMAAMTRcGNtcOBG6nDAOb04YBQKcOA+imD7ubiwC304j12H2hOqXYpY/Z3d3demP9WPgxdIquS8MlgG6arnt/Pp9vXXfX63NeT7dun55zp/ICgBv7+lN6gc1pvbqDL7A5tRe4WdOP03uJiIiIiIiI6HNgAPzyfTAI9jcSAe6OgsCHwyCALg4CNzsOuy/EDYP9UKg0AGo0vOv6x+pHO3V9fX3ndXcEn97XYw18wHDkA25Dnx4Dt6EPGI59wOYGHgDgbuIBANzIg4iIiIiIiIg+BwbA36cPRkFge6QgsB0GgeE4OJvNumOl04OHQqGrHw2HDIXDIW64G3J5eYk4jrceo2EP2I57wHDgA7YjHwAMhb7+yD4AcEf3tbv2AhzhR0RERERERERfAAbAr8dGFARuwyCArRGDwGYcfPfunTx79qx7MjcS6k7E7h/rB8LZbDZ4/i7ueoND+tHuLhrwNOj1zys37gG3gQ8AdEdeYDjyAbdTeAEMhT6AsY+IiIiIiIiIvlAMgF+/m6FoA3EQAPqBENiMhMBmKFT9YKjccHiffljc29uzAPDTTz997FNshDzljtpTGvaA7bgHDI/kAzam7wKMfERERERERET0O8QASMAdkVB9KBb2nZ2dCQC4AfGhvXnzpjvuhzylQQ+4iXoANsIesBX3AAY+IiIiIiIiIvoKMQDSp7gtZnazmQ0FxF+TRjxgI+QBjHlERERERERERERERERERERERERERERERERERERERERERERERERERERERERERERERERERERERERERERERERERERERERERERERERERERERERERERERERERERfnf8Dq9WyrkyTa9gAAAAASUVORK5CYII=;" vertex="1" parent="1">
          <mxGeometry x="580" y="200" width="135.08" height="40" as="geometry" />
        </mxCell>
        <mxCell id="eUcrK74wxGQHS_9A9SQL-14" style="edgeStyle=orthogonalEdgeStyle;rounded=0;orthogonalLoop=1;jettySize=auto;html=1;exitX=0.5;exitY=0;exitDx=0;exitDy=0;entryX=0.5;entryY=1;entryDx=0;entryDy=0;fontSize=15;" edge="1" parent="1" source="eUcrK74wxGQHS_9A9SQL-12" target="eUcrK74wxGQHS_9A9SQL-5">
          <mxGeometry relative="1" as="geometry" />
        </mxCell>
        <mxCell id="eUcrK74wxGQHS_9A9SQL-12" value="&lt;font face=&quot;Courier New&quot; style=&quot;font-size: 15px;&quot;&gt;&lt;b style=&quot;font-size: 15px;&quot;&gt;pgcli&lt;/b&gt;&lt;/font&gt;" style="text;html=1;strokeColor=none;fillColor=none;align=center;verticalAlign=middle;whiteSpace=wrap;rounded=0;fontSize=15;" vertex="1" parent="1">
          <mxGeometry x="74.46000000000001" y="280" width="40" height="20" as="geometry" />
        </mxCell>
        <mxCell id="eUcrK74wxGQHS_9A9SQL-15" style="edgeStyle=orthogonalEdgeStyle;rounded=0;orthogonalLoop=1;jettySize=auto;html=1;exitX=0.5;exitY=0;exitDx=0;exitDy=0;entryX=0.5;entryY=1;entryDx=0;entryDy=0;fontSize=15;endArrow=none;endFill=0;startArrow=classic;startFill=1;" edge="1" source="eUcrK74wxGQHS_9A9SQL-16" parent="1">
          <mxGeometry relative="1" as="geometry">
            <mxPoint x="650.0049999999999" y="240" as="targetPoint" />
          </mxGeometry>
        </mxCell>
        <mxCell id="eUcrK74wxGQHS_9A9SQL-16" value="&lt;font face=&quot;Courier New&quot; style=&quot;font-size: 15px&quot;&gt;&lt;b style=&quot;font-size: 15px&quot;&gt;file&lt;/b&gt;&lt;/font&gt;" style="text;html=1;strokeColor=none;fillColor=none;align=center;verticalAlign=middle;whiteSpace=wrap;rounded=0;fontSize=15;" vertex="1" parent="1">
          <mxGeometry x="630" y="275" width="40" height="20" as="geometry" />
        </mxCell>
      </root>
    </mxGraphModel>
  </diagram>
</mxfile>
